<mxfile host="app.diagrams.net" agent="Mozilla/5.0 (Windows NT 10.0; Win64; x64) AppleWebKit/537.36 (KHTML, like Gecko) Chrome/133.0.0.0 Safari/537.36" version="26.0.16">
  <diagram name="Page-1" id="7DSMkEoMC-NE01Yf9gfc">
    <mxGraphModel dx="915" dy="799" grid="1" gridSize="10" guides="1" tooltips="1" connect="1" arrows="1" fold="1" page="1" pageScale="1" pageWidth="2339" pageHeight="3300" math="0" shadow="0">
      <root>
        <mxCell id="0" />
        <mxCell id="1" parent="0" />
        <mxCell id="G4rwLLoVx2K-rOXY0CrV-170" value="" style="group;fillColor=none;" parent="1" vertex="1" connectable="0">
          <mxGeometry x="49" y="320.00000000000006" width="350" height="330" as="geometry" />
        </mxCell>
        <mxCell id="G4rwLLoVx2K-rOXY0CrV-15" value="" style="rounded=0;whiteSpace=wrap;html=1;fontSize=12;fillColor=none;strokeColor=#94c1ff;gradientColor=none;strokeWidth=5;" parent="G4rwLLoVx2K-rOXY0CrV-170" vertex="1">
          <mxGeometry x="4" width="340" height="330" as="geometry" />
        </mxCell>
        <mxCell id="G4rwLLoVx2K-rOXY0CrV-16" value="" style="group;fontStyle=1" parent="G4rwLLoVx2K-rOXY0CrV-170" vertex="1" connectable="0">
          <mxGeometry y="50" width="141" height="89.99999999999994" as="geometry" />
        </mxCell>
        <mxCell id="G4rwLLoVx2K-rOXY0CrV-25" value="" style="shape=image;html=1;verticalAlign=top;verticalLabelPosition=bottom;labelBackgroundColor=#ffffff;imageAspect=0;aspect=fixed;image=https://cdn1.iconfinder.com/data/icons/science-technology-outline-24-px/24/Chemical_dropper_color_picker_dropper_laboratory_tool_pipette-128.png;strokeWidth=3;fontSize=12;fillColor=none;gradientColor=none;rotation=135;" parent="G4rwLLoVx2K-rOXY0CrV-170" vertex="1">
          <mxGeometry x="79.69999999999999" y="160" width="58.59" height="58.59" as="geometry" />
        </mxCell>
        <mxCell id="G4rwLLoVx2K-rOXY0CrV-59" value="" style="endArrow=classic;html=1;rounded=0;fontSize=10;entryX=0;entryY=0.5;entryDx=0;entryDy=0;" parent="G4rwLLoVx2K-rOXY0CrV-170" target="G4rwLLoVx2K-rOXY0CrV-25" edge="1">
          <mxGeometry width="50" height="50" relative="1" as="geometry">
            <mxPoint x="149" y="131.99999999999994" as="sourcePoint" />
            <mxPoint x="120" y="160" as="targetPoint" />
          </mxGeometry>
        </mxCell>
        <mxCell id="G4rwLLoVx2K-rOXY0CrV-61" value="&lt;font style=&quot;font-size: 14px;&quot;&gt;Transfer&lt;/font&gt;" style="text;html=1;align=center;verticalAlign=middle;resizable=0;points=[];autosize=1;strokeColor=none;fillColor=none;fontSize=12;fontStyle=1" parent="G4rwLLoVx2K-rOXY0CrV-170" vertex="1">
          <mxGeometry x="2.000000000000007" y="160.00000000000006" width="80" height="30" as="geometry" />
        </mxCell>
        <mxCell id="G4rwLLoVx2K-rOXY0CrV-66" value="&lt;font style=&quot;font-size: 16px;&quot;&gt;Cleaning&amp;nbsp;&lt;br&gt;Stage&lt;/font&gt;" style="rounded=1;whiteSpace=wrap;html=1;strokeColor=#6c8ebf;strokeWidth=3;fontSize=12;fillColor=#dae8fc;fontStyle=1" parent="G4rwLLoVx2K-rOXY0CrV-170" vertex="1">
          <mxGeometry x="244" y="58" width="81" height="102" as="geometry" />
        </mxCell>
        <mxCell id="G4rwLLoVx2K-rOXY0CrV-68" value="&lt;font style=&quot;font-size: 14px;&quot;&gt;Clean Blade&lt;/font&gt;" style="text;html=1;align=center;verticalAlign=middle;resizable=0;points=[];autosize=1;strokeColor=none;fillColor=none;fontSize=12;fontStyle=1" parent="G4rwLLoVx2K-rOXY0CrV-170" vertex="1">
          <mxGeometry x="234.5" y="190.00000000000003" width="100" height="30" as="geometry" />
        </mxCell>
        <mxCell id="G4rwLLoVx2K-rOXY0CrV-30" value="" style="rounded=0;whiteSpace=wrap;html=1;strokeWidth=1;fontSize=12;fillColor=#B3B0B0;gradientColor=none;strokeColor=default;" parent="G4rwLLoVx2K-rOXY0CrV-170" vertex="1">
          <mxGeometry x="58.489999999999995" y="250" width="101" height="60" as="geometry" />
        </mxCell>
        <mxCell id="G4rwLLoVx2K-rOXY0CrV-31" value="" style="ellipse;whiteSpace=wrap;html=1;aspect=fixed;strokeWidth=3;fontSize=12;strokeColor=none;fillColor=#fff2cc;" parent="G4rwLLoVx2K-rOXY0CrV-170" vertex="1">
          <mxGeometry x="72" y="260" width="10" height="10" as="geometry" />
        </mxCell>
        <mxCell id="G4rwLLoVx2K-rOXY0CrV-37" value="" style="ellipse;whiteSpace=wrap;html=1;aspect=fixed;strokeWidth=3;fontSize=12;strokeColor=none;fillColor=#fff2cc;" parent="G4rwLLoVx2K-rOXY0CrV-170" vertex="1">
          <mxGeometry x="72" y="275" width="10" height="10" as="geometry" />
        </mxCell>
        <mxCell id="G4rwLLoVx2K-rOXY0CrV-38" value="" style="ellipse;whiteSpace=wrap;html=1;aspect=fixed;strokeWidth=3;fontSize=12;strokeColor=none;fillColor=#fff2cc;" parent="G4rwLLoVx2K-rOXY0CrV-170" vertex="1">
          <mxGeometry x="72" y="290" width="10" height="10" as="geometry" />
        </mxCell>
        <mxCell id="G4rwLLoVx2K-rOXY0CrV-40" value="" style="ellipse;whiteSpace=wrap;html=1;aspect=fixed;strokeWidth=3;fontSize=12;strokeColor=none;" parent="G4rwLLoVx2K-rOXY0CrV-170" vertex="1">
          <mxGeometry x="94" y="260" width="10" height="10" as="geometry" />
        </mxCell>
        <mxCell id="G4rwLLoVx2K-rOXY0CrV-41" value="" style="ellipse;whiteSpace=wrap;html=1;aspect=fixed;strokeWidth=3;fontSize=12;strokeColor=none;" parent="G4rwLLoVx2K-rOXY0CrV-170" vertex="1">
          <mxGeometry x="94" y="275" width="10" height="10" as="geometry" />
        </mxCell>
        <mxCell id="G4rwLLoVx2K-rOXY0CrV-42" value="" style="ellipse;whiteSpace=wrap;html=1;aspect=fixed;strokeWidth=3;fontSize=12;strokeColor=none;fillColor=#fff2cc;" parent="G4rwLLoVx2K-rOXY0CrV-170" vertex="1">
          <mxGeometry x="94" y="290" width="10" height="10" as="geometry" />
        </mxCell>
        <mxCell id="G4rwLLoVx2K-rOXY0CrV-43" value="" style="ellipse;whiteSpace=wrap;html=1;aspect=fixed;strokeWidth=3;fontSize=12;strokeColor=none;" parent="G4rwLLoVx2K-rOXY0CrV-170" vertex="1">
          <mxGeometry x="117" y="260" width="10" height="10" as="geometry" />
        </mxCell>
        <mxCell id="G4rwLLoVx2K-rOXY0CrV-44" value="" style="ellipse;whiteSpace=wrap;html=1;aspect=fixed;strokeWidth=3;fontSize=12;strokeColor=none;" parent="G4rwLLoVx2K-rOXY0CrV-170" vertex="1">
          <mxGeometry x="117" y="275" width="10" height="10" as="geometry" />
        </mxCell>
        <mxCell id="G4rwLLoVx2K-rOXY0CrV-45" value="" style="ellipse;whiteSpace=wrap;html=1;aspect=fixed;strokeWidth=3;fontSize=12;strokeColor=none;" parent="G4rwLLoVx2K-rOXY0CrV-170" vertex="1">
          <mxGeometry x="117" y="290" width="10" height="10" as="geometry" />
        </mxCell>
        <mxCell id="G4rwLLoVx2K-rOXY0CrV-46" value="" style="ellipse;whiteSpace=wrap;html=1;aspect=fixed;strokeWidth=3;fontSize=12;strokeColor=none;" parent="G4rwLLoVx2K-rOXY0CrV-170" vertex="1">
          <mxGeometry x="139.5" y="260" width="10" height="10" as="geometry" />
        </mxCell>
        <mxCell id="G4rwLLoVx2K-rOXY0CrV-47" value="" style="ellipse;whiteSpace=wrap;html=1;aspect=fixed;strokeWidth=3;fontSize=12;strokeColor=none;" parent="G4rwLLoVx2K-rOXY0CrV-170" vertex="1">
          <mxGeometry x="139.5" y="275" width="10" height="10" as="geometry" />
        </mxCell>
        <mxCell id="G4rwLLoVx2K-rOXY0CrV-48" value="" style="ellipse;whiteSpace=wrap;html=1;aspect=fixed;strokeWidth=3;fontSize=12;strokeColor=none;" parent="G4rwLLoVx2K-rOXY0CrV-170" vertex="1">
          <mxGeometry x="139.5" y="290" width="10" height="10" as="geometry" />
        </mxCell>
        <mxCell id="G4rwLLoVx2K-rOXY0CrV-60" style="edgeStyle=orthogonalEdgeStyle;rounded=0;orthogonalLoop=1;jettySize=auto;html=1;exitX=1;exitY=0;exitDx=0;exitDy=0;entryX=0.5;entryY=0;entryDx=0;entryDy=0;fontSize=10;" parent="G4rwLLoVx2K-rOXY0CrV-170" source="G4rwLLoVx2K-rOXY0CrV-25" target="G4rwLLoVx2K-rOXY0CrV-30" edge="1">
          <mxGeometry relative="1" as="geometry" />
        </mxCell>
        <mxCell id="G4rwLLoVx2K-rOXY0CrV-112" value="" style="endArrow=classic;html=1;rounded=0;fontSize=12;entryX=0.5;entryY=1;entryDx=0;entryDy=0;" parent="G4rwLLoVx2K-rOXY0CrV-170" edge="1">
          <mxGeometry width="50" height="50" relative="1" as="geometry">
            <mxPoint x="285" y="229.99999999999994" as="sourcePoint" />
            <mxPoint x="284.75" y="159.99999999999994" as="targetPoint" />
          </mxGeometry>
        </mxCell>
        <mxCell id="G4rwLLoVx2K-rOXY0CrV-148" value="&lt;font style=&quot;font-size: 20px;&quot;&gt;Opentrons Liquid Handling Robot&lt;/font&gt;" style="text;html=1;align=center;verticalAlign=middle;resizable=0;points=[];autosize=1;strokeColor=none;fillColor=none;fontSize=20;fontStyle=1" parent="G4rwLLoVx2K-rOXY0CrV-170" vertex="1">
          <mxGeometry x="5.000000000000028" width="340" height="40" as="geometry" />
        </mxCell>
        <mxCell id="G4rwLLoVx2K-rOXY0CrV-164" value="&lt;font style=&quot;font-size: 14px;&quot;&gt;Mix&lt;/font&gt;" style="text;html=1;align=center;verticalAlign=middle;resizable=0;points=[];autosize=1;strokeColor=none;fillColor=none;fontSize=12;fontStyle=1" parent="G4rwLLoVx2K-rOXY0CrV-170" vertex="1">
          <mxGeometry x="58.489999999999995" y="218.59000000000003" width="50" height="30" as="geometry" />
        </mxCell>
        <mxCell id="ESt_-W5ADQbBedNpq2sp-8" value="" style="shape=image;verticalLabelPosition=bottom;labelBackgroundColor=default;verticalAlign=top;aspect=fixed;imageAspect=0;image=data:image/png,iVBORw0KGgoAAAANSUhEUgAAAPQAAAKrCAYAAADGaKD1AAAAAXNSR0IArs4c6QAAAARnQU1BAACxjwv8YQUAAAAJcEhZcwAADsMAAA7DAcdvqGQAACxgSURBVHhe7d0HmBRF/sbxApQgEkyYEEQ4BQVUEAPq/wROwZyzGE5F9M7zTKh3Z3zOeIbHR+/EdIqPionoiRlEFBEUkSSoIAoiIKAgsBLnP2/RjcMyCzuzE7p/8/08T7HTvbO7w3S9U9Xd1dXVEkkOgAnVg68ADCDQgCEEGjCEQAOGEGjAEAINGEKgAUMINGAIgQYMIdAlSIMDGSBoE0M/S0xFm7tatWrBI8QZLXSJWLFihfvggw/cGWec4bbffntXs2ZN/1XLI0aM8N9H/NFCl4iRI0e6c889102fPn291libf7fddnN9+vRxHTt2pKWOOVpo4xTYNWvWuFmzZvkSLutr+Fn+/fffu9mzZ/vH4TrEU41bkoLHMECBXLlype9CL1q0yH3yySdu0KBB7t1333XTpk1L27WuU6eOD/mcOXPcr7/+6rbYYgvfUut36SutdnzQ5TZi4cKFburUqe6LL75wo0eP9uXLL790ZWVl67XGFalRo8a65ynQrVq1cu3atXP777+/22uvvVyLFi3ctttuGzwbUUWgY0yb7ptvvnH9+vXzB7YmTpzou9VqoVOFrW1Fwla4/HO0vPnmm7vGjRv7UHfq1Mkdf/zxrlmzZrTcEUWgY0ibTF3ne+65xz311FPuhx9+8F3lbFUU6FC4vlatWm6HHXZw5513nrvhhhv8MqGOFgIdM9ovfuONN9x1113nvvvuuwpDmKmNBTPd39h1113d3Xff7bp27eoaNGgQrEWxEegY0Skntcp9+/Z1ixcvDtbmRkWB3lj1UJB1Hvvaa6/1p75orYuPQMfE2LFjXc+ePd24ceM22EcuJu1j77333u7RRx91++67L6EuMgIdcTqdpBCfcsop/gBYFCnEaqFffvllt88++6xbh8JjYEmE6bN2xowZfn9ZX6NKr1MfNnqdUf3QKRUEOuIeeeQRN3z48Jwd/MoX9STee+89/3r1Wun4FQdd7gibNGmSH9ixbNmyYE30adSZBrXsueeernp12otCI9AR1qNHDzdgwIBgKR6073zCCSe43r17E+giINAR9vbbb8fyskYNOOnSpQsHxoqAQAOGEGijfvzxRz++WxdnZEr7wdp333nnnYM12aGFLjwCbZCubz7ooIPczJkzgzWZURB1QcaHH37ov2aLQBceRy0M0uwkuuqqKvTzH3/8sQ9ltgWFR6ANysWBNHXcli9fHiwhLgg0YAiBBgwh0IAhBBowhEADhhBowBAGlkSYNs2YMWP8dLyrV68O1m7ap59+6h5++OGsL2HUOWT97LPPPuvOPvvsYC3igEBHkDaJJjS44IIL/LXQYcAKhUDHF13uCPrll1/cTTfd5Mdih8LRV1UpsI9AR5Cm8fnss898K6kg6msuSqZWrVoVPEJcEOgI0hVSURh2mc2HAIqLQAOGEGjAEAINGEKgAUMINGAIgQYMIdCAIQQaFeI8dPwQaFRo4cKFbs6cORWWn376yd/TCtHBxRkRNGrUKNe9e3c3bdo0v1zoTRQON91uu+3clltuGaxdn56je0Mfd9xx7uabb3Z169YNvoNiItARVOxAh3Rvqsq0wM8995w766yzgiUUE11upBW20vq6qaJ5wGkXooFAo8q4Kis6CDRyQi01io9Ax0D5Lm62JRPqQm+sIJoINGAIgY6ghg0b+tNFtITIFIGOoBYtWrhOnTr587xAJjgPHVELFixwd999t3v//ffdokWLgrWVOyet58+dOzdY+k0uN3XqPnmPHj1c7969gyUUE4GOsJUrV/oJA5csWeLDqBBVZnMNGDDA3XHHHcHSbwi0fQTaoMcff9xdcsklwdJvCLR97EMbVKNGjeARSg2BNqjQga5du3bwCMVGoJEVdd9VdCT+qKOOCtai2NiHNqhPnz7+vljlZbqpmzVr5ho1ahQsbUiXTJ5zzjn+/lc1a9YM1qKYCLRBuQi0Dno9/fTT/jLOykg9SIbiocuNKiPM0UGgsVEK66YKooNAA4YQaMAQAg0YQqABQwi0QTpQlYuzkRzwih8CbVD9+vXXOwqdbTD1exAvDCwx6Ndff3UdOnRwEydODNZkrnXr1n5+cCbQjxcCbYw2p8rSpUvdlClTsppid7PNNnMtW7b00yDR7Y4XAg0YQqBjSDOZDBkyxJcZM2YUbKJ7tdZqvZs0aeLvadWtWze/jOgg0DGiTTV79mx39dVXu5deeiknR7KzpXCffvrp7t5773U77bQTXfOI4Ch3jGi/WHd67NevX1HDLPr7r7zyirvlllv8nGeIBgIdEwrQmDFj3IsvvhiZe0npdbzwwgv+dSEaCHRMKND9+/ePXGuo1zNw4MCi9xiwFoGOCe2j6gBYFEX1dZUiAg0YQqABQwh0DMRl/5T96OIj0IAhBBowhEADhhBowBACDRhCoAFDCDRgCIEGDCHQgCEEGjCEQAOGEGjAEAIdM7ouOixAeQQaMIRAA4YQaMAQAg0YQqABQwg0YAiBBgwh0IAhBBowhEADhhBoVBnzcUcHgY6BcNx2VG+uHr4uxpcXH4GOCYVlxx13DJaihRu+RweBjgl1a48//vhgKVqOPfbY4BGKjUDHgMKscuCBB7oTTzxxXWuor8VsGfW3TzrpJHfwwQcHa1BsBDoGwtDWq1fP3Xjjje7oo492derU8eukGMHW3z/mmGP869HrQjRUS37yc4gyBsLNtGbNGvf999+79957z40ePdrNmzfPrwu/n+9gV69e3W233XauQ4cOrlOnTm6XXXbx6xANBDqmFOLly5e7VatW+WVtxkK10jqqXbt27YL3CrBpBDqPVq9e7X755Re3ePHiogQvbmrUqOEaNGjgu/B6jMwR6Dz48ccf3eeff+7Lp59+6saNG+eWLVvmA55L+mAIPxwsbEbtl7dr185359u2beuLuvd8AFYegc6B8C0cNWqUGzRokPvggw/ct99+6/dvV65c6b+Xb5Y2Y82aNV2jRo1ckyZN/BH0E044wR100EHBd9ci5OkR6CpQi/vTTz+5AQMGuPvvv99NnTo1bbDyWfmsb77wvdtjjz3clVde6U+TqVuuLrm+R7DXR6AzpH1hHWWePHmye/XVV93gwYPd7NmzNxosAp0beh81Ku24447zp8z22msvt/POO0d2SGwxEOhK0ts0YcIEN3DgQDds2DC/b6wDXigOHThr3769P3WmLnmbNm1orZMI9EborVGZNGmSu/vuu90777zju9grVqwInoFi0/52w4YN3eGHH+569erlWrduXdLnxQl0GnpL1PpOnz7dPfjgg+6VV15xS5cu9evVCvCWRdMWW2zhTj31VHfFFVe45s2b+1a81FptAl1OWVmZGzp0qOvfv78vP//8c/AdxIUOmp1yyin+AFrnzp39IJhSQaADOmKt000PPPCAGzNmjJszZ44fjYV4Urd7hx12cPvvv7/761//6g455JB1g1VSq7y5FlyBLmXJ0Cbmz5+f6NmzZyL5SZ5IbuBEsjJoi1OMlDp16iQuueSSxLx58xKrVq3y2zws1pRsC63WV6efXnvtNXffffe5r7/+er1P6xJ9W8zSttV+9TXXXOO6devmGjdu7Ftxay10SQZao7d0Dvmxxx5z77777rpx1rArDK7OWXfp0sX16NHDHXXUUa5WrVp+vRkKdClR9/r8889PNGzY0Hev9RZQ7Bdt67Bol2qrrbZKXHDBBb4bbklJBFr7SsuWLUu8/vrriVatWq3bRybQpVNSA51aWrZsmRgwYICvHxaY7nLrv6by3XffuSeeeMIXXTBh+L+MSkgGOXi0li4Eueiii3w3XBeExJoCbZWOaA4dOjRx8MEHJ2rWrLnuk1pfKaVbUlvosOgMxyGHHJJ45513EqtXrw5qUPyYC3R4OkJhfvbZZxPbb7+932CpG7L8BqaUVgnrQbqy4447Jp5//nlff+LIXJdb/x0NCnnyySfdPffc45YsWeLXJTdW8Iy1zwFS60SqunXrumuvvdZdfPHFfnBKRc+LJAXaCnWVJkyYkDjzzDMTm222WdpPYBX9tykUlXT1Q0X1R/Vo/PjxsRqAYirQU6ZMSRx66KGJzTff3B/JTrehVNJtWErplnR1REWh1n71xIkTYxPq2He59fI1DjsZZnfaaaf5r5sS8/8y8iAZ4ODRWql1pGXLlq5fv37+q0aXRVnsLxzVqK8333zTz2JRmTAD6SjAFX3Qq17pNkSqZ4WaIy5ryf9EbGmf+bXXXkvsscceabtMFRX9tymUTIrqze677+7rW5SPgMe2y62XrSmBunbt6o9qA4WgO4C+9dZbbs8994xk9zuWXe41a9a4Dz/80N/jiTCjkH744Qd35JFHupEjR+Z8nvWcUAsdNx999FGiXbt2dJ8pRSt77713IhnqoEZGR2wCHZ42mDFjRuIPf/hDokaNGv6NJdSUYhSdFu3SpUti+vTpvl5GRawCXVZWlujRo8e6g1thSfeGUyj5Lqp7F110UWLp0qVBLS2+2ARaYb799tt9y0ygKVEoqnuqj//85z99/YyCWARap6f69OmTqF+/fto3lkIpZqlXr56vn6qnxRbpQIf7zePGjUu0adMm7ZtJoRS7qKVW/VQ9LbbIn7bS1VL//ve//d0rgChK5sjXT9VT3ZChmCIfaN2etW/fvsyRjUhT/VQ91b3PiinSI8U0ze5+++3H4BHEhu6OOXr0aH9XzGKIbAutG8LdcMMNbu7cucEaIPo0kuxvf/tb0S7iiGSg1WnQ/aV0dQsQJ6q7qrea7z25EKwtnMgFWm+Ibtn6/PPPu/nz5/tlIE5+/PFHX38XJutxoUWyhf7iiy/8LWo4EIY4Ur0dMmRIUa7Pj2QL/eijj7qFCxcGa4D4WbBggevdu3fBe5iRO8qt1vmAAw7wN1wH4qx+/fpu1KhRfuqiagWaOTRyLfSdd95JmGGC6vFdd90VLBVGpFpo3bJm9913d8uXLw/WAPFWp04d3+ts2rRpsCa/ItNC63NFMytya1dYovEU/fv3L9i+dGQCvXjxYjds2LBoTusCZEn1WWMqVL8LIRKB1qfXV1995Qtgjer1l19+GSzlV2QCrf0M7UMD1sycOdPX70J0uyMRaO1njB8/3i1btixYA9iheq0ppwtxsDcSgdZ/eOzYscESYM9nn31WkGulIxHosrIyJjCAaRMnTnS//vprsJQ/kQi0rnvWgHbAKtVv1fN8i0Sgx40bx4UYME31W/U83yIRaHVHAMs0lnvy5MnBUv5EItDTpk0LHgF2FeJcdCQCPWvWrOARYFfJ7EMzbxhKQSHqeSQC/fPPPwePAJs0SqwQ47kjcfmkbpwdgZcB5JUOjOX7bE4kWmjCjFJQiHoeiUADyA0CDRhCoAFDCDRgCIEGDCHQgCEEGjCEQAOGEGjAEAINGEKgAUMINGAIgQYMIdCAIQQaMIRAA4YQaMAQAg0YQqABQwg0YAiBBgwh0IAhBBowhEADhhBowBACDRhCoAFDCDRgCIEGDCHQgCEEGjCEQAOGEGjAEAINGEKgAUMINGAIgQYMIdCAIQQaMIRAA4YQaMAQAg0YQqABQwg0YAiBBgwh0IAhBBowhEADhhBowBACDRhCoAFDCDRgCIEGDCHQgCEEGjCEQAOGEGjAEAINGEKgAUMINGAIgQYMIdCAIQQaMIRAA4YQaMAQAg0YQqABQwg0YAiBBgwh0IAhBBowhEADhhBowBACDRhCoAFDCDRgCIEGDCHQgCEEGjCEQAOGEGjAEAINGEKgAUMINGAIgQYMIdCAIQQaMIRAA4YQaMAQAg0YQqABQwg0YAiBBgwh0IAhBBowhEADhhBowBACDRhCoAFDCDRgCIEGDCHQgCEEGjCEQAOGEGjAEAINGEKgAUMINGAIgQYMIdCAIQQaMIRAA4YQaMAQAg0YQqABQwg0YAiBBgwh0IAhBBowhEADhhBowBACDRhCoAFDCDRgCIEGDCHQgCEEGjCEQAOGEGjAEAINGEKgAUMINGAIgQYMIdCAIdUSScHjoqlWrVrwqHD0N6tXr+723HNPd8IJJ7jDDjvMP95uu+1cjRo1gmch7lavXu3mzp3rJk2a5N5//303aNAgN3nyZLdmzRpXjKqf779ZcoHefPPNXatWrVzXrl3dmWee6dq2beuDrdcQvhXF+IBB/mn7KuDjx493ffv2de+8844P+sqVK4Nn5B+BzqHGjRu7Cy+80J1yyim+NVaQUZrUQk+ZMsW99NJL7sknn3SzZs0KvpNfBDpHWrZs6R555BF30EEHuZo1a9IKw1uxYoUbOXKku/TSS33A841AV5Fa4X322ce98sorrlmzZsHa9a1atcotWbLELVu2zHe/9OkNG1S3tJu1xRZbuHr16rnNNtss+M76pk+f7ntu6o6rW54vBLoKFOYuXbq4Rx99NG2YFeIxY8a4jz76yI0dO9ZNmzbNzZ8/3wc8Am8Lqkj1Sgc4daCzefPmbt9993UdO3Z0HTp0cHXr1t2g3s2YMcP16NHDDR06NG+hznu9UqCLTS8jH6VNmzaJZFgTyY3jS7LlXVeSn8SJ7t27J5o0aZJIbvS0P0+xVbSdtb213bX9w7oQ0uNRo0b5epMMe9rfUdWSb+YCrQ2hUrt27cRjjz22bqOllhEjRiSSn9rrnhuWdL+PYrM0atQoMXz4cF8fUmlZ9aZWrVppf66qJd/MBrpz586J5D5x8BfWKisrSzz33HOJ5P7Ues8NS/nfRbFd6tSp4+uD6kVIgdZyt27d8lIn8s1coFWS+0eJzz77LPjta6nLPXjw4MQuu+yS9mcopVlUHwYOHJhYtWpVUFPWGjdunK9H6X6mKiXfTLbQZ5xxhg9wqpkzZyY6depES0xZr6g+qF6ofqRSS616FD4nLOV/PtOSb+ZGVuio5tlnn73eEczk/9O9+eab7r333vOPgZDqQ3Jf2r3xxhvBmrVUf84666zYDQM2F+jddtvN/e53vwuW1tK55YceeogwI61ka+wefvjhDU5VtWjRosKxC1FlLtB77LGH22qrrdZroXWOecKECcESsKGJEyf6MQmptt56a1+f4sRcoHfZZRc/aCCVulP6FAYqotZ5yJAh6/XiNLJs1113DZbiwVyg1TrXqlUrWFqL1hmVoVY6lepR/fr1g6V4MBdoXXhR/kDGvHnzgkdAxTTsN3VXTfWodu3awVI8mAu0lD/CzcEwVIa63XHfNTMZ6PIINCrDwod/SQQaKBUEGjCEQAOGmJvg4NZbb3U33XRTsLR2v+iQQw7x08zk2pZbbum23357f2oj3fxk+tuaLKGsrMz9/PPP7qeffvLLUaJTM5prTaf7NKuHZvQIt4devyaB0Gv//vvv3dKlS/16qzQ91YgRI9Y7S3Lbbbe5W265JViq+vGYfMeNQGdBFf+oo45yxxxzjB9JpFCnm9pGR0w1Z5UCMXv2bD+9zeDBg92nn36a9w27KXrP27Rp4y666CK33377uSZNmriGDRv6gKcGWqdy9No///xz16dPHz8VbgSqTF5YCLT+QNHpZeSqJAMd/Na1dNVMx44d0z4305Ks6IlkpU/cf//9iR9//DH4C5W3fPnyxKxZs/xrrFevXk6u3sm2tG3b1s/OocsG9R5tip4zadIkf2VSut9noSQDvcFllNpW2k5hSfdzmZR8Yx86A8kN6s4//3x32WWXuW222SZYW3ka9LLzzju7G264wSU/FPxcV8Wg3sTJJ5/s2rdvv25O8k3RczRzquYyLz+0FtFBoCtJFb9Bgwbu8ssvX69bmg0F6pxzznF/+ctf0u5755sCqTHKqfvLlaHX2rRpU981RzQR6EpSxdeMkbm4nE6/S0MK1dIfccQRBb/mVsHU1LbZ0M8V40MIlcOWqSQd4NLBo1zSkeWnn366aF3vbCR304JHiCICnQFdTleVrnZ5CkejRo3cNddcE7uLABBNBDoDuQxzqhNPPNEdcMABwRKQPQKdgVwHOvx9Gthx+umn+4EqQFUQ6CJTqHW0+dRTT3W77757sBbIDoGOAB011nntXr16bTDbCpAJAh0RaqmPPfZYP6Q0X/vqsI9AR0idOnXcjTfeyMANZI1AR4haZs0pHscJ3ktF1HtPBDpiNCxTB8h09ROiSaFOV6KAQEeMKobOSR9++OGRqSSIDwIdQTrSrYtANDQUyASBjiC1zJo44U9/+hMXQiAj1JaI0mCTq666ys8qAlQWgY6w8PproLIIdESFB8R0cKxTp04cIEOlEOgIU4g1ZZFOY3HhBiqDQOeZrnnW5Ai6YV42kwNogIkCvddeewVrgIoR6DxTK6vy2GOPZX0jtG233dZPLJjttEEoHQS6QF5//XU3efLkYClzRx99tC/sS2NjCHSBzJgxw0+yv3z58mBNZtT1/tvf/pbV9MEoHQS6QHQLnGeeeaZKN59v3bq16969O4NNUCFqRoGoq/zll1/6felsZ87U5ZWafywXUwnDJgJdIOEBrd69e7sJEyb4x9nQ3S40CQKXVyIdAl0gYQAXLFjgb6iX7b60bpR36aWX+jteAuUR6AJTd/u9995zb775ZtZdb91jSnN5sy+N8qgRRaDbyz777LP+Vq3Z0P64rsTShRucxkIqAl0EGmAydOhQN2rUqKxbaV24oauxNMMJoUaIQBeJ9qUfeeQRt3r16mBN5jp37uwOPfTQYAkg0EX11ltvuddeey3rVnrHHXf047zVWgNCoItIQb722mvd7NmzgzWZ0UExncLivlgIEegiUqCnT5+e9YUb2nfWrWi1L80dNyAEuojCrnb//v2zvnBDoda+dNeuXYM1KGUEusjUMn/11Vdu4MCBbsWKFRnvTyvQGrRy2223+ckQUNoIdJEpwBo1pvPSuiIrXJdaNkWh1iyhZ555JkNCSxyBjojUCzcqE+LyNFb85JNPds2bNw/WoBQR6IhQiP/zn/+4iRMnBmsqL/wAaNeunZ8EgVa6dBHoCCkrK3N///vf3S+//BKsqRx1uVU0l/eFF17IvnQJI9ARM2LECPfGG29k3O3WOWn9jC7cuOKKK3zAUXoIdMQsXrzYvfTSS27hwoXBmsoLW2pNzq/ZTVB6CHQEDRs2zF+8kelgE7XSYdf7+uuv93N5hyFXgX0EOoJ0eaUOkGkeMsmk+x2G97DDDnO///3vg7UoFQQ6oj744AN/bjrTfenQ9ttv7y/caNiwYbAGpYBAR5Quq/zHP/7hZs6c6UOdabB16urYY491++yzT7AGpYBAR5S6zXPmzPHXTIdd70ypddbVXNqnRmkg0BGnyfnHjx/vH2faSutDoUuXLu6kk04K1sA6Ah0xYfc6DO/UqVPdK6+84n799Ve/nAkFWkNCdeGGJkHQMmwj0BGnU1c6L/3FF1/45UxbaWnatKk7//zzmSW0BLCFI06t6rfffusefvjhYE1m9POa/EAXbuy6665+XTYfCogHAh1xYfiee+45N3LkyPW645no0KGD69Spk2+l1eqvXLky+A4sIdAxoADrSLdOY2nQSTbUSv/xj39cN6FgNlMeIfoIdAyELfLYsWPd//73v6xb6f33398PNhEOkNlEoGNCAdZllc8//7z7/vvvg7WZ0WCTm266yTVq1CirDwREH4GOmffff9/fGyvbQGou78suu4wW2igCHTM6H63RYz/99FNWodZBMXW7W7VqFawpPH2Y6O6Zu+++uzvooIPcEUcc4YepHnfcca5bt27+biC6b5emKOZUW2Z4t2JozJgx7plnnvGBzjTUer4u3CjGGG8NQd1vv/3cdddd5+dP0/+hb9++7uWXX/aDZ1T0+MUXX/QXpjz55JPu5ptvdvvuuy89ikoi0DGkCzduv/12P0l/JsLwK1jhDegLQa2s7u6h+cdff/11H9JTTjnFH6Rr0qSJb61r1qzpX5Ou4dZuQdu2bX2rfcMNN/hb7z7wwAPcE7sSCHRM6fTVQw89lNVc3oWiVnWnnXZyd911l7+Pl7rTW2+9tQ9vZbvSCrm63ppWSVMztW/fnm74RvDOxET50Oo88quvvuq735UNdGq3tRBdWHXrNSDm6quv9i2vegb6u9n+7QMPPNCPmFPrXYjXH0cEOkYU3NSia6U1znvJkiXBMzatKoHKRJ06dfxAloMPPjhnf1O/Q930f/3rX76Vx4YIdIxp9NgLL7zg96Ur20oXig68aQZSnfvO5WtTqHVJaM+ePYM1SEWgY27+/Pnu3nvvzXoShHxSK5qudVbAly5d6m/Q9+6777p+/fr5Dybd3+uTTz7xxwe0S5HugyD8XX/+85/9wTOsj0DHnCq9jh7roFOUWmkdrFu2bJl/TalF9/EaMmSIn0nlnHPO8efETzvtNHf22Wf7K8J0f64rr7xyo3fjVKh1oOyQQw4J1iBEoA3QYJMbb7zRt3pRoVZ23rx5/hRb+EGj1vf444935513nnv88cfd559/7hYtWuRb47B8/fXX/hz0WWed5ecmD3+2vC222MKfn8b6CLQBqvSa2URBUICiQK2zQqsLSnQjPp260n233n77bT/KTeGtiHYfdI+vW265pcLn6Yh548aNXe3atYM1EAJthAKkEVY68h0Vmor4yCOP9Aex1IPQ/n7Y9U4t6Wi9rixTK18RnQrT0XT8hkAbMnr0aN8Cbqz1KzS1xj/88ENWr0m7EJqtpaLQ6wg6d9pcH4E2RHev1OgxtdYWKMgbm1lFXfOo7GJEBYE2RAGYMGGCH01VUasWJxr2uc022wRLG9L14VY+vHKFQBt03333bfS0T1xo/1hjwdNRy6x9cp0ew28ItEGq6Lo6KYqDTTLRrl07V69evWBpfQryd999Z6InkksE2igdHNPsJnGt8DrYdcYZZ/grq8qPNBONX//000+DJYQItFGad0zzj2ngRhzpSi2d8kpHH1LffPONGzduXLAGIQJtlPYxBw0a5EaNGhWsiQ9NOaxZTTRoJF3rLP/97385IJYGgTZswYIFrlevXjndl9a54XwfiDrmmGP8YJSK6Ny0As3+84YItHEaQnnVVVdldM10RTQ4RCPRdLooX5o1a+YuvfTSdTcEKE/n2m+99VbOP1eAQJeAPn36+BZNYahKq6Yga4YU/Z58ueSSS/ykCJKuu62DfZqKCOkR6AyoMmdDp5E2NiY5X8LwKoh33nmnv8xSrWy2oR4xYoQbMGBA3rq6p59+urv88sv9PnS6MKt3oCmM9V7S3U6PQGdAN1/XqZLKdvdU6RQmHeDJ5v7OuRBW/Llz5/oJ9nv37u0DUZn9av2silpkXTV18cUX5+WouU5NaS7up59+2g8mUZjLn67SB5Gm/Y3aWPWoIdCVFFZsdQnVfdW1vLrmNwxMKoVXp1U0Za32X8M5tIsl/Nv6cNHkAZpYQC3d8OHD/fXH6kEoqIsXL/b72ipa1sEn3aXjjjvu8FPqzpkzx/+eXFJwNU/Y/fffv9F5wjQpguYSY99546olN3bR+y4VnZrIhg6Y6P5NIf33NLOFbsWaC6qAGr2ka3E1a8ZWW23lWxVdcK+jvwq9gqMjzDoXrJYxtUWJwNvt32+dEtK8X5pWV69d1xeH31PRa9YRbbXms2fPzvntZ8Ntvttuu/kJ9Tt27OgHk+j9TaX366OPPvIzmWhkWD7pLh7arUi9guu2227z12VXRmW2bd63f/IPFJ1eRq5KMtDBb10rWTETycqS9rmZlmQlrHJJ93tLsei92HLLLRMff/yx30bJljfYYr/R+mSIc7b9NlWSgU4kd0WCv76W6lP5bVhRSfc7y5d8o8uNgktWft8y6wCbbo0TritPuwLqcWV7MLIUEegMJD8Aq1yw9lyz9of/7//+b12QUwOt90ndfd0yR9Mq5bq7X1Xlt2lYooBAo6B04EtXgml+sdT99lSaGVSzgurgY9Quj4xKcCtCoFEwOgCn2/foiHlFt8VRy6wb8T311FM+zFEPUNQQaBSE7jKpmVR0L2hJF2YdWddzdEpNrTQyR6CRd2qZdXDrxBNPXNfilg+zBrrcfffdvmg+bqF1zhyBRt5pSqRzzz3XD+mU8mFWcDWwRFP9apZQZI9AI2808ObRRx/1d8oIQ1w+zNpPfuKJJ/z9udTlTv2+Hm+sYEOMFENeaDTd9ddf74e+VtQyi0bT6aj3rFmzgjWVpyGqH3/8sT9fnQuVGSlW1bjkPW4KdLHpZeSq5HOkGKXy5eCDD04kQ+rff5WKJFvoRHKfObFgwYKMy7x58xKDBg1K1KxZM+1ryLRUZqRYup/LpOQbXW7knFriDh06rJuCN13LHNLc2w0bNsyqaM5unQKraO6xUkSgkXMKsC780NeNhTkUPi+bIuHwURBoRES6sG6qhNTKYy0CjZxL7soVZBL8MNTTp0/3X0GgkQcKso4W63aymuwhX8HWYJRJkya5l19+OVgDTlshLzRRQevWrf3EBTqFlcttHNKHhSY/+OSTT3LyocFpqxzRy8hV4bQVJdvCaSsAkUKgAUMINGBISQQ6HwdkgCgyH2jCjMpSXYl7fTEXaE0op8vwUmnML7Ap2267bfBoLdWjqE1QuCnmAq27WZSfvqZVq1bBI6BiqiepLbTOc4ezp8SFuUDrLg+aaC6V5rEqf0cGIJWCfPjhh68XaNUj1ac4MVfLv/zyyw2msdFoJc0FDVSkadOmvp6k0v29pk2bFizFg7lA6+ZrulFcKt3HSTcRj/sBD+SH6oXqh+5Rlkph/uqrr4KleDAXaO339OvXL1j6jWacbN++fbAE/KZdu3bu5JNPDpZ+o1v1qD7FSjAEtKj0MnJZ6tevn5g5c2bw29fSGN2nn346sc0226T9GUppFtWHp556ar0x3Br/r5vkNWjQwD8n2YLHZiy3yUCrdO/ePbF8+fLgL6z1yy+/JO66665ErVq10v4MpbSK6sGdd97p60VIYU62yr7+6DmpYSbQlZTuP17VoluVvvTSS8Ff+M2yZct8S7311lun/TlKaRRt/z59+iSWLl0a1Iy1FGjVG9Wf8mEm0JWU7j+ei3LggQcmpkyZEvyVtbTBdC/ikSNH+u/XqVMnUb169bQ/T7FVFEhtb10mqe2veqD6kGrq1Kn+++WDHJZ0vzeTkm/mJjhIpQvVded/TeKuSevK0+kt3Tztrbfe8kfH58yZ45Ldrw1GmiG+NP6gfv36fvs3b97cde3a1c8UqllDJax7isG8efPcNddc4/r27VthHahqXPIdN9OBFt2+9LjjjnMPPvig23HHHdP+rbKyMj/RuzaoJm/XxtTbEoG3BlkKt7MCrRlTGjVq5Bo3brzBqSnRdv7hhx/cFVdc4QYPHpzXW9jmu06ZD7Roo2qeaN1vuPzwPpQ2Vf/kbpm74IIL3JgxY/LeO8t33EpiPKTexNGjR7sTTjjBPf/8827u3Ll5f2MRbdr+qgeqD6oXuqWOhV2tkmihU6nL1aVLF78f1blzZ7fbbrsxzruEKLSa9nfo0KH++Mk777xT0MEj+Y5byQU6/Ft169Z1O++8s2vbtq0P9r777uvDrXsZE3A7VL11xZSGcY4dO9YNGzbMjR8/3t8kT8dLCo1A54n+ZvhfD/9++FWf4sV4TcifCFRzj0ADhuQ7bvQtAUMINGAIgQYMIdCAIQQaMIRAA4YQaMAQAg0YQqABQwg0YAiBBgwh0IAhBBowhEADhhBowBACDRhCoAFDCDRgCIEGDCHQgCEEGjCEQAOGEGjAEAINGEKgAUMINGAIgQYMIdCAIQQaMIRAA4YQaMAQAg0YQqABQwg0YAiBBgwh0IAhBBowhEADhhBowBACDRhCoAFDCDRgCIEGDCHQgCEEGjCEQAOGEGjAEAINGEKgAUMINGAIgQYMIdCAIQQaMIRAA4YQaMAQAg0YQqABQwg0YAiBBgwh0IAhBBowhEADhhBowBACDRhCoAFDCDRgCIEGDCHQgCEEGjCEQAOGEGjAEAINGEKgAUMINGAIgQYMIdCAIQQaMIRAA4YQaMAQAg0YQqABQwg0YAiBBgwh0IAhBBowhEADhhBowBACDRhCoAFDCDRgCIEGDCHQgCEEGjCEQAOGEGjAEAINGEKgAUMINGAIgQYMIdCAIQQaMIRAA4YQaMAQAg0YQqABQwg0YAiBBgwh0IAhBBowhEADhhBowBACDRhCoAFDCDRgCIEGDCHQgCEEGjCEQAOGEGjAEAINGEKgAUMINGAIgQYMIdCAIQQaMIRAA4YQaMAQAg0YQqABQwg0YAiBBgwh0IAhBBowhEADhhBowBACDRhCoAFDCDRgCIEGDCHQgCEEGjCEQAOGEGjAEAINGEKgAUMINGAIgQYMIdCAIQQaMIRAA4YQaMAQAg0YQqABQwg0YAiBBgwh0IAhBBowhEADhhBowBACDRhCoAFDCDRgCIEGDCHQgCEEGjCEQAOGEGjAEAINGEKgAUMINGAIgQYMIdCAIQQaMIRAA4YQaMAQAg0YQqABQwg0YAiBBgwh0IAhBBowhEADhhBowBACDRhCoAFDCDRgCIEGDCHQgCEEGjCEQAOGEGjAEAINGEKgAUMINGBIJAK92WabBY8AuwpRzyMR6F133TV4BNjVrFmz4FH+RCLQhx9+ePAIsKsQ9TwSgT777LNd3bp1gyXAHtVv1fNEIhGsyY9IBLpNmzbu2GOPDZYAe4455hjXunVrH+h8hjoSga5fv7679NJLXYsWLYI1gB3Nmzd3PXv2dFtuuaWrVq2aL/kSiUDLgQce6K677jofbsAKdbV79erlOnbsmPcwe8nmPzLKysoSL774YmLrrbdWn4RCiXXZaqutEn379vX1ulAiFWhZs2ZN4v3330+0bNkyUb169bRvFIUS5aJ6q/o7fPjwxOrVq32dLpRIBlpl8uTJieR+daJZs2aJZDcl7RtHoUSpKMiqr8n95cSUKVNUmYNaXTjV9E/yxUSOXtaKFSvcqFGj3JAhQ1z//v3dtGnT8nqEEMhE6v6wDnyddNJJ7uijj3b777+/q127dvCdwopsoFMtX77cLVq0yCW7MC65T+KGDRvml4WAo1gaNGjgOnfu7M8vH3rooX65Vq1awXeLIxaBTqWXu2TJEjdu3Dj3+eefu6lTp7pvv/3WzZ8/35WVlQXPAnJLLe52223nmjRp4vbYYw+3zz77+BKeioqK2AU6Hf0X9KaGX4FSZSLQANaKzMASAFVHoAFDCDRgCIEGDCHQgCEEGjCEQAOGEGjAEAINGEKgATOc+38Za21O8KbzkgAAAABJRU5ErkJggg==;" parent="G4rwLLoVx2K-rOXY0CrV-170" vertex="1">
          <mxGeometry x="181" y="140" width="35" height="97.97" as="geometry" />
        </mxCell>
        <mxCell id="G4rwLLoVx2K-rOXY0CrV-26" value="" style="rounded=0;whiteSpace=wrap;html=1;strokeWidth=1;fontSize=12;fillColor=#808080;gradientColor=none;strokeColor=none;" parent="G4rwLLoVx2K-rOXY0CrV-170" vertex="1">
          <mxGeometry x="216" y="281.40999999999997" width="120" height="20" as="geometry" />
        </mxCell>
        <mxCell id="G4rwLLoVx2K-rOXY0CrV-28" value="" style="rounded=0;whiteSpace=wrap;html=1;strokeWidth=3;fontSize=12;fillColor=#FFE599;strokeColor=none;" parent="G4rwLLoVx2K-rOXY0CrV-170" vertex="1">
          <mxGeometry x="226" y="270" width="84" height="11.41" as="geometry" />
        </mxCell>
        <mxCell id="G4rwLLoVx2K-rOXY0CrV-108" value="" style="rounded=0;whiteSpace=wrap;html=1;strokeWidth=1;fontSize=12;fillColor=#959393;gradientColor=none;strokeColor=default;" parent="G4rwLLoVx2K-rOXY0CrV-170" vertex="1">
          <mxGeometry x="292.5" y="240" width="7.5" height="30" as="geometry" />
        </mxCell>
        <mxCell id="G4rwLLoVx2K-rOXY0CrV-65" value="&lt;font style=&quot;font-size: 14px;&quot;&gt;Blade Cast&lt;/font&gt;" style="text;html=1;align=center;verticalAlign=middle;resizable=0;points=[];autosize=1;strokeColor=none;fillColor=none;fontSize=12;fontStyle=1" parent="G4rwLLoVx2K-rOXY0CrV-170" vertex="1">
          <mxGeometry x="181" y="237.97" width="100" height="30" as="geometry" />
        </mxCell>
        <mxCell id="G4rwLLoVx2K-rOXY0CrV-62" value="" style="endArrow=classic;html=1;rounded=0;fontSize=10;exitX=1;exitY=0.5;exitDx=0;exitDy=0;" parent="G4rwLLoVx2K-rOXY0CrV-170" edge="1">
          <mxGeometry width="50" height="50" relative="1" as="geometry">
            <mxPoint x="159.49" y="281.40999999999985" as="sourcePoint" />
            <mxPoint x="202.5" y="281.40999999999997" as="targetPoint" />
          </mxGeometry>
        </mxCell>
        <mxCell id="ESt_-W5ADQbBedNpq2sp-12" value="" style="rounded=0;whiteSpace=wrap;html=1;fillColor=#fff2cc;strokeColor=none;" parent="G4rwLLoVx2K-rOXY0CrV-170" vertex="1">
          <mxGeometry x="51" y="79" width="46" height="40" as="geometry" />
        </mxCell>
        <mxCell id="G4rwLLoVx2K-rOXY0CrV-17" value="" style="shape=image;html=1;verticalAlign=top;verticalLabelPosition=bottom;labelBackgroundColor=#ffffff;imageAspect=0;aspect=fixed;image=https://cdn1.iconfinder.com/data/icons/ionicons-outline-vol-1/512/beaker-outline-128.png" parent="G4rwLLoVx2K-rOXY0CrV-170" vertex="1">
          <mxGeometry x="33" y="50" width="78" height="78" as="geometry" />
        </mxCell>
        <mxCell id="G4rwLLoVx2K-rOXY0CrV-18" value="Polymer &lt;br style=&quot;font-size: 10px;&quot;&gt;Solution" style="text;html=1;align=center;verticalAlign=middle;resizable=0;points=[];autosize=1;strokeColor=none;fillColor=none;fontStyle=1;fontSize=10;" parent="G4rwLLoVx2K-rOXY0CrV-170" vertex="1">
          <mxGeometry x="42.00285714285714" y="79.99673469387756" width="60" height="40" as="geometry" />
        </mxCell>
        <mxCell id="G4rwLLoVx2K-rOXY0CrV-50" value="" style="group" parent="G4rwLLoVx2K-rOXY0CrV-170" vertex="1" connectable="0">
          <mxGeometry x="103" y="50" width="78" height="78" as="geometry" />
        </mxCell>
        <mxCell id="ESt_-W5ADQbBedNpq2sp-13" value="" style="rounded=0;whiteSpace=wrap;html=1;fillColor=#fff9e5;strokeColor=none;" parent="G4rwLLoVx2K-rOXY0CrV-50" vertex="1">
          <mxGeometry x="18" y="28" width="46" height="40" as="geometry" />
        </mxCell>
        <mxCell id="G4rwLLoVx2K-rOXY0CrV-51" value="" style="shape=image;html=1;verticalAlign=top;verticalLabelPosition=bottom;labelBackgroundColor=#ffffff;imageAspect=0;aspect=fixed;image=https://cdn1.iconfinder.com/data/icons/ionicons-outline-vol-1/512/beaker-outline-128.png" parent="G4rwLLoVx2K-rOXY0CrV-50" vertex="1">
          <mxGeometry width="78" height="78" as="geometry" />
        </mxCell>
        <mxCell id="G4rwLLoVx2K-rOXY0CrV-52" value="Solvent" style="text;html=1;align=center;verticalAlign=middle;resizable=0;points=[];autosize=1;strokeColor=none;fillColor=none;fontStyle=1;fontSize=10;" parent="G4rwLLoVx2K-rOXY0CrV-50" vertex="1">
          <mxGeometry x="9.002857142857142" y="34.996734693877556" width="60" height="30" as="geometry" />
        </mxCell>
        <mxCell id="G4rwLLoVx2K-rOXY0CrV-57" value="" style="endArrow=classic;html=1;rounded=0;fontSize=10;entryX=0.5;entryY=1;entryDx=0;entryDy=0;" parent="G4rwLLoVx2K-rOXY0CrV-170" target="G4rwLLoVx2K-rOXY0CrV-25" edge="1">
          <mxGeometry width="50" height="50" relative="1" as="geometry">
            <mxPoint x="73" y="131.99999999999994" as="sourcePoint" />
            <mxPoint x="90" y="90" as="targetPoint" />
          </mxGeometry>
        </mxCell>
        <mxCell id="G4rwLLoVx2K-rOXY0CrV-110" value="" style="ellipse;whiteSpace=wrap;html=1;strokeColor=none;strokeWidth=5;fontSize=12;fillColor=#FFE599;" parent="G4rwLLoVx2K-rOXY0CrV-170" vertex="1">
          <mxGeometry x="300" y="259.99999999999994" width="10" height="21.41" as="geometry" />
        </mxCell>
        <mxCell id="G4rwLLoVx2K-rOXY0CrV-186" value="" style="group" parent="1" vertex="1" connectable="0">
          <mxGeometry x="552.16" y="369.99999999999994" width="340" height="190.00000000000003" as="geometry" />
        </mxCell>
        <mxCell id="hI8DOcPEEPtuhdS6lUov-12" value="" style="group" parent="G4rwLLoVx2K-rOXY0CrV-186" vertex="1" connectable="0">
          <mxGeometry x="-20" width="360" height="190.00000000000003" as="geometry" />
        </mxCell>
        <mxCell id="G4rwLLoVx2K-rOXY0CrV-146" value="" style="shape=image;verticalLabelPosition=bottom;labelBackgroundColor=default;verticalAlign=top;aspect=fixed;imageAspect=0;image=data:image/png,iVBORw0KGgoAAAANSUhEUgAAAgAAAAIACAYAAAD0eNT6AAAABHNCSVQICAgIfAhkiAAAAAlwSFlzAAAOxAAADsQBlSsOGwAAABl0RVh0U29mdHdhcmUAd3d3Lmlua3NjYXBlLm9yZ5vuPBoAACAASURBVHic7N13mBVF1sfx772TZ2DIUXIWwYwgCmIAwYgJFAUVd81hfc3gBvMqxjXnXcW8JlSiEUEwi+JKlCwKkien+/7RjEoYZqa7+nb6fZ7nPuvC9Okjg3NOV1VXxRCRoGgNdAI6bv10AtoAdYEMIBdIBep7lWAAlQObt34KgHxgDfAjMB9YuPWzbOvXiv9lAp3/8OkCtMf67yMXyAGysf47yd/6yQM2bf3nlcACtv3+b0zqv0GSxLxOQESq1AE4AjgY6A+09TadSCsAvgZmAO8CHwPFnmYkleoAffj9v5UDgDTD9/gRmIn1/Z8KLDUcX0QiLgUYCDwNrAMS+vj2kwe8DZyO9UQpydUKuAr4DCgj+d//BcA4YC+3/0VFJNwOAO4FVuN9YdOn9p8twLPAYKwmTtxRDzgbeA9rOsbr73vl5zvgWqzpOBGRasWAY7GGFL3+AaaPuc9S4DKsOWYxoxnwD6x5eK+/v7v6lANvYTX0IiI7SANGAXPx/geWPu591mAVrQaIXe2B+4BCvP9+1vYzA6vBFxEB4DhgMd7/cNIneZ8NwF+w3s6QmmkMPI43c/umPx8APcz+8YhIkHTEWjDm9Q8jfbz7zMNapS5Vi2ONjq3B+++XyU8p1khGrrk/KhHxuwzgZqAI738I6eP9pwJ4BmiKbG9/4HO8/x65+VkFnGrqD0xE/KsL8BXe/9DRx3+fX4AjEbAWw16GtaeC19+XZH1ewXqjQURC6GT8v2JZH28/FVjDwqY3rAmSxkR3amw+sLfzP0IR8Yts4Cm8/+GiT3A+HwItiZ7+WFvuev3n7+WnELjA6R+kiHivAdb2sF7/UNEneJ9VwJ5Ex0loXcwfP/djLYAUkQBqCczB+x8k+gT3sx5rH/uwuxh/7eLnl8+rWIcYiUiA7I51UpzXP0D0Cf4nHziacIphbYzk9Z+xnz/vkeRXBXUaoIh9vYDJQMNk3TAtLY399t+fPfbYg06dOtGpcxfat29PdnY2DerXJys7m9TUVLZs3syWvDwKCgpYsWI5CxcuZNGChcybN4/PPvuUvLy8ZKVMSkoKdz/4CEcfNzRp96z04vhnuP7qK2xdW7d+E0pLiigq2GI4q10qA84CnkvmTV0WAx4Czk/yfVcDs7AO7qk81nc11smOBVgLdSuPBq4LNMLas6Mz0BXYF6vBT6bPgEO35uc6NQAi9vTCOha0vts36tq1K8cPPYH+h/SnT58DyclxdvhcWVkZX37xBdOnf8TEiRP5dPZsEomEoWx3Li0tnSefe4G+B/d39T7bc9IAHDL0z4y8+gGWL5jDvC/e58uP3uDH7z8jUVFhOMsdlGM1AePdvlGS3IZ1WI7bioCJwBTgI6yV9k41Bw4BDsNau9DIQMzqPIu1IZLr1ACI1J7rxb9Jk6YMP/VURowYwT777uvWbQBYsmQJL77wPM8/9xyLFi1y7T45derw/KtvskfP5K13c9oAnHntw9v82oa1q5g1aTwfvfkka1f9aCLFqoSlCbgCuNPle3yEVTRfxXqqd0sa1omPpwNDsTb6ckMC6I21MZKrtPJQpHZcLf5t27blnvvuY/7ChYy7807Xiz9A+/btuW7MWOZ8N5cXXnzJtXvm5+VxzhmnsnzpUlfiJ0ODJrtx1Khr+Ocr8/jLXRPo2KO3W7dKAf4NnOHWDZLgTGCcS7ErsDbU2Q8YADyJu8UfrC1938Laza8DcBfgxlxaDKv5c50aAJGac634N2/egscef4K5//uB88+/gKysLNO3qFY8HmfoCSfwyazZTHj7bXr0MH+Gya9r13L2iGFs2bzZeOxkisXj7HnQUYx9YiZX3DeJ1p1dGdUIchPQC3gUd0aZ/4s1Nz8Ma7dNL/wEXAm0Bf6JtZOhSf0Mx9spNQAiNeNK8U9NTeWSSy9jznffMXLUKFJT/XFo3MCBg5j16WeMu/NOcnPNLkxetnQJY6/+P6MxvbRH74H8/T+fM/LqB8ipa/z03yA2AY2wns5ND5HPBwYBp2At7POD9cB1WPs4TDEYt7nBWFVSAyBSPVeKf/fu3flk9qfcMW6c8SJrQmpqKhdfcilzvvuOgQMHGY09ccKbvPTcs0ZjeikeT+HQE8/nphfm0LOP8W3+g9QExLHm49sajFkB3IpVZKcZjGvSAqz1ASOATQbiJWWITA2AyK65UvzPOvtsPp75CT179jQZ1hXNm7fgzbfe4qabbzY6QnHz38aycP48Y/H8oH7jlvzlnrcZccW9pKQa3eY/KE3AFcAQg/EqD04aC5QYjOuWF7DWJXzhMM5cA7lUSw2ASNWMF//09HSefOppHn7kUbKzs02FdV0sFuPKq65m6rR3adykiZGYhYWFXHbBuZSUBOHnes3FYjGOOOVirrp/KrkNjJ786/cmoDNwg8F4n2AdmPOuwZjJsBg4CGsNhF2vGspll9QAiOyc8eJft25dXn/zTUacfrqpkEl3YN++vP/Bh7Rr185IvAXzfuCpxx6u/gsDqMs+/bj+qU9o1rqzybB+bQJiwGOAqdWrbwMDgZ8NxUu2EqyNj/5u49p5WCMJrlMDILKjfbF2+DNW/Bs0bMjb70zksMMONxXSM507d+bD6dPZc6+9jMR78J67+GnVSiOx/KZxi3Zc9+iHtOli5s9qq8omICmbxdTQn7FexzPhWeBEkrQbnstuBM7G2uGxJgqxmruafr0jagBEttULa09uY9v7Nm3ajPc/+JADerv2znjSNWvWnEmTJtO1a1fHsQoLC7nz1psNZOVPuQ2bcdWD79Kum9H9FVKwjp72w0hAPaxFeiY8jbV/QKmheH7wb+A4qt+nYBXWNsBfup1QJTUAIr8zPuzftGkzpkybRrdu3UyF9I2GjRox4e13aNnS+XH2b73xGp9/OttAVv6UU7cBV9w/xY0m4N943wRcgZktcv+LNZLg7r7U3piEdb7AXcDy7X5vAdZUQXfg02QmpQZAxKLib0ObNm148623qVevnqM4iUSCcbfcaCgrfwppE9AU+IuBOJ9jTWmUG4jlV2v4ffOg5kAXoDFWY3AjSXr174/UAIio+DvSo0cPHnn0Mcdxvvri81CPAkAom4DrsE7Sc+Jn4ASs+e+o+AXrdMJ1XiahBkCizviCvyZNmjJpypRIFP9KQ084gXPPO89xnMcfut9ANv6WU7cBV94/lfbde5kMm4K1eC7ZZ9g7ffqvwHryX+UwjtigBkCizJUFf1PffZfu3bubChkYt98xzvHGRh+8O40F834wlJF/Zdetz//dN9H0SEAQ3YN/d/cLPTUAElUa9jcsMzOTBx96mHjc/o+VRCLBE488ZDAr/3JpOiBIfgT+6nUSUaYGQKJIxd8lvQ44gDNGjnQUY9Jbb1KQn28oI3+LeBNwDdGa9/cdNQASNZrzd9nNt9xCvXr2/3gLCwuZNmWSwYz8zaU1AUFQecCPeEQNgESJ5vyToEmTplx8ySWOYrzz5uuGsgmGiK4J6AzMBoZ5nUhUqQGQqNCTfxJddNFFZOfk2L5++ocfsHHDeoMZ+V9ERwKygOextsuVJFMDIFGgJ/8ka9CwIaeOsP9aellpKVMnTTSYUTBEdCQgBXgCOM3rRKJGDYCEnRb8eeRP519ALBazff2sGR8bzCY4IrowMA48CezndSJRogZAwkzF30Pt2rVj3/3tD2d/NnuWwWyCJaJNQBbwOtbhQpIEagAkrDTn77F4LMYxQ0+wff0vP69m+dKl5hIKmIiuCWgN3OZ1ElGhBkDCSHP+fhCLMeSY40lJSbEd4tPZnxhMKHgiuibgPKCP10lEgRoACRsN+/tFAho3aUL3Hva3B/7q888MJhRMv00H7B6Z6fE48A+vk4gCNQASJir+PpLYeqx7rz4H2o6xeOECU+kEWk7dBlzz0Pv0OTIyC+WPBPbxOomwUwMgYaHi7zMJq/5zgIMGYOmSHw1lE3wZWTmce8OzjHn8Y/odezaNW7YnNS3D67TcdLHXCYRdqtcJiBig4u9Dia0dwD772V/Etn7dOjZs3ECD+g1MpRV4nXoeSKee9psqNyQSCbZsWMPKxXP5bNrLfDLpWcpKS5yGHQqcD5Q6z1B2RiMAEnQ9UfH3pfKKCgAaNW5Mbq79N7t+mPu9qZTEJbFYjNyGzeje63DOGvMoNz0/h9adHW/z3xA41EB6UgU1ABJkucAEVPx9qaw88ds/t+vQwXacxYsWm0hHkqhZ686MeWw6bbs6nsbvZyIf2Tk1ABJkVwDtTAVT8TcnkUhQkaj47f+3bdfedqzNmzZRXFRsIi1JooysOlx8+39Jz8hyEiZS7z8mmxoACaoYMNpUMBV/s8oqKrb5/40aN7Ydq7CwkC15BU5TEg80at6WQ0+6wEmIvUzlIjtSAyBB1R5oZSKQir95JaXl2/z/nDp1bMcqKiwgP18NQFDtd4SjVxebmspDdqQGQIKquYkgKv7uKC3ftgFwcjRwYWEBZWXllJaWOU1LkiQBFJTAmi2Q2nRP4im2XzhLA+x3j7JLeg1QgirPaQAVf/eUlG3bAGRm2p8HLim25v8Li4pJS9OPrEQCisugrAIqEtV/fVIkoDwBFRVQUg5/HACKx1PIqtOA/E1r7Uavg4H/3mVH+q9JgmoxUARk2rlYxd89iYoEZds1AEVFhbbjpWdYm90UFRaRW9f+SEKQJRKQX2I9VReXgl/qfk1UVJRTmLfBSQgVf5doCkCCKh+YYudCFX93FZWW7VCg8vPs/wzPysoGrBGAKMorhp82wvp8KApY8Qf4+cc5VJTbnr4pRQ2Aa9QASJDdDFRU+1V/oOLvvsLSHTduK8jPtx0vc2sDUF5a9tvuglFQVg6rN1mFvzzA/9rfffCCk8t/MZWH7EgNgATZF8Bfa/rFKv7uSySguGTHp71f19qe/yU722oAEhCZhYDFZfDL5m3n0oNo4y9L+eKdR5yEmGMqF9mRGgAJtIKiono33Xwz8fiu/yr36NGDD6dPV/F3WVFpKRU7eUpftnSJ7Zh/fIWwrCz8DUBhqVX8g/zUD1BcuIUXbzqJ0hL76z+Ar03lIztSAyCBVVhcfEssFr/6yquuZvZnn3PSySdTZ7v3zffYYw/uvPtuZnwyi/bt7e9GJzWTX7TzA2CWLbHfADRvsdtv/1xSEu5zYQpL4dctXmfh3K8r5/PUFf34+UfHD/DTTeQjO6e3ACSQCouLb4HYmMr/37NnT8Y/9zylpaUsX76cgoICWrZo4WgHOqmdsooKincyRP/r2rVs3rzJdtyWu7X+7Z8rgv5YvAuFpbA2oMU/kUiQv/EXflnyHXOnv8y374+nvMxxs7YO+MBAelIFNQASONsX/z9KS0ujY8eOyU5JgPzCnT/9f/PVF7ZjNmjYcJtNhCoqarXmMzBqU/yXfz+Tr6Y8ydLvppO3fjVlpaF9O+INIPxzPh5SAyCBUlRcfHuC2NVe5yHbqqiooKB45w3Ap7M+sR13t1Zttr1PCN8CqOmwf0lRPhPuO5e5H73kflLeSwD3e51E2KkBkMAoLC6+RcXfn7YUllRZnD+fPct23FZt2m3z/xOJgC+L305Nn/wL8zbw7NjB/LTwS/eT8ocp6A0A16kBkEDY1bC/eKsiUUF+FU//v65dyw/fz7Ude4+e2x4Gl0jEbMfym5o++RfmbeDZMUfy06Kv3E/KHyqAv3udRBSoARDfU/H3t035xVVu0PPOhDcoL7f/1N5z7/22+f/Vve4ZFDV98i/K38j464dEqfgDPAR85nUSUaAGQHxNc/7+VlxWVuXcP8A7b75uO3bjJs1o0XK3bX4tHg/+CECRnvx3ZRkw1uskokINgHhhADAU6IZ10tdPwIfAS1iv/gCa8/e7RAI25VW9ycuKZcv4+kv7bwD03HufHX4t6A1AUal1RG51Ilr8C4ATgM1eJxIVagAkmdoD/wH67eT3TgFuA/4G3Kdhf//bUlhMaXnVr+U9/fgjjvbu33vfXjv8WpCnAFT8d6kCGI12/ksqNQCSLL2AicCudubJBe4dcNhhZ0Jsx8c/8Y3isjK2FBZV+fsb1q/nlReesx0/NS2Ng/oftsOvp6Sm2I7ppaLarPaPXvEvB87CGgGUJApuOy1B0guYyq6L/28+fP/9fR5++CF3MxLbyisSrN+y6/3dn336CQoL7e8Bv/8BB1I3N3eHX89IT7cd0yuVxb+6sZCIFv8CYDgw3utEokgNgLitsvjXr81FN95wAxs3bnQnI7EtkYD1eQW73JFv7Zo1PPWYoxPgGHD4kTv8WgxISwvWoKWK/y7NB/oAr3qdSFSpARA32Sr+ABs3bOCtCRPMZySObMgroKSaI3nH3XoTeVvsb2qfmZlFn4P77/DrqampxGLBWQSo4l+t64HvvE4iytQAiFtsF/9KM2Z8bC4bcWxTfhGF1ZzG9/WXn/P6K86mcvsfegRZWdk7/Hp6RpqjuMmk4l8jdwA7fqMladQAiBscF3+An1f/bCYbcWxLYRF5Rbs+dKaoqIixV13haOV/LBbj5NNG7vT3MjIzbMdNpsISa7W/in+12gM3eZ1ElKkBENP2BSbjsPgD1M2t6zwbcSyvqJjNBdWfOHfL369nwbwfHN2rz0H9adt+56c5ZmdnOYqdDPnFsDav+q+L6A5/O3M5cLTXSUSVGgAxqRfwHtDQRLDdd9/dRBhxIK+omE35Vb/uV2nSWxN44dn/OL7fyaeN2umvp6amkJHu3ymABLC5ENblV/+1hXkbeOa6QaxaYH+TpJ0oB0ZirZVM5udeh3nHgCeAVg7jiA1qAMQUI8P+lWKxGMcdP9REKLGppsV/3g//Y8xVlzu+3x4996LHnnvv9PeysjIdx3dLRYW1te/GGrz16NKwf+V79F68SncbYH/Fp6U58Drg/yEeM2JY/85dgSZeJqIGQEwwWvwBjjv+eHr27GkqnNRSXmHNiv+qlSsYPWI4WzY72701Fosx+vxLq/z9nGx/rhUrKIHVm6zDfarjYvE/E+/eo18D3GMgzv5Y/w7B3OmpZpoDdwMrgNXAPKw/v0XADUC9ZCekBkCcMl78W7duzf0PPGAqnNRSXlExmwqqL/4bN6xn9IjhrPnF+WLNQwcOrvLpPyUeJyvHXyMApeXWKv9f86C8BmseXS7+9rdcNOMu/nCGhwMnAo9jPSGHzVFYBf9yYLftfq8j1hboP2Dti5A0agDECWML/io1adKUNya8RZMmTU2FlFqo6bD/5s2bGH36qSxetNDxPbOysjlnF0//dXPrEPfJ+/+lZdY8f02f+gHyNv7Cf649wo3ifzbeF3+wDu+51lCss7HOC/Hvgo/aOxt4k+qf8FsA72ONhiSFGgCxy+iCP4BmzZoz9d136d69u6mQUgs1HfbftGkjo4adxLffmDm3ZcSZ59B4Fw1fbm4dI/exK5GwVvev2QKrN1v/XFMbfl7CU1cews8/zjGZUuWT/7Mmgzr0JPCBoVgjsdYE+HPep3b+ATxFzc/dycJq6pKy5aUaALHD+LB/s2bNmTx1Kt26dTMVUmqhpsP+mzZt5MzhJzP3WzMFrX2HTpw47PQqfz8rK9Oz7X9Ly62iv3Kj9dRfVMMn/kpLv5vOE5f3Zf1Pi0ym5Zdh/+0lgHMB+wdAbOtorAeMFobiJVsG1nTG321c2wUYYTadnQvWxtriByr+IVPTYX/TxT8jM5MxN9xGalrVo72xWIwNG+0vMCyoQVNTleKy2hd9gEQiwacT7mfak9dQXmYjQNX8WvwrLcKayx5nKF4f4BusEYGphmImQyeskw33dRDjROAZM+lUTQ2A1IaKf8h4VfwBLrzsKtq067DLrykoKKSgwP5DZX5+ge1r7dj860revPfPLP5qmunQfi/+le4GDsVa9GZCU2AS1rbB/wBqMQHjidOBh7CONnciKa9AaQpAakrFP2RqM+dvuvgPOPxIBh8Tnn0eKsrL+OytB3nogr2jXPwBKrCe2JcajBnHWmT4LbDjMZH+0BXr5+N4nBd/gKRsg6oRAKkJFf+Q8WrOH6BV67ZcdtVYY/G8tujLqUx76hp+WeLKwXZBKv6V1gMnAzMAk+9vdsF66+g1YAzWccJeawRcDfwFSDcYNykHoagBkOqo+IeMl8P+DRo24uY77yc7J8dYTC8kEhUs+PQdpr90K6vmf+7WbYJY/Ct9ibUo8D+Yf6//RGAo1psCt229V7LtBlwB/Blw4zWV6S7E3IEaANkVFf+Q8bL4Z+fkcPOd99Oi5fb7oATHprUrmPPes3w1+Uk2rlnm5q2CXPwrPYu11e1dLsSOAydt/UzHGnr/L7DBhXtVSgcGY83zH4+10t8NCeDfLsXehhoAqYqKf8h4WfxT09L42y130qlzV2Mxk6GivIzVi79hyTfv8cOsN6wDfBwcd1xDYSj+le4GGgPXuXiP/ls/92MtGJwKfIi1s55TLYEBwGHACRjc92QXngWMnhRVFTUAsjMq/iHjZfGPx+NcPfZG9tnvAGMxk2HeJ28w98MXKS50etZNrZRhFf/nk3lTl40FGgDnu3yfDKypgcrVpb8As7HWCiwEFmDNredv/WzEGr7P2fppCnTAWmvQBes1vmR3rJ8BFyTrZv7YX1P8ZF9gGgY73SZNmjJ56lTt8OeR2mzve9appxjb4U9qrQAYBrzjdSIuiGFtimNnY5yoeB9rlMHZyVq1EOaTl6T2VPxDRsU/MDZgvTv/nteJuOhDrEODBqOHz+29hrWeIT+ZN1UDIJVU/ENGxT8wfgKOIEnzvh77DJiLtYhOU9CW+4FzAKPbRtaENgIS0ME+oVObOX+TB/tIrX2AdfqbK5sI+NRrwEBgpdeJeKwIa13EpVgbKCWdGgBx5UjfiZMna8GfR2rz5H/2acOMLviTGksAt2MVwtUe5+KFGcDewNteJ+KR+cCBwKNeJqEpgGjTsH/IaNg/ENZgzfc+itUIRFUh8CLW+ofDiE49ehZrCmS514loBCC6NOwfMhr2970E1s54PQjW6XZuSgD3AX2x1geE2SpgODAKyPM4F0ANQFRp2D9kNOzve3OwNqs5C1jrbSq+9CXW8b9nEr4/nzLgX0B34GWPc9mGXsWIHm3yEzJebvIj1dqA9e77Q1g7/En1GgG3Yq2MD/q0wHtYi/z+53UiO6MGIFo05x8ymvP3rTXAw8C9WDvOSe21Ay7HOnAny9tUam0m1iLPt7xOZFfUAESHin/IqPj70lKsov8Y1iI3ca4pcCFwGQZHLl1QAUwEbgRcOyLSJDUA0aDiHzIq/r5SiPU627NYa2uSvqFLRGQBx2AtohuMfzYS+h/wCvAM8KPHudSKGoDw05x/yGjO3xe2YG3i8yLwJtY+/pI8LYFTgVOwNlJKdjMwD+v7/hwB3sRJDUC46ck/ZPTk75l8YBbW3O4MrDPoSzzNSCrlYG2qczBwENbbFumG7/Ejv3/vJ+ODd/hNUAMQXnryDxk9+buiDOtpfhO/HxO7FljM78fILsT6ge/Jdq1SaxlAR34/1rcz1oLCBkBdfj/+tz7W+/iV3/cNW/93JdseIbyQJJ7Ql0xqAMJJT/4h4/GTfzlwNtYct4iEhBqA8FHxDxkVfxFxgxqAcFHxDxkVfxFxixqA8FDxDxkVfxFxkxqAcFDxDxkVfxFxmxqA4FPxDxkVfxFJBjUAwabiHzIq/iKSLGoAgkvFP2RU/EUkmdQABJOKf8io+ItIsqkBCB4V/5BR8RcRL6gBCBYV/5BR8RcRr6gBCA4V/5BR8RcRL6kBCAYV/5BR8RcRr6kB8D8V/5BR8RcRP1AD4G8q/iGj4i8ifqEGwL9U/ENGxV9E/EQNgD+p+IeMir+I+I0aAP9R8Q8ZFX8R8SM1AP6i4h8yKv4i4ldqAPxDxT9kVPxFxM/UAPiDin/IqPiLiN+pAfCein/IqPiLSBCoAfCWin/IqPiLSFCoAfCOin/IqPiLSJCoAfCGin/IqPiLSNCoAUg+Ff+QUfEXkSBSA5BcKv4ho+IvIkGlBiB5VPxDRsVfRIJMDUByqPiHjIq/iASdGgD3qfiHjIq/iISBGgB3qfiHjIq/iISFGgD3qPiHjIq/iISJGgB3qPiHjIq/iISNGgDzVPxDRsVfRMJIDYBZKv4ho+IvImGlBsAcFf+QUfEXkTBTA2CGin/IqPiLSNipAXBOxT9kVPxFJArUADij4h8yKv4iEhVqAOxT8Q8ZFX8RiRI1APao+IeMir+IRI0agNpT8Q8ZFX8RiSI1ALWj4h8yKv4iElVqAGpOxT9kVPxFJMrUANSMin/IqPiLSNSpAaiein/IqPiLiKgBqI6Kf8io+IuIWNQAVE3FP2RU/EVEfqcGYOdU/ENGxV9EZFtqAHak4h8yKv4iIjtSA7AtFf+QUfEXEdk5NQC/U/EPGRV/EZGqqQGwqPiHjIq/iMiuqQFQ8Q8dFX8RkepFvQFQ8Q8ZFX8RkZqJcgOg4h8yKv4iIjUX1QZAxT9kVPxFRGonig2Ain/IqPiLiNRe3OsEkkzFP2RqU/zPPm2YG8V/NCr+IhJAURoBUPEPmdoW/zlff2Xy9pXF/xmTQUVEkiUqDYCKf8io+IuIOBOFBkDFP2RU/EVEnAt7A6DiHzIq/iIiZoS5AVDxDxkVfxERc8LaAKj4h4yKv4iIWWFsAFT8Q0bFX0TEvLA1ACr+IaPiLyLijjA1ACr+IaPiLyLinrA0ACr+IaPiLyLirjA0ACr+IaPiLyLivqA3ACr+IaPiLyKSHEFuAFT8Q0bFX0QkeYLaAKj4h4yKv4hIcgWxAVDxDxkVfxGR5AtaA6DiHzIq/iIi3ghSA6DiHzIq/iIi3glKA6DiHzIq/iIi3gpCA9ALmArUNxWwWbPmTJ46lW7dupkKKbVQ0+K/adNGzhx+MnO/nWPy9uXAWcB4k0FFRILG7w1Ad+Bj9OQfGnryFxHxBz83ALsBM4G2pgKq+HtLxV9ExD/iXidQhXrARFT8Q0PFX0TEX1K9TmAnGKvKzgAAIABJREFUsrGK/56mAmrO31ua8xcR8R8/jgA8APQ1FaxJk6ZMnDxZxd8jtXnyHz1iuBvFfzQq/iIiO/DbGoBhwEumgmnY31sa9hcR8S8/NQAdga+AXBPBVPy9peIvIuJvfpkCSAOeQ8U/FFT8RUT8zy+LAK8HepsIpAV/3tKCPxGRYPDDFEAH4Hsg02kgPfl7S0/+IiLB4YcRgHswUPwbN2nC1Hff1ZO/R/TkLyISLF6vARgIHOc0SHZ2Nv/976sq/h7Rq34iIsHj5RRAKtbQfxcnQdLT03n19dc54oiBZrKSWtGTv4hIMHk5AjAch8Uf4IEHH1Lx94iKv4hIcHnZAFzhNMDIUaMYOWqUiVykljTsLyISbF5NAQzB2u/fto4dOzLr08+oW7euoZSkprTaX0Qk+Lx6C+BKJxenpKQw/rnnVfw9oGF/EZFw8GIKoCdwmJMA5557Hnvvs4+hdKSmVPxFRMLDiymAfwLX2L24YaNGfPfdXBo2amQwJamOhv1FRMIl2VMAMeBUJwFuuOFGFf8k05O/iEj4JHsE4GDgY7sXt2zZkh/mLyA9Pd1gSrIrevIXEQmnZK8BOM3JxZdceqmKfxKp+IuIhFeyRwCWA63tXFivXj0WLFpMbq6RE4OlGhr2FxEJt2SOAHTAZvEHGH7qqSr+SaJNfkREwi+ZDcAhTi4eNmy4qTxkFzTsLyISDclsAPrbvbBVq1Yc2LevyVxkJ1T8RUSiI5mvAfaze+HQoScQj3t9cnG4ac5fRCRaklVV6wEd7V7cf8AAc5nIDjTnLyISPclqADrbvTAWi3GQhv9do2F/EZFoStYUgO0GYI899tDOfy7RsL+ISHT5fgSg5557msxDttKwv4hItPm+AejUqZPJPAQN+4uISPIagOZ2L+zUyXbvIDuh4i8iIpC8NQB17F7Yrl07g2lEm+b8RUSkUrJGAOravTC3Xj2TeUSW5vxFROSPktUA2B4BqFPH9qWylYb9RURke/5vAHJyTOYROSr+IiKyM8ncCtieWLJPLA4Pj+f8AYqBZaaDioiIc8kaAci3fWG+7UsjzeM5/0rZwETgMDeCi4iIfclqAPJsX5hn+9LI8njYf3vZwFuoCRAR8RX/NwBbtpjMI/RqM+w/athJbhf/StnABOCQZNxMRESq5/spgOXLl5vMI9R8MuxflRw0HSAi4hvJagB+tnvhwoULTOYRWj598t+eRgJERHwiWQ3AIrsXLl682GQeoeTzJ//taSRARMQHfN8AzJ0712QeoROQJ//taSRARMRjvm8Avp0zhy1aCLhTAXvy355GAkREPOT7BqCsrIzZs2eZzCUUfPaqn116RVBExCPJagDWAKvsXvzx9I8NphJ8Xg77x+NxGjRsaCwemg4QEfFEshoAANtV/M03XjeZR6B5Oewfj8e54rq/86/HnqV5i92MxUXTASIiSZfMBmC63QsXLFjAN19/bTKXQPJy2L+y+B8x+BiaNmvOuPsfM90EaDpARCSJAtEAALz00kum8ggkvxT/SmoCRESCLZlH7cWw1gI0tnNx8+YtmLdgARkZGWazCgAvT/WLx+NcOfYGDh901E5//+fVq7jq0vNY8/NqY/fE2jnyaOAjk0FFROR3KUm+X3dgbzsX5uXl0aZNW/bZZx/DKflbbef8v5vzjbF7//bkf+TRVX5Nnbq5HHzIYcye8ZHJcxvSgWHAbGCJqaAiIvK7ZI4AAAwCpti9uHPnznzz7XfE48mcufCO34b9q5KWlkqMMkYOO4GVZs9uKACOBd43GVRERJK7BgCsH+Rr7F68cOFC3ng9Gm8EeP2q35Vjb6hx8d9tt2a0btOG8S+/zm6tWhvLA70iKCLimmQ3AGXAK04CXHvN1RQUFBhKx5/88KpfVXP+f1RZ/FNSrJmkVm3a8MLrE2jVpo2xfNArgiIirkj2GgCAjcA5di/evHkz6elp9O8fzofC2i74Mz3nf+XYG3Y5519p++JfqW5uLkcMGsK0yZPYsnmzqdTSgJOBmcAyU0FFRKIs2WsAKn0O7G/34qysLL76Zg7t2rUzl5EP+Hm1/x9VVfz/aOXy5Zx+8lBWrVxhLEestwMGAZ+YDCoiEkVeraYb5+TiwsJCzjpzFGVlZaby8dzmgvAUf7CmA5777xum1wTkAK8BLU0GFRGJIi+mAADmASMA25vKr1q5krKyMg49LPhTwxvzC8krKq7267x61a9STYt/pdx69TjyqKOZNmUSmzdtcppqpTpAfazFgSIiYpNXUwAAFwIPOgkQj8d58623OOKIgYZSSq5EIsGGvEIKS0qr/dqgPPnvjAvTASVYG0rpnGgREZu8bACygIWAo71k69Wrx9R332PPPfc0k1WSlFckWJ9XQElp9dMYQS7+lVxoAo4CJpkKJiISNV7uqFMIXOM0yKZNmzj+2GNZtiw4i8OLS8tYszEvMsUfXFkTYHRxgYhI1Hi9pd7zwAynQX7+eTXHHn0UP5vdj964RAI25hfx6+Z8KhIV1X79xg3rQ1H8KxluAqpfMSkiIlXyugFIAJcC5U4DLVy4kEMPOYRFixY5z8oFxaVlrN20hfwaLPYDWLVyBcOPPyY0xb+SwSZgvol8RESiyusGAOBr4DETgZYuXcphAwbw1ZdfmghnRHlFgvVbCvh1cz6l5dU/9QPM/+EHhh13NIsXLTSWhx+KfyUDTcDPwBcGUxIRiRw/NAAA1wJGHt3Xrl3DoIFH8Nz48SbC2VaRqGBTQRG/bNxSo1X+lSa9NYFTTziGXwxOZ/ip+Fdy2AT8EwOjRiIiUeblWwDb2w9rh7d0UwFHnH469/3rfurUqWMqZLXKKirILywhv7iERCJR4+tKSkq4/aZ/8J8nHzeaTzwe58ox/+BwF97zN+GnVSsZcdLxNT5FMBaLvZ9IJI7EOldCRERs8ssIAMCXwBiTAZ9/7jkOOrAP06d/ZDLsDioSCQqKS1m3uYBfNmwhr6i4VsX/6y8/58QhA90p/mNv8G3xB2i5Wyuef/VNuvfoWe3XHnzIocz66ruViUQNVlCKiMgu+WkEAKx83gGGmA48bPhw/nn7HbRo0cJIvIpEBcUl5RSWlFJUWlargl9p3a+/Mu6WG3n15RdtXb8rfhz235WioiKeeepx/vPE4ztMf7Tv0JE/X3gxJw0/rTLHJzq2aHxeLBZTIyAiYpPfGgCARlinvnU1HbhO3bqcf/4FXHLpJTRt2qzG1yUqEpRWVFBWXkFJWRnFpWWU1XBB385s3LCe/zxpFbvNm41tkfuboBX/P0okEixaMJ+VK1YQj8dp36EjbXZ+6JOaABERB/zYAAC0w2oCXDn0JTMzk+EjzuCc886jU6fOxGIxYsSwnsETVFQkSCSsp/zSigoSFWaezlcsW8YzTz/Bi+OfobCgwEjM7QW5+NugJkBExCa/NgAAewEfAfVcvck++3LsCSdx9HFDadK0qfH469etY+KEN5jw+qt8/eUXxof6/yhixb+SmgARERv83AAADAAmAxlu3ygej9Olazd69z2IPgcdzF777EvTZs1rHWftmjV8N+drZs2cwaefzGTe/76nosL92hTR4l9JTYCISC35vQEAOA54BYOvB9ZUdk4O7Tt0pF37DtRv2JA6OXWom1uX1NQ0ysrL2LJpM/kF+WzasIElPy5m6ZIfyduS/APq0tLSufr6G+l/WPWnIoaw+FdSEyAiUgtBaADAeivgdZIwEhA0WVnZXH/zHex/wIHVfm2Ii38lNQEiIjUUlAYA1ATsoEHDhtw87n46delW7ddGoPhXUhMgIlIDQWoAwMPpAL9p1botN995Py1a7lbt10ao+FfavgmIAX2BQUBbrG2EFwKTAHOnLYmIBEjQGgCA44GXiXATcOjAwVx25ViysrOr/doIFv9KlU3AfsBDwP5VfN1U4CIMnUUhIhIUqV4nYMObwDAi2ARkZGZy0V+u5sijj6/R16enp9GyZdMoFn+AP11/4y2tgUOAzF183SDgU+AEYHoyEhMR8YMgjgBUitRIQPsOnRhzw220adehRl+fmZlBi+ZNiKf46biH5Pnh+7mccuwQioqKanpJPnA01t4TIiKhF+QGACKwMDAzM4uTTxvJqSPPJi2tZr1OdnYWzZo3Jh4L+rfXvjNOOYHZM2fU9rIC4FjgffMZiYj4SxgqRGibgN59+3Hx/11bqw2J6tWrS+NG9SHCxX/h/HkMObSf3cvVBIhIJARxDcD2JgHDCdF0QI899+ascy+i51771viaeDxO4yYNqFsnx8XMgmFW7Z/8/ygbmICmA0Qk5MLQAEAIFgbGYjF69+3HsNPPYo+ee9Xq2oyMdJo1b0xaali+nc78snp19V+0azlYx1KrCRCR0ApTxQhkE5CZmUW/Qw/n5FNH0a5Dx1pdG4/FqN8gl/oNcomFYjbHjPQMI99+NQEiEmphagAgIE1Aaloa+x9wIAOOOJIDDz6EzMysWsfIycmiUaOGpKVF8hW/XaptI7ULagJEJLTC+tjou1cEmzRtxp5778de++5P336HUjc311acjMwMGjWsR1bWrl5tj7YN69fTd5+elJaWmAqpVwRFJHTC2gCAh01Ao8ZNaLlba1q1acsePfem59770LxF9Vv27kpmZgYNGuSSnV370YIoumHsdTz79BMmQ6oJEJFQCXMDAC41AQOHHEPTZs3JzMwiKzuHtLQ06tWvT/MWu9Fyt9ZkZJp5Ok9JSaFOTjZ169UhIz3NSMyoyNuyhZOPHcKiBfNNhlUTICKhEfYGAFxoAtq068Ad9z1Kg4YNTYX8TTwlTk5OFnXrZJOZmUkswu/zO7VyxQpOP+l4Vq1cYTKsmgARCYWoVBfjmwW1adeeux98gtzcBiRI2I6TlppKRmY6WZkZZGZlkq4nfaN+WrWSEScdz8rly02G1WZBIhJ4UWkAwIUmoEPHToz/7+s0bNiY0tIySktLKa+ooKIiQUVFBRUVFSSAlHicWCxGLB4jNZ5CaloKaalppKWn6gk/CdQEiIjsKGrVx6Um4A2aNmtmKqS4QE2AiMi2otYAgJqAyFITICLyuyg2AKAmILLUBIiIWKLaAICagMhSEyAiEu0GANQERJaaABGJuqg3AKAmILLUBIhIlKkBsKgJiCg1ASISVWoAfqcmIKLUBIhIFKkB2JaagIhSEyAiUaMGYEdqAiJKTYCIRIkagJ1TExBRagJEJCrUAFRNTUBEqQkQkShQA7BragIiSk2AiISdGoDqqQmIKDUBIhJmagBqRk1ARKkJEJGwUgNQc8cDLwPppgJ26tKV8a+8TuMmTUyFFBesXL6c008eyqqVK0yGzQeOBj7aye/VA+Jb/7kM2GLyxiIioAagttQERJRLTUABsACr4NcHGuzia8uBzVjNwGrgV2AtsBz4EVi89X9/MpmgiISXGoDaUxMQUS41AaZtBL7Z+vka+AyY52lGIuJLagDsURMQUQFpAra3BpgBTAfeBb73Nh0R8QM1APapCYiob778gtNOPJ7S0hKvU7FrKfAO8DbWQsTA/ouIiH1qAJzR2wERsXnzJt6bMplJb09g+ocfUFZa6nVKpmwE3gJeASZhLToUkQhQA+CcRgJCqqKigpnTP+L5Z/7Nh++9G+Qn/ppaCTwFPL71n0UkxNQAmKEmIEQ2bdrIqy++wPPP/JulS370Oh0vlGFNDzwETPM4FxFxiRoAc9QEBNzqn1bx2IMP8MoL4ykqKvI6Hb/4Grgd+C/Wq4giEhJqAMxSExBAK5Yt45EH7uO1l1+KwjC/XT8CtwD/QY2ASCioATBPTUBArPnlF+654zZee+Ulysu09q2G5gF/BV4FEh7nIiIOqAFwh5oAHysqKuKpRx/mkQfuoyA/3+t0gupz4DJglteJiIg9agDcoybAh9564zXG3XITP63SIncDEsAzwLXAzx7nIiK1pAbAXWoCfGLVyhX89Zormf6BDuBzwWbgOuBhNC0gEhhqANynzYI8lEgkeOm5Z7ntxr+Tn5fndTphNxM4B5jvdSIiUj01AMmhkQAPrFy+nP+7+Hy++uJzr1OplfoNfj8UsLSkhPxgrVMowJoSeACNBoj4mhqA5FETkEST3prAmKsuZ8vmzV6n8ptmzZrTvXt3unbtSpu2bWjVqjWtWrWiUePGNGhQn/r1G5CWlrbTa0tLS9mwYT1r1/7KunW/smrlKpYuXcKSJUtYtGgR//v+ezZt2pTkf6NdehsYjXVksYj4kBqA5FIT4LKioiJu/ttYXhz/jKd5NGzUiD69+9DrgF70OuAA9t1nXxo0bOja/RKJBEuXLmXON9/w2WefMXPmDL768kvKvH298SdgJNaBQyLiM2oAkk9NgEtWLFvG+aNHMv+HH5J+75SUFPoceCCDBg3i8MOPYJ999yUejyc9jz/Kz89n5swZTHznHSZNnMjy5cu9SKMcuAa4y4ubi0jV1AB4Q02AYZ/N+oSL/nw2G9avT9o94/E4AwYcygknnshxxx9H06b+XpT57bff8vJLL/HySy+yYsWKZN/+eeDPWGsERMQH1AB4R02AIS899yz/GHNt0rbxbdeuHaPOPJMzRo6idevWSbmnSYlEghkff8yTTz7BG6+/TnFxcbJu/RVwDLA6WTcUkaqpAfCWmgAHEokEt97wN55+7JGk3O/QQw/jwosv5qijjvJ8eN+UX9eu5d//fpoHH3iQn39OSl1eChwFJH+eRkS2oQbAe2oCbCgvL+e6K/7Cay+/6Op94vE4Q084gWuvG0PPnj1dvZeXiouLeW78eO65+y4WLVrk9u3WY/29n+H2jUSkamoA/EFNQC2UlJRw+YXnMWXi267dIxaLccKJJzL2+r/SvXt31+7jN2VlZYx/9lluufkmVq50dbvkAmAoMM3Nm4hI1dQA+IeagBooLCjggtFnMmP6h67do3efPtxxxzgO6N3btXv4XVFREY88/BC33Xorm93bS6EIOAmY6NYNRKRqagD8RU3ALhQXF/PnkSP4ZMZ0V+I3bdqMO8aNY9jw4cRi+k8D4OefVzN2zBheeP55EglXNvYrAU4BJrgRXESqpp9y/nMU8Bo6O2AbZaWlXPins3l/2hTjsWOxGKeNGMG4cXfSsFEj4/HD4JOZMzn/vHNZuHChG+FLsJrfyW4EF5GdC8dS5nCZCAzH+qFoxI+LFzFq+En8ujaYu7KWl5fzf5dc4Erxb926NRMnT+bJp55W8d+FvgcdxKxPP+Oiiy52Y3QkHXgF6GM6sIhUTSMA/qXpgK3GXHk5Lz8/3njc00aM4J5776NevXrGY4fZtGlT+dPoc1iz5hfTodcD/YHvTQcWkR1pBMC/3gSGYXAkYNGC+ZxxygmBGgl47KH7jRf/rKwsHnv8CZ56+t8q/jYMHDiIz7/8gsMPP8J06IZYhwg1NR1YRHaU4nUCskvzsXZPOxlINRFw/bp1vD9tCkcefSw5deqYCOmaD96dxtgrLze6+Kx169a8OeEtBg8ZYixmFOXk1OG0ESOAGDM+/thk6PrAocBzQKnJwCKyLTUA/rcQ+A44EUPfrw0b1vPRB+8x+Ohjyc7JMRHSuO+/+5ZzRp5GSYm57X379e/PlKnT6NCxo7GYURaLxeh/yCF06dKVKVMmU1pqrF63BDoCr5oKKCI70hqA4IjMmoAN69dz3KDDWP3TKmMxTz/jDB56+BHS04398ckffDp7NieddCLrfv3VZNjLgXtNBhSR32kNQHBEYk1AIpHgqssuMlr8r77mWh5/4kkVfxf17tOHDz78iPbt25sMewdwkMmAIvI7NQDBEvom4NEH/8WH771rLN5NN9/MDTfeqI19kqBz586898GHdO3a1VTINKxRLy0KFHGBfioGUyinA7747FNOP3ko5WVljmPFYjHuvPtuLrzwIgOZSW2sWfMLRw0ezPffG3ub7y3gOFPBRMSiBiC4QtUE5OflcfTh/Vm5YoWReLffcQeXXvYXI7Gk9n5du5aBRxzOvHnzTIU8D3jMVDAR0RRAkIVqOuCOW240Vvz/ccMNKv4ea9ykCW9PnETbtm1Nhbwb6GwqmIhoBCAMAj8SMHvmDEYOO9HI+/4XXngRd91zj4GsxIRFixZx2IABrF27xkS4j4FDAFdOJRKJGjUA4RDYA4QKCws5+vD+LF+61HGsIUOO4pVXXyUlRdtb+MmXX3zBoIFHUFBQYCLcucDjJgKJRJ2mAMIhsAcIPXD3nUaK/9777MOzzz2n4u9D++2/Pw89/IipNzFuB5qbCCQSdfppGR7zMbxj4Pp16/jw/Xdd2zFw2dIlXHnphZSXlzuK06hxYyZPmUoTn21oJL/r0aMHBQWFzJr1idNQWUALrBEvEXFAIwDh8iZwAlBsKuCiBfMZceJxrPnF+Mlv3PL36x1v9RuPx3nq6adp06aNoazELTfedJOpA4RGAAebCCQSZWoAwicQ0wHTP3if96dNdRxnzNixDBp0pIGMxG0pKSk8+fRTNGvmeAQ/BoxDa5hEHNF/QOHl27cDKioqOOaIASyY94OjOL379OHd994nNdXIQYmSJJMnT+LEoUNNvPUxAnjBQEoikaQRgPDy7T4Bk96e4Lj4161bl6ee/reKfwANHjyEP597rolQN2LomGyRKFIDEG6+awLKy8v5113jHOdxw0030aFDB8dxxBu33vZPEwcHdQJGGkhHJJLUAISfrxYGvv3m6yxeuMDR/XsdcADnnnueoxjirZycHO67/34Tof6GwWkukSjRa4DRsBDDrwhu2LCejz54r1avCCYSCS674Fw2rF9n+75paWm8MeEtmrm8QZG4r2PHjixatJDv5851EqY+8CPwjZmsRKJDIwDR4fl0wPQP3nf89H/eeefTvXt3RzHEP26/4w7q1q3rNMwVaEGzSK2pAYgWT6cDnn78UUf3qt+gAdeNGeMohvhLs2bNufKqq5yG6QEMMpCOSKSoAYgeT/YJWLxoITOnf+joPtf/9a80bNTIUQzxn0suvczERk7/ZyIXkShRAxBNSZ8OeOapJxy9992qVSv+9Kc/275e/CsrK4ux1//VaZiBQFcD6YhEhhqA6EradEBxcTFvvfaqo9hXX3MtGRnGDjsUnzn9jDPo3LmzkxAxYLShdEQiQQ1AtCVlOuD9qVPYvHmT7Zi77bYbZ551loHsxK9SUlK4+pprnYY5E0gzkI5IJKgBENenA17/70uO4l140UWkp+tV77AbfuqptGrVykmIZsAxhtIRCT01AAIuTgfM++F/TP/wA9txsrOzOftsjexGQVpaGhdedJHTMCNM5CISBXp3Vv7I+AFCWVlZFBYW2r7+vPPP5977/mUqHfG5jRs30qlDe/Lz8+2GKACaArYDiESFRgDkj4yPBDgp/oCe/iOmfv36nDxsmJMQ2WgaQKRG1ADI9owvDLRrn333Za+99/Y6DUmys0c7bvpONpGHSNjpKE3ZmcqFgUanA2rrzDPP8urWSbN+3To+/vhjZsyYwbwffmDhwgVs2ryZTRs3EovFyK1Xj0YNG9KlS1d2796dg/sdzMEH9zOxfa5v9T6gN1277c58+0dGD8J6G6DUXFYi4aM1ALIrxtcE1FRKSgpLli2jSZOmyb6160pKSnj9tdd4bvx43n//PcrLy2t1fXp6OoOHDGHkqDM56qijiMfDN5B30y23cOuNNzgJMQD4yEw2IuGkBkCq40kTcMghA5g8dWoyb+m60tJSHn/8Me656y5WrlxpJGbXrl25+pprOW3ECGKx8Pzn/O338+i9755OQvwTuM5QOiKhFL5HBzHN+D4BNTH0xBOSeTvXfTx9Or177c8Vl19urPgDzJ8/n3NGn82hAw7h22+/NRbXax06tqfnXo7WfxxpKheRsFIDIDWR9CZg8OAhybqVq8rKyvjH3//O4CMH8cMPtue0q/Xp7Nn0P/ggHnroQdfukUypKXEGDj7KSYi9gHqG0hEJJTUAUlNJawI6d+5Mu3bt3L6N6/Ly8jhx6FBu/+dtVFRUuH6/4uJirrj8cv50zmhKS4O9/i01nkK/AYc6CREH+hhKRySU1ABIbSSlCRg4MPhHu2/cuJEhg49k2rTkr2N4bvx4hp18MsXFxrZzSLqUeIw9eu7p9PjnvqbyEQkjNQBSW643AQf36+dW6KQoLCzk5JNO5IvPP/csh8mTJ3H2WWcmZeTBDbFYjNTUFA7qd4iTMGoARHZBDYDY4WoT0LtPsEduzz/vXGbOmOF1Grz+2mv87a9/9ToN2+KxGPv1OsBJCO0iJbILagDELleagNatW9OyZUuTIZPqiccf5+WXnJ1+aNLdd93J5MmTvE7Dllgsxr7OGoDGQAtD6YiEjhoAccJ4E7DvfvuZCpV0K1eu5NprrvY6jW0kEgkuPP98Nm/e7HUqtRaPxei6e3eyc3KchOlpKh+RsFEDIE4ZbQJ69Ajuz+urrrzCySl2rlm9ejW33Hyz12nUWowYKSkpdO3W3UmYHqbyEQkbNQBigrFTBHv0CObP62/nzOHNN97wOo0qPfrIw/z0009ep1ErsVgCgC7dujkJ08lIMiIhpAZATDFyimBXZz/sPXP77f8kkUh4nUaViouLue/ee71Oo5asrY27dNvdSZD2RlIRCSE1AGLSm8AouxfHYjHatm1rMJ3kWLt2DW9NmOB1GtUaP/5ZSko8P+W55rYebdCxk6OH+HYGMhEJJTUAYtp3di9s3LgJ2dnZJnNJipdeesnIznsdO3XmbzffxrQZs/l+yUq+W7ycd96bzlVj/0rzFs7fjFi/bh1TJk92HCfZdmvdxsnlbdGhZyI7pQZATGts98LWbVqbzCNppkxyVlTj8ThXXDuWie9PZ9ToP9G+Q0cyMjLIysqi6+67c95Fl/LuzE8ZNfpPjnOdNGmi4xjJ1nK3Vk6OPM5CZwKI7JQaADGtid0LmzZpajKPpCgpKeGTT2Y6inHLnfdwwaV/ISU1tcqvyczM5G8338alV1wWsbXtAAAUY0lEQVTl6F4ffvCBo+u9kJGRQaPGtvtKcNCUioSZGgAxzfYP24aNGprMIynmzZtHQUGB7etPHn4ap5w6osZff8n/XUXfg/vbvt+SJUvYuGGD7eu90qChozMBHF0sElZqAMS0XLsXNmwQvAZg4YIFtq9NSU3l8muuq9U1sViMK8dcb/ueAAsc5OyV+g0aOLlcDYDITqgBENPS7V5Yp25dk3kkxYoVy21fe0CfA2nWvPY71e659z60bWf/7bYVK1bYvtYrDZw1h7abUpEwUwMgptluANLT00zmkRRbtuTZvrbnnvbPqum5l/1rg7gtcJazt0Ns/50UCTM1AGJaht0L09OD93O6sLDQ9rW59e0vTq/f0P4TcUGh/TULXsnIsP3XChz8nRQJMzUAYprtx/i0tOCNAGRlZdm+1slivA3r1tm+NjsreHstpKerARAxTQ2AiAO5ufbXLXz7zdf2r51j/9rc3OBNiaemVf2KZA0Er7MUSQI1ACIOtHawS92Xn33KT6tW1vq6r7/8nBXLltm+b5s2jnbW80Qs5mgzP+0EKLITagBEHOjcpYvta8vLy7nrn7fW6pqKigruuOUm2/cEZzmLSHioARBxoFu3btSpU8f29W+++grP/efpGn/9XbfdwuezZ9m+X8eOHalfv77t60UkPNQAiDiQlpZG374HOYrxjzHXcPftt1JaWvVJfQX5+Yy58nIeffBfju414NBDHV0vIuGhBkDEocFHDXF0fSKR4KH77mFQ/748/tADzP/hB/K2bGHjxg3M/XYO/7prHIf17cXLz493nOuQo452HENEwsHR0loRgeHDhnPt1VdTUlL1E3xNrFi2jNtvvoHbb77BUGbbatykCYMGDXIltogEj0YARBxq2KgRxw8d6nUa1Ro5clQg91oQEXeoARAx4Nrrxjg5s951mZmZXHrZpV6nISI+4t+fWCIB0r17d04+5RSv06jSRRdfQnMbBw+JSHipARAx5I5x46hXz/7+/m5p1aoV115Xu2OHRST81ACIGNKsWXPG3XmX12lsIx6P8+jjjzvaq0BEwkkNgIhBI0eNYuSoUV6n8ZtrrxvDYYcd7nUaIuJDagBEDHvgwYc44oiBXqfBsOHDGXv99V6nISI+pQZAxLD09HSee+EFDuzb17Mcjj32WB5/4klfv5kgIt7STwcRF+Tm5vL2OxM5+ujk77w3+pxzeOGll0lPT0/6vUUkONQAiLgkOzubV159jXF33ZWUDXgyMzMZd9ddPPjQw6SkpLh+PxEJNjUAIi6KxWJcfPElvPve++y5116u3eeQQwYw69PPuPjiS1y7h4iEixoAkSQ4oHdvPpk1m4cefoQOHToYi9uzZ0+ef+FFJk2ZQrdu3YzFFZHwUwMgkiQpKSmcPXo0c76by4svvcwxxxxja54+Ozub4aeeyoS33+bTz7/ghBNPJBaLuZCxiISZTgMUSbLU1FSOHzqU44cOJS8vjxkzPmbmjJnMn/cDCxcuZN269eTlbSEej1OnTl2aNGlMp86d6d59D/r170efPgeSmZnp9b+GiAScGgARD9WpU4fBg4cwePAQr1MRkYjRFICIiEgEqQEQERGJIDUAIiIiEaQGQEREJILUAIiIiESQGgAR8SXtbCDiLjUAIiIiEaQGQET8SbsbirhKDYCI+FI84XUGIuGmBkBE/EkjACKuUgMgIr6kA45E3KUGQER8Ka76L+IqNQBimu2/U3rik2384e9DSkqKk0hpjnMRCSE1AGJajt0LMzJ0xK38LuUPDUBGRoaTULb/ToqEmRoAMa2O3QuzsrJM5iEBF4//sQFw1Bza/jspEmZqAMS0unYvVAMgf5QS//3Hk8MRADUAIjuhBkBMs/3DNiNTUwDyuz+OAGQ6aw5tN6UiYaYGQEyz/cM2N1c/p+V38ViM+NZ1AI0aN3YSqpGRhERCRg2AmNbW7oUtWrQ0mYeEQGqqtfq/abNmTsJ0NpKMSMioARCTGgC2H9VatGhhMBUJg/St6wCaNmvuJEwbQPNLIttRAyAmdbF7YZ06dahbV1MAsq3KEYBmzZoTj9v+cRUHOprKSSQs1ACISbaHWlu21PC/7Ch9awOQmpZG4yZNnYSy3ZyKhJUaADHJ9g/ZTp00TSs7Sk2J/7ZDZOcuXZ2E2sNIQiIhogZATOpl98I9evQwmYeERCwWIyM1FYAu3bo5CdXfSEIiIaIGQExJBQ6ye3H37t0NpiJhkpFuNQCduzpqAA4C0k3kIxIWagDElP1xsAeAGgCpSnZGKjGgi7MGIBvr76iIbKUGQEwZYPfCjIwMujob3pUQi8fiZKSlsnuPnk63BD7EVE4iYaAGQEwZYPfC/fbf3+kPdgm57MwMMjIy2HOffZ2EGWQqH5EwUAMgJjTAQQPQr5/WZ8muZaWnkhqP06t3Hydh+gOtDKUkEnhqAMSEkwHbj/AHHWx77aBESJ2sDHr1PtBJiDhwqqF0RAJPDYCYcLrdC1NTU+nt7KlOIiI7M53eBx7odLroDFP5iASdGgBxqjXQz+7FBx/cj9zcXIPpSFjFgBZNGnJQ/wFOwuwFaNMJEdQAiHOn4+Dv0bHHH2cwFQm7zLQ0jjrmGKdhzjWRi0jQxbxOQAItDViEddparcViMRYsWkyrVlqXJTW39tdfad+2DeVlZXZDFADtgLXGkhIJII0AiBNnYrP4A+y7334q/lJrTRo3pm9fRwtHs4FLDaUjElhqAMSuFOBqJwGGDRtmKBWJmjPPPNNpiItwsHOlSBhoCkDsGg68aPfi9PR0Fv+4hMZNmhhMSaKioKCADu3bsWnjRidhrgHuMJORSPBoBEDsSAX+6iTAMcceq+IvtmVnZ3PqqY5f6R8DNDOQjkggqQEQOy7G4fnqZ48ebSgViaqzz3b8d6gecLuBVEQCSVMAUlvNgfmA7Zf3O3bsyJxv5xKP79h/JmIJKhIOsgMSTgMAFQlnMRIkcBiCRMJMDEfX4/z7QcKK40RFIsHOQpwy9Fg+mfGxk9AJ4GDgEydBRIIo1esEJHDG4aD4A4w+/yJ+3pRnKB2JsnMvusRpAxADHgB6AeVGkhIJCE0BSG0cgoNtfwGaNmvOCacMN5SORN3BhxxKjz33chpmH6wFgSKRogZAaqoh8AwOp43OOe8C0tPTzWQkApx/8WUmwtwA6FQqiRStAZCaiAFvAI727W3YqBEfzv6S7JwcM1mJABUVFZx41CDmfjvHaajlWKMB651nJeJ/GgGQmvgLDos/wGVXXqPiL8bF43HG/P1GE6HaYGCUSyQoUrxOQHyvF/A8Dv+udOzUmdvuunenK/9FnNqtdWv+N3cuPy5e5DRUF6AEcLSyUCQI1OnKrrQHZgItnAZ67D/jOWzgkc4zEmNKSko8WY9RVlpKfkG+oxiFBQWUlpRu82tLflzMOWec6vjVR6xXA88BnnYaSMTP1ABIVZoCM4DOTgPl1KnDGWeOpri4iKKiolpfX15WRl6+vdcGt2zabKsg5BfkU1ZaWv0XbqekpITCwoJaX1dRXkHeli21vg5gy5bNVFRU2Lo2PT2dNu3ac8SRQzjrT+e6tjvj57Nn8eL4Z5g1cwZr1/xioki7rQwYCrzjdSIiblEDIDtTB/jg/9u78xiryjOO498ZYO7cueMM4jDDLDA7zIzbIIuxLe6ABUmrsW3ahhptampDWrE0ptWobW2aihvaJl2iTRpTDWXfWhYH1FiBDgMuIIuA4gIF6oIwwzDM3P5xJDFEB+45z7nvXX6f5PzBH+e5Dze59/nN+557DjDWdSOSPAWxGL/+3UN87cabzGp2dXVx96yZLFk436xmEnUC1wDrXTciEgZdAyCni+Bd8T/BdSOSXD09PaxasZyyYeUWv62np+cEt3znW7StXmXQnRODgBuB1cABx72ImNMVWfJZEWA+MMl1I+LOfb+4i107tgeuM2f2g2x8Oe3vsDsELwC0um5ExJoCgJxyavhPdd2IuHWyp4c5Dwd7Su7hQ4f461/+aNSRc+fhhYDgyyIiKUQBQEDDX06zdvUqOo/5v1J/zcp/0t3dbdiRcyV4IeBC142IWFEAkDxgLhr+8hnd3d3s2rnD9/lbX3vVsJuUMRR4DoUAyRB6GmB201/+8oV2vXeUIfX5vs7df9jfTxrTwFBgDXA1sNVxLyKBKABkLw1/6VfnoCr2fhT1dW5uQZlxNymlFG8l4Gpgm+NeRHzTFkB20rK/9CsSjVFZf77v82tbMv4WEmV498rw/yaJOKYAkH0iwAIMHu4jmWvMlTcwKM/f8j9A64Rp5BecY9hRSirFuzBwlOtGRPzQjYCyi5b95Ywi0Ri3P/AMsaJzfdfIi0SJx+O80b7WsLOUdA7ezYKWAf9z3ItIQrQCkD00/OWMcnMHcOs9TzK0si5wranfu4vWCdMMukp5FXjbAYGfmyGSTFoByA4a/nJGxSXl/Og3zzL6cpuhnZOTw7hrbqLr2BHeeqM9HR4AFMSplYAlwAeOexE5K3oYUObT8JfPlReJEisaQnlNE60TrmfCtFuJRGOhvNZ7e7bx4tKneKO9jY8O7aev92SgegPzIuTlFwTu68gH/6W7K9ijiU/zLnAlsNuyqEgYFAAyWyjD/4qv/4ChlbUJnxc7x9+eciQaY8DAxJ9bP2DgIPILCn29ZkHhYMhJ/OMRyY8ycFAk4fNyBwwkP+bvormCWDE5udrN8+OdXa8ye8ZEjn5sun3/Dl4I2GNZVMSaAkDmygP+gfHV/jfcdj/Tbr3HsqSIUwoBkq30Z0Nm0vAXOUvDGy9i1hOrKCw+z7Qs3oWBwa+mFAmJVgAyj4a/iA/7dr7C7BkTOXbE9Bq+fXgrAXsti4pY0ApAZtHwF/FpxMiL+dnvVxErGmJaFlgHJH7RjEjIFAAyh4a/SEAjRrYy64mVYYSAtUCNZVGRoLQFkBk0/EUMvb1jMw/NmMSxTz40LYu3HfCWZVERv7QCkP40/EWMVY8azR2PLiMaKzIti/fsgErLoiJ+KQCkNw1/kZDUX3Apdz62wjoENOBtBygEiHPaAkhfGv4iSfDmay/zyE+mcLzzE8uyu/C2A963LCqSCK0ApCcNf5EkabjwMu6cs8L68caNeCsBFZZFRRKhAJB+NPxFkqzhwsuY+dhy6xAwEmgDyi2LipwtBYD0ouEv4kjjRV9i5qPLiET9PV/iC4zCWwlQCJCk0zUA6UPDXyQF7HrlJR65YyrdXUcty24HrgIOWBYV6Y9WANKDhr9Iimi8+MthrAQ04a0EDLMsKtIfBYDUp+EvkmJGtn6FmY8sJRKNWZZtAlYCJZZFRb7IANcNSL80/EVS1Hnl1dS2jGNT23x6e09alS0DrgPmAZ1WRUU+jwJA6tLwF0lxpZV11LaMo71tPn22IWAy3ue/y6qoyOkUAFKThr9ImiitqqfOPgQMAybhrQQoBEgoFABSj4a/SJopraqntnmsQoCkFQWA1KLhL5KmSqvqqWkew6a2BdYhYCLaDpAQKACkDg1/kTRXVtVATdMl3kpAX69V2XK8lQCFADGlAJAaNPxFMkTZ8AZqmseEEQJOrQQctyoq2U0BwD0Nf5EMUza8geqmS2hvW2AdAq5FIUCMKAC4peEvkqHKhjdSUddCx7pFxPv6rMpWAJfjfW90WxWV7KQA4I6Gv0iGq6hpprLufOsQMBy4Au/744RVUck+CgBuaPiLZImKmmYqa1vYtG4h8bhCgKQOBYDk0/AXyTIVtc1U1Dazad0i6xBwajtAIUASpgCQXBr+IlmqoraF8pomOp43DQEjgAkoBIgPCgDJo+EvkuUq61oorxlFx/OLrUOAVgIkYTmuG8gSoQz/626+98TkW+7tzYGoZV0RCVNOV8eaZ3Of/u3NEcM7BgK8CEwBjloWlcylABC+UIb/VdPv54pv6y9/kXT1+gtzWfDgdMv7BAC8gBcCjlkWlcykLYBwafiLyOcqrT6f4tJqdqxfCsStylYD4/AeIGS6vCCZRwEgPBr+ItKvYXUXM7h0BDs2LMMwBNQD41EIkDNQAAiHhr+InJVh9a0Ulw5np30I0EqA9EsBwJ6Gv4gkpLy+leKhVezcsByFAEkWBQBbGv4i4kt5/WiKSirZudE0BDQAY4H5KATIaRQA7Gj4i0gg5Q2jKSqpYOfGFYQQAuYBpj85kPSmnwHaiOAl7KmuG+lPfqyYIeX1NI6fyvjrbyc2uDSU1zn49lbal/+JPVue4+OD++g50RXK64hIQpYA30A3C5JPKQAElxbD/3R50UKm/HAOrRNvNqvZ13uS1U/9nA2LH7f+bbOI2FgEfBPocd2IuKctgGBygbkYL/snQ+/JE2xfv4T8wsFUNV0auF48HmfBg9PpWPkk8bjZ0qWI2GoCGoEFrhsR9xQAgvkp8GPXTQSxZ/MaGsZcR1FJZaA6G5f+gX/Pf9ioKxEJ0QXAQeA/rhsRt3JdN5DGCoG7XTcRVF9fL8/9LdhFhj3dnTz/9weMOhKRJLgPyHfdhLilAODfVGCw6yYs7N2ylqMfHvB9/u6O1XQeOWzYkYiErBS41nUT4pYCgH9jXTdgJR7vY//uLb7P3//mZsNuRCRJxrluQNwa6LqBNHau6wYs7dv20rLGsZO3+jn33R0bJgGjjVsSkXBl1HeYSDLNxrtTR6YcXw3wXvwqBfrXoUNHYscvkaymLQD/MukK2j6gI8D57VaNiEjS6HOb5XQjIP8KgX1kxjLaamBSgPOjeO9FiU07IhKyg0A1cNx1I+KO7gPg3wm8u2lNdt1IQCeB7wLvB6zRBUwx6UhEwjYLWO+6CZF0lot3G2DXe3lBDqsbGeUAz6TA/0eHDh39H0+j1V9BKwBBxYGFQBEwnvT6UB0BbgP+bFhzEVAAXIquLxFJNb3AQ3ihv89xL5ICFACC6wP+BSz+9N9FQIzU/InlR8DreEN/OvCycf043vUE8/Del2K8QDDI+HVE5OwcB94EngW+j7dKp+EvAPwftP1dfo45bMQAAAAASUVORK5CYII=;" parent="hI8DOcPEEPtuhdS6lUov-12" vertex="1">
          <mxGeometry x="-20" width="187.35" height="187.35" as="geometry" />
        </mxCell>
        <mxCell id="G4rwLLoVx2K-rOXY0CrV-147" value="&lt;div style=&quot;text-align: center;&quot;&gt;&lt;b style=&quot;background-color: initial;&quot;&gt;&lt;font style=&quot;font-size: 20px;&quot;&gt;Robot Arm&lt;/font&gt;&lt;/b&gt;&lt;/div&gt;&lt;div style=&quot;font-size: 16px;&quot;&gt;&lt;ul style=&quot;&quot;&gt;&lt;li style=&quot;&quot;&gt;&lt;span style=&quot;background-color: initial;&quot;&gt;Blade Casting&lt;/span&gt;&lt;/li&gt;&lt;li style=&quot;&quot;&gt;&lt;span style=&quot;background-color: initial;&quot;&gt;Cleaning&lt;/span&gt;&lt;/li&gt;&lt;li style=&quot;&quot;&gt;&lt;span style=&quot;background-color: initial;&quot;&gt;Transfer Samples&lt;/span&gt;&lt;/li&gt;&lt;li style=&quot;&quot;&gt;&lt;span style=&quot;background-color: initial;&quot;&gt;Reload&amp;nbsp;&lt;/span&gt;consumables&lt;/li&gt;&lt;/ul&gt;&lt;/div&gt;" style="text;html=1;align=left;verticalAlign=middle;resizable=0;points=[];autosize=1;strokeColor=none;fillColor=none;fontSize=12;" parent="hI8DOcPEEPtuhdS6lUov-12" vertex="1">
          <mxGeometry x="150.00000000000003" y="40.00000000000002" width="210" height="150" as="geometry" />
        </mxCell>
        <mxCell id="G4rwLLoVx2K-rOXY0CrV-187" style="edgeStyle=orthogonalEdgeStyle;rounded=1;orthogonalLoop=1;jettySize=auto;html=1;fontSize=14;strokeColor=#000000;strokeWidth=4;curved=0;" parent="1" edge="1">
          <mxGeometry relative="1" as="geometry">
            <mxPoint x="410" y="690" as="targetPoint" />
            <Array as="points">
              <mxPoint x="220" y="690" />
            </Array>
            <mxPoint x="220" y="650" as="sourcePoint" />
          </mxGeometry>
        </mxCell>
        <mxCell id="G4rwLLoVx2K-rOXY0CrV-198" style="edgeStyle=orthogonalEdgeStyle;rounded=1;orthogonalLoop=1;jettySize=auto;html=1;fontSize=14;strokeColor=#000000;strokeWidth=4;curved=0;entryX=0.5;entryY=0;entryDx=0;entryDy=0;" parent="1" target="G4rwLLoVx2K-rOXY0CrV-15" edge="1">
          <mxGeometry relative="1" as="geometry">
            <mxPoint x="350" y="160" as="targetPoint" />
            <mxPoint x="430" y="270" as="sourcePoint" />
            <Array as="points">
              <mxPoint x="224" y="270" />
              <mxPoint x="224" y="310" />
              <mxPoint x="223" y="310" />
            </Array>
          </mxGeometry>
        </mxCell>
        <mxCell id="G4rwLLoVx2K-rOXY0CrV-193" style="edgeStyle=orthogonalEdgeStyle;rounded=1;orthogonalLoop=1;jettySize=auto;html=1;fontSize=14;strokeColor=#000000;strokeWidth=4;curved=0;" parent="1" edge="1">
          <mxGeometry relative="1" as="geometry">
            <mxPoint x="1020" y="270" as="targetPoint" />
            <mxPoint x="1160" y="320" as="sourcePoint" />
            <Array as="points">
              <mxPoint x="1160" y="300" />
              <mxPoint x="1160" y="270" />
            </Array>
          </mxGeometry>
        </mxCell>
        <mxCell id="hI8DOcPEEPtuhdS6lUov-9" value="" style="group" parent="1" vertex="1" connectable="0">
          <mxGeometry x="399" y="582.0020351318567" width="315" height="213.69533177591097" as="geometry" />
        </mxCell>
        <mxCell id="G4rwLLoVx2K-rOXY0CrV-92" value="" style="rounded=0;whiteSpace=wrap;html=1;strokeColor=none;strokeWidth=5;fontSize=12;fillColor=#dae8fc;container=0;" parent="hI8DOcPEEPtuhdS6lUov-9" vertex="1">
          <mxGeometry x="153.1612903225806" y="55.791185587852056" width="87.09677419354838" height="27.788040792488427" as="geometry" />
        </mxCell>
        <mxCell id="G4rwLLoVx2K-rOXY0CrV-138" value="" style="rounded=0;whiteSpace=wrap;html=1;strokeColor=none;strokeWidth=5;fontSize=12;fillColor=#dae8fc;container=0;" parent="hI8DOcPEEPtuhdS6lUov-9" vertex="1">
          <mxGeometry x="56.38709677419354" y="55.791185587852056" width="87.09677419354838" height="27.788040792488427" as="geometry" />
        </mxCell>
        <mxCell id="G4rwLLoVx2K-rOXY0CrV-145" value="&lt;font style=&quot;border-color: var(--border-color); font-size: 20px;&quot;&gt;&lt;font style=&quot;border-color: var(--border-color); font-size: 20px;&quot;&gt;Non-Solvent-Induced&lt;br style=&quot;border-color: var(--border-color);&quot;&gt;Phase Separation (NIPS)&lt;/font&gt;&lt;font style=&quot;border-color: var(--border-color); font-size: 15px;&quot;&gt;&amp;nbsp;&lt;br style=&quot;border-color: var(--border-color);&quot;&gt;&lt;/font&gt;&lt;/font&gt;&lt;ul style=&quot;border-color: var(--border-color); font-size: 16px;&quot;&gt;&lt;li style=&quot;border-color: var(--border-color);&quot;&gt;&lt;span style=&quot;font-weight: normal;&quot;&gt;Phase separation to form membranes&lt;/span&gt;&lt;/li&gt;&lt;li style=&quot;border-color: var(--border-color);&quot;&gt;&lt;span style=&quot;border-color: var(--border-color); font-weight: normal;&quot;&gt;Remove residual solvents and anneal&lt;/span&gt;&lt;/li&gt;&lt;/ul&gt;" style="text;html=1;align=center;verticalAlign=middle;resizable=0;points=[];autosize=1;strokeColor=none;fillColor=none;fontSize=12;fontStyle=1;container=0;" parent="hI8DOcPEEPtuhdS6lUov-9" vertex="1">
          <mxGeometry x="-15" y="83.69533177591097" width="330" height="130" as="geometry" />
        </mxCell>
        <mxCell id="G4rwLLoVx2K-rOXY0CrV-96" value="" style="rounded=0;whiteSpace=wrap;html=1;strokeWidth=3;fontSize=12;fillColor=#808080;gradientColor=none;strokeColor=none;container=0;" parent="hI8DOcPEEPtuhdS6lUov-9" vertex="1">
          <mxGeometry x="162.83870967741927" y="76.97515611662698" width="67.74193548387096" height="6.604070263713552" as="geometry" />
        </mxCell>
        <mxCell id="G4rwLLoVx2K-rOXY0CrV-97" value="" style="rounded=0;whiteSpace=wrap;html=1;strokeWidth=3;fontSize=12;fillColor=#FFD966;strokeColor=none;container=0;" parent="hI8DOcPEEPtuhdS6lUov-9" vertex="1">
          <mxGeometry x="173" y="74.14484028932122" width="47.41935483870967" height="2.8303158273058084" as="geometry" />
        </mxCell>
        <mxCell id="G4rwLLoVx2K-rOXY0CrV-89" value="" style="shape=image;html=1;verticalAlign=top;verticalLabelPosition=bottom;labelBackgroundColor=#ffffff;imageAspect=0;aspect=fixed;image=https://cdn3.iconfinder.com/data/icons/weather-free-2/32/Weather_Free_Outline_warm-termometer-weather-hot-temperature-128.png;strokeColor=#94c1ff;strokeWidth=5;fontSize=12;fillColor=#B3B0B0;gradientColor=none;container=0;" parent="hI8DOcPEEPtuhdS6lUov-9" vertex="1">
          <mxGeometry x="178.32258064516122" y="15.566737050181928" width="34.69419401213571" height="34.69419401213571" as="geometry" />
        </mxCell>
        <mxCell id="G4rwLLoVx2K-rOXY0CrV-81" value="" style="endArrow=none;html=1;rounded=0;fontSize=12;" parent="hI8DOcPEEPtuhdS6lUov-9" edge="1">
          <mxGeometry width="50" height="50" relative="1" as="geometry">
            <mxPoint x="153.1612903225806" y="83.57922638034051" as="sourcePoint" />
            <mxPoint x="153.1612903225806" y="37.26582505952649" as="targetPoint" />
          </mxGeometry>
        </mxCell>
        <mxCell id="G4rwLLoVx2K-rOXY0CrV-82" value="" style="endArrow=none;html=1;rounded=0;fontSize=12;" parent="hI8DOcPEEPtuhdS6lUov-9" edge="1">
          <mxGeometry width="50" height="50" relative="1" as="geometry">
            <mxPoint x="240.25806451612902" y="83.57922638034051" as="sourcePoint" />
            <mxPoint x="240.25806451612902" y="37.26582505952649" as="targetPoint" />
          </mxGeometry>
        </mxCell>
        <mxCell id="G4rwLLoVx2K-rOXY0CrV-83" value="" style="endArrow=none;html=1;rounded=0;fontSize=12;" parent="hI8DOcPEEPtuhdS6lUov-9" edge="1">
          <mxGeometry width="50" height="50" relative="1" as="geometry">
            <mxPoint x="240.25806451612902" y="83.57922638034051" as="sourcePoint" />
            <mxPoint x="153.1612903225806" y="83.57922638034051" as="targetPoint" />
          </mxGeometry>
        </mxCell>
        <mxCell id="G4rwLLoVx2K-rOXY0CrV-142" value="" style="shape=image;html=1;verticalAlign=top;verticalLabelPosition=bottom;labelBackgroundColor=#ffffff;imageAspect=0;aspect=fixed;image=https://cdn3.iconfinder.com/data/icons/weather-free-2/32/Weather_Free_Outline_freezing-termometer-weather-cold-temperature-128.png;strokeColor=#94c1ff;strokeWidth=5;fontSize=12;fillColor=#B3B0B0;gradientColor=none;container=0;" parent="hI8DOcPEEPtuhdS6lUov-9" vertex="1">
          <mxGeometry x="81.5483870967742" y="15.566737050181928" width="34.69419401213571" height="34.69419401213571" as="geometry" />
        </mxCell>
        <mxCell id="G4rwLLoVx2K-rOXY0CrV-143" value="" style="rounded=0;whiteSpace=wrap;html=1;strokeWidth=3;fontSize=12;fillColor=#808080;gradientColor=none;strokeColor=none;container=0;" parent="hI8DOcPEEPtuhdS6lUov-9" vertex="1">
          <mxGeometry x="66.06451612903226" y="76.97515611662698" width="67.74193548387096" height="6.604070263713552" as="geometry" />
        </mxCell>
        <mxCell id="G4rwLLoVx2K-rOXY0CrV-144" value="" style="rounded=0;whiteSpace=wrap;html=1;strokeWidth=3;fontSize=12;fillColor=#FFD966;strokeColor=none;container=0;" parent="hI8DOcPEEPtuhdS6lUov-9" vertex="1">
          <mxGeometry x="76.22580645161287" y="74.14484028932122" width="47.41935483870967" height="2.8303158273058084" as="geometry" />
        </mxCell>
        <mxCell id="G4rwLLoVx2K-rOXY0CrV-139" value="" style="endArrow=none;html=1;rounded=0;fontSize=12;" parent="hI8DOcPEEPtuhdS6lUov-9" edge="1">
          <mxGeometry width="50" height="50" relative="1" as="geometry">
            <mxPoint x="56.38709677419354" y="83.57922638034051" as="sourcePoint" />
            <mxPoint x="56.38709677419354" y="37.26582505952649" as="targetPoint" />
          </mxGeometry>
        </mxCell>
        <mxCell id="G4rwLLoVx2K-rOXY0CrV-140" value="" style="endArrow=none;html=1;rounded=0;fontSize=12;" parent="hI8DOcPEEPtuhdS6lUov-9" edge="1">
          <mxGeometry width="50" height="50" relative="1" as="geometry">
            <mxPoint x="143.48387096774195" y="83.57922638034051" as="sourcePoint" />
            <mxPoint x="143.48387096774195" y="37.26582505952649" as="targetPoint" />
          </mxGeometry>
        </mxCell>
        <mxCell id="G4rwLLoVx2K-rOXY0CrV-141" value="" style="endArrow=none;html=1;rounded=0;fontSize=12;" parent="hI8DOcPEEPtuhdS6lUov-9" edge="1">
          <mxGeometry width="50" height="50" relative="1" as="geometry">
            <mxPoint x="143.48387096774195" y="83.57922638034051" as="sourcePoint" />
            <mxPoint x="56.38709677419354" y="83.57922638034051" as="targetPoint" />
          </mxGeometry>
        </mxCell>
        <mxCell id="hI8DOcPEEPtuhdS6lUov-10" value="" style="group" parent="1" vertex="1" connectable="0">
          <mxGeometry x="730" y="582" width="306.33" height="203.35454999999993" as="geometry" />
        </mxCell>
        <mxCell id="hI8DOcPEEPtuhdS6lUov-6" value="" style="group;strokeColor=#94c1ff;strokeWidth=4;container=0;" parent="hI8DOcPEEPtuhdS6lUov-10" vertex="1" connectable="0">
          <mxGeometry x="7.16" width="291.84" height="199.3" as="geometry" />
        </mxCell>
        <mxCell id="ESt_-W5ADQbBedNpq2sp-1" value="" style="shape=mxgraph.signs.tech.camera_2;html=1;pointerEvents=1;fillColor=#000000;strokeColor=none;verticalLabelPosition=bottom;verticalAlign=top;align=center;container=0;" parent="hI8DOcPEEPtuhdS6lUov-10" vertex="1">
          <mxGeometry x="101.63166666666667" y="26.60655000000005" width="85.73666666666666" height="61.783" as="geometry" />
        </mxCell>
        <mxCell id="ESt_-W5ADQbBedNpq2sp-3" value="&lt;font style=&quot;border-color: var(--border-color);&quot;&gt;&lt;font style=&quot;border-color: var(--border-color);&quot;&gt;&lt;span style=&quot;font-size: 20px;&quot;&gt;Vision Module&lt;/span&gt;&lt;br style=&quot;border-color: var(--border-color);&quot;&gt;&lt;/font&gt;&lt;/font&gt;&lt;ul style=&quot;border-color: var(--border-color); font-size: 16px;&quot;&gt;&lt;li style=&quot;text-align: left; border-color: var(--border-color);&quot;&gt;&lt;span style=&quot;font-weight: normal;&quot;&gt;Take pictures under controlled lighting&lt;/span&gt;&lt;/li&gt;&lt;li style=&quot;text-align: left; border-color: var(--border-color);&quot;&gt;&lt;span style=&quot;font-weight: normal;&quot;&gt;Segment and analyze&lt;/span&gt;&lt;/li&gt;&lt;/ul&gt;" style="text;html=1;align=center;verticalAlign=middle;resizable=0;points=[];autosize=1;strokeColor=none;fillColor=none;fontSize=12;fontStyle=1;container=0;" parent="hI8DOcPEEPtuhdS6lUov-10" vertex="1">
          <mxGeometry x="-23.67" y="93.35454999999993" width="330" height="110" as="geometry" />
        </mxCell>
        <mxCell id="xoyEL0j7F7SFWpHzrwaf-6" style="edgeStyle=orthogonalEdgeStyle;rounded=1;orthogonalLoop=1;jettySize=auto;html=1;fontSize=14;strokeColor=#000000;strokeWidth=4;curved=0;exitX=0.99;exitY=0.115;exitDx=0;exitDy=0;exitPerimeter=0;" parent="1" source="ESt_-W5ADQbBedNpq2sp-3" edge="1">
          <mxGeometry relative="1" as="geometry">
            <mxPoint x="1040" y="690" as="sourcePoint" />
            <mxPoint x="1160" y="650" as="targetPoint" />
          </mxGeometry>
        </mxCell>
        <mxCell id="xoyEL0j7F7SFWpHzrwaf-17" value="" style="group" parent="1" vertex="1" connectable="0">
          <mxGeometry x="430" y="220" width="212.65" height="130" as="geometry" />
        </mxCell>
        <mxCell id="xoyEL0j7F7SFWpHzrwaf-18" value="" style="group;strokeColor=#94c1ff;strokeWidth=4;container=0;" parent="xoyEL0j7F7SFWpHzrwaf-17" vertex="1" connectable="0">
          <mxGeometry width="212.65" height="130" as="geometry" />
        </mxCell>
        <mxCell id="xoyEL0j7F7SFWpHzrwaf-19" value="" style="curved=1;endArrow=classic;html=1;rounded=0;fontSize=14;" parent="xoyEL0j7F7SFWpHzrwaf-17" edge="1">
          <mxGeometry width="50" height="50" relative="1" as="geometry">
            <mxPoint x="166.02000000000004" y="94.11077431539181" as="sourcePoint" />
            <mxPoint x="106.02000000000004" y="50.000764872521216" as="targetPoint" />
            <Array as="points">
              <mxPoint x="176.02000000000004" y="73.607941454202" />
              <mxPoint x="156.02000000000004" y="50.000764872521216" />
            </Array>
          </mxGeometry>
        </mxCell>
        <mxCell id="xoyEL0j7F7SFWpHzrwaf-20" value="" style="shape=cube;whiteSpace=wrap;html=1;boundedLbl=1;backgroundOutline=1;darkOpacity=0.05;darkOpacity2=0.1;fillStyle=solid;strokeColor=default;strokeWidth=1;fontSize=14;fillColor=#808080;gradientColor=none;size=20;container=0;" parent="xoyEL0j7F7SFWpHzrwaf-17" vertex="1">
          <mxGeometry x="31.32" y="50.00076487252127" width="87.35" height="29.178470254957514" as="geometry" />
        </mxCell>
        <mxCell id="xoyEL0j7F7SFWpHzrwaf-21" value="&lt;font style=&quot;font-size: 20px;&quot;&gt;Clean Coupon&lt;/font&gt;" style="text;html=1;align=center;verticalAlign=middle;resizable=0;points=[];autosize=1;strokeColor=none;fillColor=none;fontSize=20;fontStyle=1;container=0;" parent="xoyEL0j7F7SFWpHzrwaf-17" vertex="1">
          <mxGeometry x="31.32" width="150" height="40" as="geometry" />
        </mxCell>
        <mxCell id="xoyEL0j7F7SFWpHzrwaf-22" value="" style="shape=cube;whiteSpace=wrap;html=1;boundedLbl=1;backgroundOutline=1;darkOpacity=0.05;darkOpacity2=0.1;fillStyle=solid;strokeColor=default;strokeWidth=1;fontSize=14;fillColor=#808080;gradientColor=none;size=20;container=0;" parent="xoyEL0j7F7SFWpHzrwaf-17" vertex="1">
          <mxGeometry x="88.67000000000002" y="85.41152974504243" width="87.35" height="29.178470254957514" as="geometry" />
        </mxCell>
        <mxCell id="xoyEL0j7F7SFWpHzrwaf-23" value="" style="shape=cube;whiteSpace=wrap;html=1;boundedLbl=1;backgroundOutline=1;darkOpacity=0.05;darkOpacity2=0.1;fillStyle=solid;strokeColor=none;strokeWidth=1;fontSize=14;fillColor=#fff2cc;size=30;container=0;" parent="xoyEL0j7F7SFWpHzrwaf-17" vertex="1">
          <mxGeometry x="102.34999999999997" y="90.55789423984888" width="60" height="11.80358829084042" as="geometry" />
        </mxCell>
        <mxCell id="xoyEL0j7F7SFWpHzrwaf-25" style="rounded=1;orthogonalLoop=1;jettySize=auto;html=1;fontSize=14;strokeColor=#000000;strokeWidth=4;" parent="1" edge="1">
          <mxGeometry relative="1" as="geometry">
            <mxPoint x="740" y="690" as="targetPoint" />
            <mxPoint x="710" y="690" as="sourcePoint" />
          </mxGeometry>
        </mxCell>
        <mxCell id="xoyEL0j7F7SFWpHzrwaf-28" style="rounded=1;orthogonalLoop=1;jettySize=auto;html=1;fontSize=14;strokeColor=#000000;strokeWidth=4;" parent="1" edge="1">
          <mxGeometry relative="1" as="geometry">
            <mxPoint x="640" y="274" as="targetPoint" />
            <mxPoint x="707" y="274.38" as="sourcePoint" />
          </mxGeometry>
        </mxCell>
        <mxCell id="xoyEL0j7F7SFWpHzrwaf-29" value="" style="group" parent="1" vertex="1" connectable="0">
          <mxGeometry x="710" y="220" width="305.76" height="172.14999999999998" as="geometry" />
        </mxCell>
        <mxCell id="G4rwLLoVx2K-rOXY0CrV-185" value="" style="group;strokeColor=#94c1ff;strokeWidth=4;container=0;" parent="xoyEL0j7F7SFWpHzrwaf-29" vertex="1" connectable="0">
          <mxGeometry width="305.76" height="172.15" as="geometry" />
        </mxCell>
        <mxCell id="o0EWwWn2LoLAqotdVzDQ-1" value="" style="shape=image;verticalLabelPosition=bottom;labelBackgroundColor=default;verticalAlign=top;aspect=fixed;imageAspect=0;image=data:image/png,iVBORw0KGgoAAAANSUhEUgAAAYoAAAE3CAYAAAC0Kga7AAAAAXNSR0IArs4c6QAAAARnQU1BAACxjwv8YQUAAAAJcEhZcwAAFxEAABcRAcom8z8AAJkJSURBVHhe7Z0FoFRFF8cxPltBFETELkQRBBG7EUEBuzBoBMEWAwNsMcGgBCyQEkSQDpFGKelQujsf8d493/zOvfP2vt739gEv5g/zdnfu7Nx7Z3fPf845M+cUEAcHB4eDjL1790q/fv2kWrVqUrVqVVm9enVw5OBi165dsm/fvuBV7PA8L3iWu+CIwsHBIUdg/vz5ct9998mTTz4pe/bsCWpTIjPCNhbB/Pfff0vz5s31uvI7HFE4ODjkCKxYsUI1is8++yyoiSCzAj89oklISAieRRAfHx88i+Ddd9+VGjVq6HVlJ1I7P0irPifAEYWDg0OOwPTp0+Waa66RgQMHBjUiq1atkl69eknbtm2lU6dOMnfuXNm9e7dMnDhR+vTpI+vXr5eRI0fK2LFjtf2GDRtkyJAh8uOPP+r7/vvvP9m2bZseg2ymTp0qP/zwg/Ts2VM2bdqkdf/884/89NNP8vXXX6sWAXjPo48+qmXWrFkpiGfnzp0ybtw4+f3332XLli2yZs0aPd/48eNV4C9YsEB69OghEyZMSCQ5+hw+fLh07NhRRo8ereY2sGjRIunatat8+eWX0q1bN1myZInExcXpPQ0aNEjNX1u3btXnAwYMkM2bN+v7DiQcUTg4OOQI/Pbbb3LVVVfJwoUL9TUClFn9hx9+KHXr1pULL7xQBfpff/0ljz/+uNx4440qXO+44w755JNPZOnSpdr2m2++kfbt20ulSpXk7rvvVuG6fft29YG0adNGWrZsKeXKlZP+/fvLpEmT9L3t2rWTu+66Sz766CMVzL1795bSpUvLLbfcIu+9914Snwk+Cwjlnnvukdtuu037Rfhfcskl8vzzz8sff/whH3zwgV4v1w94P+fo0KGDPPjgg3pdK1eulHnz5smbb76p1/TYY4/J5ZdfrsQHCVWvXl3vDfL5+eef5frrr9frgYQONBxRODg45Ahgcrr33nt1xozWgNB+5pln9BgkguD8888/Vat49dVX5eqrr5bGjRvrzJ1ZP6TxwAMPyI4dO/Q9Tz/9tLZB+2A2DrnMmDFDZ/WVK1dWreK5556T77//XtsjtCEhZv4QRYUKFZR4mNlDNBZoF4sXL5aXXnpJypYtq9c5bNgwdcJDAGg+v/zyi1x33XX6iPYB2dCefl5//XV54okntA+ukftGC+F6ICsIEu2qSZMmSg5fffWVai516tSRRx55RLWXAw1HFA4ODgcdEEODBg3klVdeUaEJGTDzhiDAyy+/rIIecxFA2CLImX0DBHD9+vVV8AOEM1oIM3vQqFEjJSFMPNQhwJctW6ZtbrrpJp35I4ytWQdygJgglrTQokULufTSS1UrQWOAGNAKMJehVUBGCP1p06apwOceME+9/fbbqpHwPnwgPGKewokPcXD/mKV4DhFBjpBf7dq1VfOwJqsDCUcUDg4OBx0IV2bk3377rb7GLIRZZ+3atUoal112mQpJgKCERJihQzAAYoAkMDchhLH1I2hnzpypfWOmwiw0ePBgmT17tr4HYOJ59tln9VycA9MWwHSF0F++fLm+Tg5m9TVr1tQ+AT6Ha6+9Vq8btG7dWt9vzViYlDA9jRo1KlEjoA3Cn9djxoxRUxcmLIBZCqJ66qmn1NHONUM83bt31+MHGo4oHBwcDjomT56s9ncELqafzz//XB5++GH1V7zzzjvqU7BC/N9//1VS6du3r762wCmN5oBZB4GLKQlgeipVqlSidgI2btyoq5kw8TCDh1BuvfVW1VRA06ZN1eyFMxxHcvJVV/R55513qoYA8H1ADPSJaYpraNWqlRLZp59+qloLpAcgOjQgrrVZs2aqteCnwKcBcQGc4NwjxAYgPsxS9viBhiMKBweHgw5MQueff75qDZht8EEww2e1E6SBoMU0hSMX5zFCHX9CcnTp0kWdyvghLCADZuuQAAIYHwIOblZXcR5Igxn9Cy+8oI+QAk5kzEU4xlmFlJwoIKKbb75ZCQZwbS+++KKSBNoA58OsNXToUF1NhYmKVVojRozQ15AYZMI58FHg5zj33HPVLIbvAr8JS4XpC7z11lt6X/g6OH6g4YjCwcHhoAPBjQ8CxzRLXjGx4LzFjISjmpk3whNtA//Cxx9/rO0sENCQwBtvvCFlypSR22+/XW37gFk9DmE28+EnQBNhds9xtBbMOzjCORdmHlY1vfbaa2qSYjmtNW9ZQBoIfQQ8y1i5Jp7bZb1oFWgXXCOmK/wU9MW5WGHFKiZMZV988YWee8qUKapJ4aOwfhJWOXHNdn8HxMT4QDzWWX8g4YjCwcHhoAPhxx4Iu18B2z4zfYCwxIltjyGYw6uQaNu5c2fdRT1nzhwVxBAFWgjaBECgs3wWwW2dwRAA2gL2/zDpQAScj/0RaQFBTwFcH9dkrw+iWbduXZJrRPhDGOHzYNKyznOuhXNaYqA/2z/gNeOTXLM5UHBE4eDgkKuBoMeJ/euvvwY1ok5j9mR89913QU1SpCVwD5YgDiMnXENyOKJwcHDI1cBvUaVKFXUas8IJsxImLMw6mI4cYocjCgcHh1wNzDU4r3Emv//+++oAxxSFb8Mhe+CIwsHBIU8Amz6OZPwD2Rka3MERhYODg4NDBnBE4eDgkOeAQzgnOoVzKxxRODg45Dg4IZ+z4IjCwcHhgCM1IiBcB7uy2VOQnURBX8RTItAfG/vS2x9hweoplt2y/yI7QD/0F+uuau6F8CHZnUwpIziicHBwOOhgMxoB9ojHlJojOkwcqZFIesTCMSK4koSIMOCQQBipvZdQGrVq1UoUyGwIJCUqm/syAv0RmZbwG7ZvVmARvZaQILGCpb8ETwxv6NvfcETh4OBwUMHuZCK9Evwvq8IvPaIA7Gx+6KGHNP4SO6IzApoHgfggCIIGEp+JfRmsqMoIBC0kjlN4AyA7wolIS0jxWEE03Xr16mkQxAMFRxQODg4HFQhQssXZaK8WCH8Eddj8w4w+nI+BsBk2FhMC3YbRALS12gnvIWw3sZZsmAzAezFFhesA76M/AHmRMIjAf/ZcFlwfhfPaPojXREBDG2sKcC/hawNcEySZvE/a2nMDnodfQ3rEfWLXefLr3l9wROHg4BAVPPOPv0aSBc8zBkJP/5lHI/Ko0XoLTDREamXG7rfxwayf3A5oGkR1Jdw3O7AR1gQIZPc1cZrIScHMn1k8EVghAhtUEFMTubMBpi1yUhBQECB4md2zm5s+icpKnwheIrwS9psggVwTUWqJ8krocUtmkBBBAAlFznlIuISPBVIjMRH5JzCjEZ8J8xUmJwL7WVKgH+oINc79Ydbi3Pgf0KxIyMQ5CGCISY5rsoDEGBfuPRwPan/CEYWDg0OGMHNcLdkNhCmZ4cImGWz7CH2EPMKVTHbMnmnbsGFDDdlNEiDasBubFKIQDURAIYw4ryEgNAE0BvI6EJrcngchT0RXBDMhzitWrKh2f3wJRK29+OKLNX0qpENE2lNPPVWz0aH9oEGw85tzE5YcM5DNZofDnPSrF110kRIaWgXvueKKK1QLgHjwlyD8uW7aQ0IENCSAIefi/shlQa4LiIRcGuTatoDkeD9Jj6JxzGcHHFE4ODhEBYgiwYsUL8Wjrznw2ha/bXxiO7SLMBCIJORBOwDMqhGK999/vwpeEgIRHtyG+2aGzrFrrrlGNQkEJSYcVhMhiMnZAClg5kFQkwmPKLSEEceZzOwe4Q+BWOELMZH7AcFPX4QMJ2kQuSYQymSo43xoGMzgSTSEFmETIaFpQGAQCH1zveS+wGnOddAP50bToH80CM5ltQvyfpMtD42GcOMQI31CMuTegIRsAiPA+yAniCIaf0t2wBGFg4NDVNi8baP0HNxJfuj3tfzUv610NcV//EYfewzqpKXbgHZ6TI8P8Nt83+9L6TmkkyxeuTDozQczaRzMCEkAEZDLAcGJZgCRkK8hDAQt5GKT+gCczAhjzEiQDQIZ4Q1Z4GNAGGMmQpgTF+qGG25QwQ8gKfrD5AN4D6YdO1tHq4Fw8A0ANB37GpMYmflIrgQgBzLfhR3ZnIc6hD1h0Il0a0kKYiXXN5oDpibyTZDpjnhVgHPjW7FECiA+tCXGLrl/Y3/BEYWDg0NUWLV2qTz73iNS97Wq0uD16lL/DUo1fWzwZg25o2EZqVzvYqljjjc0r7WeYtrWfuV2eeb9h2TSP6OD3nywDBUhblcTYavHTIPQ5jmCNAxm9BALgj2c24EVQAhPEgoBzDu8ZikpAh0NAaELENLkqrDCl4RHCHLMURAJGosV5GgUEAcaAtfC+cmKh0aAr4Drx3FtfQiYssJ5MACaD/1zvaymgqQgBACJEfmWJEaQG5oPxANx0j+JliCtsDMb4rzyyisTNZoDAUcUDg4OUWGfmalv2LRO1m1YZcpqWb+JssqUNbJ+81p568vG8sJHj8uCJbNl45a1enzdRtN242pZawrtdu9Jug8BIYoZhaRCAAFbtmxZdeYCZuxsVGMWzWwdZzQmF/wAtEHYMxNHUGM+oj2zbKLIolFAQPRJzm2EP87z1q1by7XXXqtLVgGZ5PBLsAIJ0sCXgQ+E1yQTgmSYvUNGXAvnR6tB2GNmIiUqGgQkgraBnwRC4Nqog2QgAzb9kaUPIW+JAnKCmDBncd1NmjRJzNuNgx4tCVLCZGZXOGHCYvlt8v0g+xOOKBwcHLIFH3VsJm+0biRbdmwKajIGphh8CzZvBMKVGTmb3XAYI9QxFUEo1LFKCQfybbfdpkIUwYsw5zhkgAkIxzeObtsny1VxLiOEJ0+erCYgHMiYtfA/tGjRInEp608//aREhXBGUCOg8RmgwUBSCPQHHnhArxFnNO8lQRLXBZlxvfhJyHFNW0xpmNHoA3JA44DQIMchQ4bo+9GC0BggS0jJrswaN26calf4U3gOeD/kxHsPJBxRODg4ZAs+6PCiNP+8oWzaGjEJZQTMK8z+EdA4fnnNaiMENfUsTWUmTR1Clc1mAGLA7IPDG5MNz1mSilmIVUzM3i0gIxzUEA59sYSV97PCCC0DZ7MFZh2EPoIZ4Y2fAo2D5bZoB7yXfNaQEWYqNBD8CVwHgMR4PyQB0Ha4Hsxe9pqGDRumGgqkxvutpoC206VLFyUngHbEdWNi4rwQF5v+0HYOlG/CwhGFg4NDppDcb2DxYYeXDFE8GRVRhPtgfwSz6PAKnrBNHqR1TsBMHmcwgj85eF9a74Vgkp8ns0jvutKDdbiHkdG1oAmhZR2oJbFhOKJwcHDIEEmXtfI8pYD8sP1L8rohio1JiCJomyhQU74PQBLJBWe0YKMbS0itszqvAkI80JqEhSMKBweHjKHynRkvlJG6sMf09PrnDWXL1qQ+Cr99uGQvxo8fryuPcAw77B84onBwcMgQPj0YovAi5pG98btl6brZMmpOT+k+oZW80PEOeabd7dJ9/KcyadFgWbt1iW60i8D0kUVTTXpgsx0b03AcO+wfOKJwcHCIAj5VWCxeP1u+H/OuvNajmjTqfJXU73iZNOhUXup/e7mWpt9fJ+/0fUj6T+som3ZEHMvszc5OpOeDcMg+OKJwcHCIGvEJ8UZbGCRv9bpf6hlyqNX+UqljSv0O5aThtxWkgSGJuh1MfcfSUtvUP9mporQZ8rQs3eCvVoJwHHIfHFE4ODhEiQQliRe6VZba7Qw5oEUYYmjYyRRDEg15boupU9JoX8YQRmn5eEB9WbZhTtCPr5845B7kGKJw6qODQ87G4nWz5M1e9xotorQhifJJiSGtYgijbgdDFoZY2o98VbbH+Us7fUOW+83nFjiNwsHBIUPs3rdTuo79QOp1uCx6kjClgZqjKhiiKC1Nv7tORs/1dx37cESRW3DQiYKAXQdrbbCDg0N0WLxutrzSvarRDspKg9RMTWmUBh0NUXSqIPW/LS+12l4sXw97VrbvthvGHFHkFhxUomBLPPHm2Z7v4OCQc/HHnF4q8NEo8D2obyKKgjbR0LyvQacr5PG2peS1HtVl4eppQa+OKHILDipRkG3qvPPOk4cfflgjNTo4OOQk+IKcxEM9JnwidYw2UY/VTR3LB0QRjVYRaYNTu+l318ukhelvjPP9lWEfhvNnHGwcNKLA3PTaa69JgQIF5OSTT9YIjw4ODjkJvnDet2+3dBrV3BDFpVJPSaK8kkVSQsi41O1YVhp3uVL+nOf7Kfbs3S1bd22ULbs2yN74OK2LwFCD7pFIfOU/cTgoOGhEwbZ78tJCFBRivDutwsEh5yE+fq9892dLqdOxjDqyMUFFb3ryN+DxyL6Lxl2uki6j35SB0zrJt4Z82gx+1pSm0umP5vLrX1/LzOVjZdfeHcGZgU8YfvgQh4OFg0IUhMwlzO6hhx6aSBSnnHJKkrywDg4OOQf9prb3Vzx9W853ZhuyiMb0FCYKHht2qqi7tjn2RLtS8njbi+QJLaWkntFUmnWvIh0NgcxbHUl/qkRhVQuHg4KDQhQkD7ngggsSScIWsjaRhMTBwWF/AYHrl+Sid+fuLTJ/9d8yfkF/GTmrh/w5r49MXzFWNsz5Sya3fEyatr5U6mqYjsyZnSLaB6uf2FdRVuqzesr0Q18cb2A0lbrs9G53idRqe4m80esevQ7PxopyRHFQccCJgnDC5KA999xzNWn46aefrhmiyG+LYzuclNzBwWF/AOEbEbybd66TkXN6yOcDG8nLP1eVpj/cIE91uUaafHetvPBzZXmvy53S/ulS8vwXZaSe0SashpCcELKr1DeaCyukXupWRSYvclaGnIADThRkgiKR+NixY7WQdvDJJ5/U7E1kkSJ7FJmjHBwcsh8aATZk75+36m/5fNBT0qjL1boqiVKrQxmpo6E3yugubN2J3Z7VTr4gb2Ae9ydRUNA0HjNk8W7fx2TJehsnyuFg4YATBf4JSwQkKy9Tpow0btw4MWnJ9u3bE1MDOjg47D/8s3yMhuRg13QdQw5oCvWJ0dTR9z2oSUjNRRWkXhfzyDFKcCy5cM/OQv+YqAj/0WPCpxqM0OHg4aD4KCxIfn7ppZeqRsHmOwcHhwODlZsWyfv9HlWSqN/RRn69QkkBIe0/RgiDx+QmpwbmfRT7OnmJhUzsezFBvdPnYVmxcWFw5Q4HA44oHBzyGeKI2zTuQ12umrqgT+asTqZF8PikIZEnOxti6VhWnsABbUoDVkSZUrs9r0ub/tMmkYyKv7LqckNkZaTp99fLpEUue93BhCMKB4d8hkVrpsmLXW9T0471O2Sm6IY78/hu35rSdvhL8nrPu+VpI8wbdrzCHLtCnvnxJnm7T01duZT8vdEWS0zsBK9rSv+pHYKrdzgYcETh4JCf4HkyYGpHwVms4ThCwjnaAlFgsmo9pKms3rpElm2YJ38tHiqvdawpL35zv4yf/7us3rJU+v3dTtv6pq3U+0qr8D6Igg1+ONN7Tvo8uAGHgwFHFA4O+Qh79sZJx5GvqpMYAW61g8wWIsG+3utuWbR2etCzyIcdXpbXv3hKtu/Ypq8HTe+sGktWiIJSvxM+k/K6I7zv319rnw4HB44oHBzyEbbFbZbPBjb2A/yZ2fqTqQjo9Ir1U6BRvPhTZZm25I+gZ4jiRWn+RQPZuHW9vh6/4Dd5qvPVui/CN3FFT0q+6amCXmejzldq9NposW/fPl1F6ZKh+fvWVq9eHXMqB0cUDg75CNviNsmnvzc0AtgmIIpOeKsZKCi8hihe6FpJpi4eGfRsiKLjS/J664ayaYtPFP+t+0de6lpZgwH6fQQBBYM+Mir1O1XQ0B6vdK8m81dN1T4zwp49e6Rr164acJQ9WwcKkNLKlStl/vz5smvXrqA2e+AHR8wc6XENP/74o9x9991y2223yfDhw4MjWYMjCgeHfIS4PTuk3bBm6siup6uUUhfSyUuYKCi12l0srxoBPmflpKBnnyiatzYaxZZ1+nrn7q3SdvjL/oY9JQm/n+jCk5u2+CfMedoNbya79mzXPjMCcqRevXpSokQJGTNmTFC7/8Her/fff19q1Kih+8OSY39pN2mRCMRwxhlnyNlnn61pHEaPHh0cyRocUTg45CMQO+mXSW00rpLdP5GakE5eLFHYR/Y3fNCvlqzZujToWeSDDi/Ja5/XN0ThaxRg+rLR8uyPN6pPpEEnnyxS6z9lqaDLbJ83Wsvf/w0LessYzKTZwHv++efLxIkTg9oDAwjq1FNPPaDnTYuAvv76azn22GM1CgYbnO2G5qzCEYWDQz7D9KV/6nLWuu39wHypC+qkxZIEz9kfUdsI/h/HvCfxCfuCXn0fxeufN0xCFHv27ZI+f32pu701jWqU56vT/lI9X29Danvjo7evI0cgipIlS8rIkSPl77//ls6dO0unTp3kzz//TDU8EPb7CRMmyHfffaft/vjjjxTttmzZIiNGjEjsa+DAgbJ27Vo9RnoEkrDdddddUrx4cenQoYPMnj1bo1CkBd47YMAA+fbbb7VPZvxEpUiO5cuXS9++fbVPTEnITHwwaYH759xPP/20FCpUSN555x19be+Hc3B/3GvHjh01bNK8efMSCYd206dPl8WLFyvpMmZdunRxROHgkN+An+LLoc8aYX+phvb2CYB0pRT/OcKaehzKPNYzhRAeDY3Af6LdxfJSt9tl1tKkph0lCpzZgenJYtuujdJ17AeJZGFXW/n9++fAV8JzwpjX7mzI5PurlIhIbJQZINyeeeYZNT1hnyeW3GmnnaYz/TPPPFOeeuopWbZsWdDaF9j4MwhISoBSBD0mGwKXWiKgPTLqrLPO0n4ppEWg/xkzZqiQv+GGG3QGf/jhh+vxBx54IMl5wvjrr7/0vVyTPSfX1qRJE3U8WwwZMkRuvvnmxHY8QoAffvihEldqwEdy3333KUkcdthhUrRoUbn22mtV+K9fv15J1N4H93nSSSdJxYoVlbQApIJPg3F64403NMp3wYIFHVE4OORHzFg+Rl7qWVVqdypnhHOEGCIhPKwAtyWY6euy2sul+4RPUsz0UxIFocz9mer2XZtk0LTO8urP1VQjIeggK5psPCd97FhG6rW9RF55/1IZ2K+FbN+zVd9LP37JGBDFiy++qLluEKwIfDSL3r17S5UqVeS4447TOpzeaBJvvvmmCv26deuqXZ9Mm/fff7+ceOKJ8tFHH2m7r776SgXvQw89JMOGDVPNolatWvK///1Pnn/+eRXOzMwRyGTrfPnll+W3336Tbdv8ZcJhIOAbNmwoxx9/vF4Hmky/fv1UOFOHyQhMmTJF4+BxbQhsZvY//PCDXHHFFSq4P//881RXMm3cuFHPDVFxrySE69GjhxLQ22+/rXWPPvqoEgNBWbnWY445Ru8H8xTEV6pUKTn66KOVvCCdli1bOqJwcMhPSAjyO5C1bsSfbeXpLy6VWu0v0aWydmc1+xdsnCe/mNeGHNjP8GSXivLtH68bLSFiXrL46NtX5I3WjWXbjtRnu2Dx+jnS56+v1L/RrGsVeeGnSlqa/XyHvD+wrvTp8bz8W+502degnsjefQFFRAgnI0AUCO9DDjlEnn322SQmJAT6lVdeqQ5eZs7MsplV33vvvUmya65YsUJuuukmzcA5Z84c1TjQFtq0aZNo9lm1apUK+vfeM1rPVp/QkGOkT0jPR2H7RosYOnRoUCt6Hmbx33//vcpCErsdddRR8u677yYJkkrfXBdlwYIFQW1KfPnll0pamKsA48D1Va1aVf777z+tA5z38ssvV6JiDBgXCIrxwzlPXUJCgiMKB4f8hUDk7tote5q/KiNvO01e7XiD1P72Mg0x7m/E8x3dxIJiGW3t9pBJaWnU5SppO+xl+XfVLNm+Y6ts3bFZtm03hUdT3vnmWXn507qybPW/ShbbdmySrdspm7Xs2LlV4o2gTUjYJ9vjNsvS9fNk9sqJMnvFBPN8jmzdu03i1xsCuuc+kdPPFG+YFaTmim0CowwAUTRt2lS1CWtOCePVV19VcwsC9KefflICuOeee9RP0LZtW2nXrp36IBDmHEPDYLmtNf9guqEtmgCmJeuHQJgix84555x0iYL2aAjM4jGLvfLKKzrjRxZaUxckVLlyZSldunSqK6gaNGig7w8TTXJAaoULF04kCoA2wzXPnDlTtSdSOnA/3Ge1atUSiQISgjzChOKIwsEhH8GfoZsyfZrIeeeLd/OtMnfWMOkw+g1NWtS4y9UBSWAKKqepS1/4sZLuveg5to28+XVjeaNNY3m9dSNTnpQ3v2hkXvvl3qYVpVrjcvLyJ7XlrS+fMtrFk0G7RvLKp3XkvXbPyz/zJ+t1pItffhEjzcVr9KR4e/ckXnM0gCgQftjWUxPYH3/8sQpQHjHzIHDxYVxyySVy0UUXJRZ8AZdddpmmZ0a4M9Nn1k2/EAaFxGs4tdEywkQxfvz44GypA18BfoZrrrlGtRvOz/tYNYWgXrhwoZQrV04qVaqUSB5hvP7662pCgsAskq9+at26tRIi5ioL5C1jg1aFCQv/B74VNI8wUXD/mN/CWlaaRIF9DY87b8T5QkFNgZGsqhUrHFE4OBwExBvB1uIt8YyAkHbttWrP3t2yYNUUGfrPj9JtfCv5Ycw7prwnv075RqYuGakO8A2b18pH7V/S3devG2KAAN6ACAxZ8ByN4p22z8qbwTG/+GTx6mf15f32L8qM+X/p+ZIjkcAoq1eJd1sl8c4/X2TS5DSJwteNkh6xGgXOWnwTyYGdHn8DmgOaAfZ+Vgix5wL/A7N0ZtuDBg3S1UbIO2Qh/TIjZ3UTpEHaZggHrWDaNEO6BpYo0DbSAn4A+oF88Btwjcz+77zzTjnyyCNVQLNS68Ybb1SBHp7VW2BSg+DwRaSF5ETBuTgHpIAWw/1hips7d676bqzpadasWUqSjz/+eBI5n4QoENawIfYt1JtbbrlFBTlODWx5qELUcYw2ePvDnYVZLa31vWE4onBwOPDwFiwQ79IyIldfLd7SyD4IC367tiRHQkK8JHiUhEyUyHtSlfgGVOs59TFBvM6dxDv2ePFef0M8M1tX6PX4hbamVfA68oAcee655+SII47QpaFhIAhJuYyDGDmHQC9WrJjKs+T3Chng62DpKNoH/oiwcxotAqc0foRf0IAMeI2GgCM6LZDJ84UXXlByCJ8TQQ4xIKS5LsjrhBNO0OWzYbBslXZoNJiQ0kJyooCQIE/8MTjoLSC5Cy+8UDUKxg7FgGt47LHHUhIFjg7seXXq1FFCYIkX7FakSBFlSNQtNrAwCDAS3n5WFaAy0SFe+9TWAGcERxQODgceCV+2kQQzk/bee8/KV4OkgjIJOJTO4Vhhuw4/ekYgyhUVRS6vIEZa+weSXEjSR59ifKJAwBcoUEAnuKxYYiUPs3TqEeysXkLmIQhZAYRAxm+AgGdG3b59exWymGbQKBDa9MdqKmtZwSRFrn+WmloNolGjRrpyyfaV2j4KnNn0yznZDMe1IZwhJmTv9ddfrz4KBDsOb2Qu+xi4LlY+Pfjggyp/Ia6woz45WBXFOdgvATDD0T+OarQJzskj5jPuDTMYdRAHsv6RRx5JsgS3ACoXTIizBqaFcfG449ChI5ZQMRAwMM9x7jCQLKu6/fbblTgosHJ6TJoaHFE4OBxYeOvWSsItt4h34QUi0yORX30RnOxv4ozXf/RnwByxbaIo5j2Rbvz3JYdtC2irr1ld9NFHIscdL/LFp/5Bgx27E2TVpn2ybts+iU8I9+Y/x0TEjJ1JLA7pUqUuVvMQPggEJ2aWsJxCMGKSgRhoU758ed17cLXRtmzYC4Q0oTkwWeHoZd8BBMGs/rPPPkuUXczeqcecxfJUTPepAb8G/g/OybVVqFBBNRues8wWsPSVDXFM0pGvOJdZUcV7WMq7ZMkSbZcWIEhkOg57gDYEuTAGXCPn5H6xEEESrHLC0Q8f4B9hWW0SjYKNJtb7zvrgNWvWBIfSB18AmA+bHjYz2Io1t2kNTmpwROHgsD9hRXoIffqKZ2aq0rQJ0iioDISz/5Qfd7L32edJ+7LvSa+E4ZNG8lqL4IzmT4Ke32C6EegXnSerbr1Lug9bI816bJJHvlghVd5fJjU+WiYN2q6ST/ptkMn/xgVmKJb97tPZM/b7efPmq1kI2UZh8ovpJjnQGhDyCMqXXnpJvvnmG7Xdh4FgZnbOJBrNolWrViovISYLhDGTa/wfvXr10hl5avdLHZoEwhzhTcFUhNYTbs+yWO7l008/1XOy54P72bBhQ9AibaD1dOvWLUlgRJzorHTiHpjoMx4cR0vCQc41E9gQCxGEEQ77UYALQGMIr9VNC6g6nCz5Rg9sXrAkN4sNLlo4ojiw2LJ6vYz4tIv88tyH0velj1OUfq98JgPebCP9Xv1M+rzUSvo2+yQ49on88sJH0t8cWz3X/3z5Oqf9o3fIOdBPyhej/PAfe1w8M9P0Ro0KRGsOQUAO/LXfq92btkqv5zvKnde0lVMenyUFHpgnBaqbx8QyW456aI6Uef4/ad51rSxYhe099buK9rsaTTtWOEUL+kuvz4yOW2TmnPsDBVILFoXgR+3CzGTVD7aTY89DncPjn1rYWt6XmeBTjigODPyfoMjm5Wvk97e+lB9rvSZd67+ZpHR7sqW0rd5Y3i5ZVdpVayTdGreQrg0ix3+q21x6Pv2+rJhh7cUOuQMRIeRNmiTe2WeLV72GeNvMbJe6jGXUAUHoKvXv5p3x8nav9XJq/UVS4L75UuDeOeYRspgdKfebco+pN4TxP3O86jtLZdKiyAzffu8dYkeK5bEQAzvycKRgz0MtQz1hezpOD+KH8IjnHZUlFjiiOFDgJ+NJwr59smPjFtm2dqNsW0fZ5Jf1m2XHhi0ytfcQ+er2ejKlx0C/nT1uyva1pqzfJHt223Xt5q/7HeYewAjN3xDvpMLideniV4X+HlzYa2DW7Mn23QmGJNbJsTWNBnHPXCnw4Dw55IE5psxNVqgzRPGgaUO7u2bJzS2WyLQlgRNZu80J95f7kYIofv31V/XcszqAreuYm7CRsRIKjzw2LhzXHGcVQSxwRHGAYH4r0cwcF4yaLO3uekrmDUt/w5BD7oGaNniC8/Oqa0TKlTcf9PxAfPI3ii/GfoZOY/QLqs+k97gtUrS20SLuMRrEg0ZrMOUQo0GkRhSHGq3Cvi5wn2l71xx5ovVKWbst/Qir+AjSWzUUC+iXFUSprXrKrSgQtpHhmGENMh7wDz74QF9jTiJ8LuuSIRGAowcPPMQRXlucWWSOKOwXOrNfbL990nf5X0iL5C10PPSlrQsdCx59JH0VQVCfeDjy2n/GX1ssIs/9a0t+LHgdrk6sj5QkhxUpayJIemyuIYh21RrL7EF/BjXAtgm3jXxnzBP/MRH26v2/+pAC4cqgXZISeYggRYVBanVh+DPUlKAu2v7SO4c95j+m3ZIjyQswjzp+ofFMPAb8Yxb+s3C7pMcB+xw2bl+lYTFGzektA6d9K8Pm9ZDJP78tS8ucJnHNm4kYrdBH0vdGED5H8BBcZwpoVbg+tXb+60itfea3ZUeExdot+6TqO0uMwMe0ZLWI8GO4UGeIwmgUiWRRY44UeWK+dBsTWbETBsKbvQnsjYhFdoF169ZpEL7koN9PPvlEVxwdbN9CdiGJRoGjmrgnLMmyZiW856y9pSwNNuds2rRJt5ezxIqVT1lF5oki6RdMi/kC6xctox+a/UGmetwXKIn/TJW/8sIKmmTvCfqKwD4PP9IPazHowzwmeU/40baxx8MFRB4jfYQL4DHSh/4zT/2jfl00QJNoV72RzBlss2H559TzJjk3CL+OnE/vmfeY536NRTDGQT/6oPBf+7CPpi2bs/Q9PA+3AZHnjJ0/zvzzz+EX+3772n9PZAyTw+/Bf+o/T3ytSO15+DF8HCSvM8/1nmw9xX/tj7E/bropLUkbv0SuJvLafx7B6s1LZMDUDvLer4/Ksz/cKI07X6VB/Z7sfKU06VBBmrW6VDr0biQzl45LFvk10ruPyHMdU702FrvwKnx9FuY5161V/jEd5uC5D//Rv1fOltpn5kn/v7ZL4cfnqU/CCv/MlAL3m1J9ljzaeoVs3ZVygQ5xldjvEM7BkBngg8U8Dxmw6ZiVUEymeW1JgX5ZUsu2A/y8eQFJiAKGRHsg1ocNRsU2dtbx4si2jm3asc4YogjHT88ssqZRJEWk1n7h0gJfSv8x7XbBMb5A+oP1P/iUsF9w/8ueNoL+0m3j95bYJt0vrz1mHjNs55e0W6U89u+IsdK5RgNZODSpRuELC/Oo50xtTELn03ZpjRsItdXXacHvx5JAWrDn4m9G/fl90lv6LbVdFD1mDPt+/9xpwz+mwjPDz9U+RtrxnunLxsiH/WtrFNja7ctIvQ7l/JhN35bXsN481u1cQWp1LCPP/1RJfv27rWzdaZdZJu0vJcxYcF3pNQn68McNpN3YP2LvNWm75t3XyaFGWyhwX+pEEE0pUGOWlHnhX/kr5NgGkAOb7dILppcR2DDHRjmWnuLLpbDMlA1zyU1ZkBIhOewE28L/jaQ9PjkRSYiCG7Wx0rlxSKB+/fpqiiI2u2VMBprNJ2zWCK8jziyiJYo9+xJk5n+bZdBfq2XolDUyZAqPa2XtZmZFkS/bbtPu7/kbZchfq2To32tk8OTVMmbmOtmwzbbzr3/H7n0ybvYGGWz6G0Y78zhhznrZHhfYNYMPccPW3fLnP2v1vMPMOQf/vVrGzVovu/bQjg/b72/VhjgZPnWNntPvb5VMW7hJ9u7zZ2G2v8Vrdpg25tpNGx4579ylW2SfbhzyxRdjPG/pVtOPbWf6NPe6cEV457tpa049e/GWxP4G/7VGhpt2K9fbcfTPucdcw/RFjJ3pyxynjJxmVGY7JsG17d6bIH1//lOeq/KKfNd+qIyYuVHvdfMOf8mhvcLN23fL6OnrEj+DQWaM/zJjvoux4weAADBt12yOkz9mmHZ/rzLX748x7XbvZUwYN39slq7dKSPM2A3R+zDXZ9rN+G+LxPNd02vzz71o5XYdV71f/Q6sMWOyLdh0ZYppu9d8/rOWbDWfu/856PiZ+15qxt0H502QffFGsP672ZzTHxO+J6Omr5XVm/gu058PrnXyvA3mHvkMzD2Yc/9p7mnzNt9047f0ZNvOvTLBfJ8Gmn5ox3nHz9oQ+T4pPFm/xYwJY2euic+X9tMWbgnGxG8DVm7clfh94l4Z4+mLNuln6bfxy3+rzNhNWSeDpg6S5j3v0uivkAJJgTSfRCeSDYXyS3QkAZGfC4J81MRy2h7n777dsydeZpjvyUD9rvvnHm4eV5trCZ9zT3yCTF1oxk7v1YyduZfRM9ab3wr2ePv5exJnvk9jzfeH40PNd4V7YEy27PS/T/wHm7fv0d8o9/nbxDVya8t/1eSEZpAaCURTMFsVb7BA+kxKan4ipAe7rMM7jjML5B2TZ2IhEViPyTKJkogBlVz4syehZs2auks6txFDcqRwZsOUhO/A/MT2bqIUsmuQDRjsn+jZs6fuTCSER/JYKplFtESxYeseafDJ33J8pV5SuNqvcuKdfaXwnX3k9wnW7OV/CGs2xUn1V0dLodt7a7sTbustZWsPVsHmg3aeLDBC99onh0vByr8ktrvlmREyb5n9Yvn98YMpbd5/wm2mnTlfodt/kYpPDjXCzQoev123kUuk+L39pFDVPnJStb5S8LZe8kiLCbLREI0FAq1NnwVyYlX66isnmnYnVO4tL34zzfxYraAg+X28vNzuHznJtCl0hylVjUZnrrHl97PM2SJftj3mh9jos7+lsOmv0B2/SMHb+8gZd/eTnwYl3VC0zgjsmu9OkOMqMSb02UfOvL+/Ciwffp8LjNC91YzBEdf8KAWr9pJC5toqNBwmk41w9+G3m2wEYumav5vrYuz6ynG39pJqr4yRf1eFhbEn/catlAtpV8W/Xz67O14eba7HjonfX9t+C6X4XWbsgnYnmsfaH05KImTp8f0fZ+vnxOfAeU8099Hyu1lmvDjqY8uOvdL0i6lm/Hvr58C9nlSlj3z9S9K4/VuNYH/ig0nms6CvX833oLdc+FB/6fOnv1nUzorXGsF+e7M/5Xg9r/lcTV+X1hosE4zAC+MfMym4qdFwOf6Wnv4Ym3ZXPzVc5i5LagMfPHmVXPgIY8J5+5j2veSxtyeYiUbS736PkUulhPksuX4du1t7y8PvTDTXk9S38En3RVK2bkd5pPUdhgjKBsmG/BwSJBeKZJHzM9f5z/16Uo027FxR+k8lllCCfi5PvD8x8hsz5y5Wva/0HpV0A+06MyYPthgvhRgTc6/8hko+OlCJ2Yc/dqvMb7F8g6FmzPiemHs1v4mrGw83E7lNetx+l8eZsbys7hD9LRQy/R1+z2Qp8GDWzE62FLh7thSuPU++/yNCCGgCBL4LR1zNCghVxGY+FvJcd911Gn2VkB1ErUi+NYBJH6HLyWaHFSY3IwVRENaWQUBjYBks8Z6IuIi2gQqFWQoNg5gjqUU2zAyiJ4rdUtcIj2Ou7y7HVe4lx5kv6bFGQPU3wsiH/6VbY2Y/VV4YJcfe1NO0+0WOubG7lKo50Mygbahev9385dukYt2hcsxN9EW7nnJD42Hmh510BoJmwg+b49qf6bdsncGyJHGG6vf3w7DFKsCONYLieD1vD3mg+TjZsCUpUXzec4Eca36IXD/C55ibesizbaYmEYpxu+Plha+mm+O/aNtjjTA5wfT55rczE39cYI+Zhdb7eLKOw3G0u7mXFDOk8v3v9jMJxsT8sB94a7wcbcaOH+tx5hqL1egrI6cmIwoj1G5qMlwOv7qrHMP4mnstY+510jz/h+3Dk4nmh13SEI2e17Q7+rrucvuLo3XGb9uAPmNWyFn3/ybHmOvSdjf0kMov/GGEXWRMwJd95svJRigdc7MZY3N9x5rHR9+dGBoTI7bNbOzd72bLMTfQprd+Bxjr17/9R3YaYrXYvH2vNDITCj6vY43gYfwQ3q17Jd37sdXMah95x5An12b6Ovqm7nK2Ecy9R1kTgX8Paw3J3vLcH+a8PfS8x9zcQ0oa8htnZsBhTF+wWa6pN1SOuu5n0585r/nMLm8wTGYb7SaMgRNXyVn3/Zb4PTn6+h7y0JtjjRYYNll48vPwJVLUEATkrmNnPrv7zGfoa9B+G/DRzzPlxldqSa22ZaVhp3JKED4h+FpEQ1KXdoqkHNV0p+YRQiG16RPtLpFXu1eX5Ztmmu9qvNR8x/+e6BhDGIbQuhvSCoOJx73Nx8qx5juuY2Iez3lggGpJPrg2T1ZtjFNS9T9X0+6G7lLBjNFfcwOi8G9B/py5Xi5+fJCO8fGV+8jhd08ywj4GojAkU+DuWVKk7nz5eVyEqNl1fOutt6a7pJ9d2+yODpuQCP6H3LOOb7QEHNVYXHgkcREB/shpndz0BAh9xKIf8lTnZihRJFeLWBnAwBIz3W5FB7AidezAtqE+YrG3RUsUcUYo/vnPOuk08D/5fvB/8p0pXQYvVrOFD//8u4yQHTxptXQZRLvF2r736OWqyiuCy9yyfbf8agRZZ9PuuyFL9HHAhJVmRopwMo2C+1mxfqf0+mO5dDLHfxiyVDoPXCJ9zfu277IzB9oZDcUIyR+HL9Vr+n7IYtNusYwwajnXbcEYzVq8NWizxPRn2pl+x5sZ+j7dFe+fMz7eCOM5G7UN90nh+ZT5m+3lG3gS7yXImH/Wm3tdbNos1sefTLsFy5NqRWgoI6eu9cfOnJO23cy1Mov1Pze/3Taj1XTq8qc8dttb8uEnQ+SH4ctU2K8zs1gISknKnHOtmSn2HLlM7+M701/H3//VmfK2XYFJIShLjNbV3QheO8bfmrEbZD6bODXbAf+8CNMfhy3V6/tu8L96H6OMtrMvPqIpcF5MeZ3MuOq4DPE//7/NmOxTExVtPSXPsWZMaMfxLoydKbP/4/vL9WtvaqLC1PQd5zT30Gngv9LdjMl/q/3vk96BGRtMjAMnrpZvDflqO3Ntvcz3ae0m2gVjYrBxa5z0G7tSOpixoB3n/XXsikQTlT3x8nVmTEaYsTP9cB8dzZhA2Dt3+2Pi9+fJv+b79NMwPv9gjM31jZi2Ts05thUYPGWM0Rxu1ZSi9Y2WEMlIl3aBJGyp0/EyqduxvPSY+LG5hr3yx4z15nPiu+6f94ehS4ymuD3xugBjgsmpi46d+e2YRzSgFetCv0Xzeewy99RnjPntmON87xjjX80YrQ8mCn6PnqzZtEt/o/xmuwxaIre9vVAOYSNd4oqnTBb2VBiiOK/JQhkxK/g8zWdJiApCDKFZpAa0AUJbsJgnHOaDuFCYmWzIcrQEyAMHNrGY8EMA3p+aHCRSBfHzCAuSm5FCoyBGOXHZU1v2ZQcJOx0Dh6AHqQ1QNIiWKNKG+apxbv5ncA18Kf2mtEunrQqddFsE0B7NY0igJYPfwp4vvR5Nq0DYpd/OHDU34fcZDTLozxwKj9t/o8bJd3c1kMXDw85smplrSzxvWvfrH/Odz+mBo6bo/yhaapO02/lmIv+c6fdHG99+nn5/pqX/RckQ2lNo/FJHMG4ZNNNuMhw7ELnLYbO6SOMuV2i+6aSpS9MuYaKgoFW83+8J2bA97dWLiWOWwb3a8U1snwb8e43cRxjfjtwkRz1khP29qZBAFKUApfosqfzOElmx0Z/QYTInyB37v9LyT0AgBMdjMU942Sz+BSJoIxPD4HNnssxK0fTAcfJRE0MqNyMFUaAtEGY2tTSCFqweIDcF2ZIy/qGkjcwTRXIhZb6Y5vzxfDX5kekPzX5JbQH+oz3mCxdgXuv18zo4pk3tc3s8nWKOR/qLwD+X7ZdmXFvydv4x/9Ev+r4k1wTsI8/8e460se38M4ZfgwgBpYR9h8XcoeP85bGJ+ygixzln0vEF/iN19t7859T7r31E+kmsN1V6L4FTOwLbpwXPIv37B2wb/5it0386LuECqA/GTV8lvw/bt3md5D61Mniw7U1bmtk6fZI6bB+RJjzjXDzaWvNoz5tYHzqW+Og/18sw2JewTzqOap6YuhSzUmrEkLwkJ4rH210szX6uKnNX2sxzwfUF96bjrmNnx88W4F+z/48x898baWdhX3OcZzwGbYMav5jv4IrdUurpRUYrmKNCPzUySK8UuHe2HHH/LHm719rgOvxoE2gT7BFLzTwE8DGQl4FVTBZYViAYfBHJVy5FC4iJBUH0k5tRgGCAqEcsh6Ww6umwww5TExPaha2nkCiD9cFkhmIDHkkwYkGmiSL48kbgf8H8r1u4RI4kvjYP/ldTXwXHLGy75HX+FztlvYX/PLG3xEP2Sfj9tpU9xqvkAsm2B9ZsFXlf5K//o7Q1PngNbJ05ah7s0dQRPh8b7ixRjAlqOIMdNVsiSFnDa1uT/Ih/heH+/La2gPDzCPyaSJuULSJAOPjH/TECkXMmHzMLWxe8V/sw//wXwbv9vvx2AfwGes7UYeo5lOSw33fSSp6ndm3h58C+V2TX3u3y8e/11SmNwPd9EBmXMEnU6+gTxXM/3Swzllobun8NkTMn/bzCR+wr+9cvkfY+/MfIOyNt/DE1xVRZctkT70nLnuvlMCPwC9yH+ckWQwRJnNyh+qDYPRQVX/5P/lka2RVNwiIcyoQfT4so8DFAFOGscfgj2AZAnp6sru6EKOrVq6fmq9yMAlY1IjY5m+pY4QRRkPSDuOR2s50thCQnUxJtWBYWC2I3PWUO/hc1JyH5FUV7ham1i/3udGd2Eo0C0G/sfYOkvWRPn2kjtf5jOefBuN60EbdvhyGKegFR+MthUyOG5CVMFPWNFoLp6fkfbzGC1W6yjBUZ3Ufy48nJRmTxuj1y1/vLfK2CsBwPEAzQEgOFOkJ3zJFDA9LQAIE1ZkuxOvOly0jCe0fOhLDG98AindSIAs2BVAloDkyOLTCvE4GCcOBZhSUKAqnmZihRkM0IOxwmJxJjsKoJwoBhWSZrM9zxSP4KCgydURLxjHCgicIhffhE0TgZUTjkROxL2Csd1PRU1mgGl2VJo6A8YTSKl3+uKvMSTU8HC+gXhi4C7Wz6kjip8o4hC6LDUu43ZMH+CjQHiCHQLvQ1kWXvmiWn1J4nn/y2QfcE+dTj94U2QCZO5IzdNBwGZqXKlSvrrD8sh9hYh8wjsxzm9vRSj6YFfL1MxNm/kZtRAOc0Xn7iN1G4IfZREAiQZB2E8AgXgl3xSOiOtFXu6OCIImfBEUXuQv9pHQ1BlJc6HbLuo4Ao3u/3uKzdGn3Csf2DwPQWmKAoc5fHScO2q6RILcKMG6K4x2gNaBkUyOGBBVqOfHCeXPXKYuk6Zmuw0tB/vzUXIqdwJrOkP7xa04I9YqQcDQc5ZQLNZJilrcg79kOMGzcuOBo9ICH6QZ7mZqS64Y6NdjYP7P6EI4qcBUcUuQs4oF/seqvUbn9pljSKuh3LGY3kMvlp7PuqoRxMqFg3wtsX8RFhv2VXvPSdvE2e+HKVXPzcIilWf74UrbtQTqkzT86sNkJufmSYfPLLqiBpUYQYiEkV4gINs8E+CnytyUF2O6wopC9dsGCBZunEZ0FqBVZB4bdgL1m02T/DYN8GZJPbYz4VQEDj7LHOGmxqaBjsmaCe16kVjsUq3B1R5Cw4oshd2Ll7m7Qf8bLuoyB0R5gQfOJIqmWwhDZMFE+0v0SadbtD5qycGPR4kBAS6PpCOSJJpezakyBLN+yVMXN2yuAZO2XYxHUyq9LDsqn8NRI/N7Kh0n+XdqDPLDAbkXSNNJ9hIPfwT5BHmkc20WFyghwwrbdo0UJatmypidxsCKPMgLQMTLwzkyI6J6IA64QJXEUkRDaRMECoaOkV2rPcjPfEAkcUOQuOKHIfFqyaIs173iO12l2iZqgnlRB8UmhAnKfwTm1znNeQRp0OpaW+ed538lcSn6hNpBSwOQ/2+ozQfuM1kVOKinTzw3Kkd+WY2FnOT67ocJ4ITEM333yzBj1l/wQTZMxO1jRFyA5yVGfFzM6EmnOijWTl/TkJBfDGn3DCCeqZh10hDuI7UVewYMFUC0EDaVO3bt2gm6zBEUXOgiOK3ISI4JmwsL+82K2yPNHuIg36p0QREISSQ0AcDQ1x1O9YXmoZTQKTU4eRr8rmHUnjoKUvbg8m7HWFro+836cWF3nsMfHMJDejK8cXgSlp8uSI4x5HdalSpWKOW5caCJ7K+VIzd+U2FGCjyY8//qiOGvZUsE+COCbUkXgjtYJNj+JWPeUtOKLIPbDWfBCfEC8TFg2Sd/o9KnV+uloe71JO6nTEHFVeiQGyIOx4rXal5fFvLpJnf7hJuo37SNZtSx7OAtNK8g2QOQ1cY3D3WzaLd+ut4pUsKd6CtHO529k8WsVnn32m+yls5AnCcLCKM7x/Ijtm/5iamjRpor4R5KqF7Tu3aRgpnNlZATedlRt3RJGz4IgiF4Hfm/6P2M2XLJ4sPVvcJm+/dZE0+eEGXTZb25BD7XaXGm2iojTrVkW+Hvq8TFz4u+zeG95Axm/XlpwLX86EiIJ/rT4Sr2hRkW+JgpsxMCO99dZbmuUOCwoE8eqrr8aUgC05MFfh52jVqlWaG/xyG9IkCuxrLJdFw2BJbLhQR2HnYixwRJGz4Igi90AFpfmjwlJfGUyZLgkXXihLH79Txiz8TX6b2kF6TfxCek9qI0P/+UlmLhsn23ZFogH77wvemwSp1eUEpLwub/Qf4p1+ukjNmiK7opMh5NmBINhTgb8iHNspO4C2Qv+pxcvLrUhBFKhn5MZm7W/58uUTd2OHC8KdndyvvfZa8K6swRFFzoIjityECEHo34R4kS+/Eil0ksjnoZ3EHMyCtp9rsHateDffIl7pS0TmzQ0qo8P+Mv/kNrNSNEhBFMOHD9elYuSiOPXUU5UsCOURLpAFBELo3ljgiCJnwRFF7oGKIvPHiiSPlTn33ifexRfzwwpq8zb03iHIFi3EK1JEvK4/JY5HtMiLQn1/QInCDhb2NOI3QRKshmKzCMmJKAQOTF5izdrkiCJnwRFFLgI/WfO7TRRzf/8lcsbp4j30kHhxcf7hkNiM6B95EGP+lIRTiopXtz4mkaAyfTiCyBySaBQIfkxOZ5xxhm4w2d9wRJGz4Igi98AXc4HwJwT4l23EK1TIPH6pdfZ43kZwf5ifKlUSr/zlIgts2tu8fu8HFkmIAucLocNLliwp06dPD2r3H3IqUbADk4xVrIpIngc3L8MRRe6BaghWo9i6Rbz77xfv/PPEmzwpEJH5R1B6+8xvtGVL8YqdIl63nxPv3ykN2YckRIGAJHEHEWTZJ7G/kVOJYtmyZbr+GWf9gSDMnAJHFLkHyECKLhadNlUSLrxAvLvuEm+LIQ09ZlvkYQREqWXoMPFOKSbS6EmjYAUEmtfv/wAiiY8CEBOFIFYk7Ojfv7+uO2ZdcPLCkjJSDMaCnEoUa40q26hRI7nyyis12Xp+gSOK3AN+sf6OAoMuXUROMbPpjz7ilS849VkeR+gmvRUrxLvuOvEuLyfe4v/8uiSZCh1iQRKNArCl/bbbblOH9oknnii33367OraJqc6jLcRuJ8JiLMjJPgo25Tz00EMx7xXJTXBEkXtg53Y4rhNIs3n22eKNHx8iichGvLwMe7+E8JCXX/FXP/XuGTnm7E/ZghREwY5C4jlBEjauU2qFWE/Eh4oFOZUo8Es89dRT0qxZsyRaE8lL2GNConU2IwI27UyZMkUDiVGmTZuWeC9E4SVLFiV5whRWmBF7hr54X06AI4pciMWLNISFmd2JZ7T8iFi0IjQvw+gLARHoX/PbVKJ48UVTYYkyr4/BgUEKopgxY4bGPyEvdhej0vKYvGC/p8S6MiqnEsUKo8YSm95Gx+XLSIAvwg1jksI098Ybb2g7EpLceeedGhKAUAAESkQLIZ/Hxx9/LG3atNHIlBAPpjxMdoQLIJbWBx98oKGPCcQYjgdzsOCIIvcAk4pSQbcfdWlowjvv5M/Zc3DLOhZmIudVuNwnzVUr/TrbwCEmpCCKA4mcShQESrzjjjsSY9ejMZAudtSoUSrkiQgJQaBhsOnwmmuukZo1a2qGrK5du2p7yOGXX37RBQIEWSxcuLC8++67+p4333xTvvnmG12OzHl4X05YXeWIIvdA/RO794g0rK8hLLzhI/wD+QxKBJYsdu0S7+mmZjzOEBkyRKsdUWQPEonCzkbYXDdo0CAzzkN0Fp1a4djgwYPV8c37sjqTyUlEEb4HtCWSjdgcuWgPCHPMUIQMxoeD2QgwHqVLl9ZUi9aEhNZFvg5iygCyBqI5QAxoFcS/79mzp3z33XeaLIWNjTkBjihyD/TbumSJeFdeIXLD9SIrsy+oXe6B/5sNSx+vV0/xjjtOvLdbBjUO2QElirCQxEdx8sknS9GiRVOUU045RUqUKCFnnnmmnHbaadK0adPgXVlDTiUKlsVieiKLH74FSINMVZiH0AYgCpsWEc2AsCaTJk3S1wAnP+Yp4t5jhiIPOeGNuUfMV1dddZWSRJ8+fTRxSk6BI4rcA/229v9N5LTi4plJjBfljuS8BUaBiaqf9lRfzZkjctFF4lWpIt6GvBOU72AjBVEw+73llls0v2ylSpW02OfXXXedJjRiRRSb8tq1axe8K2vIiaYniOGxxx5TDQEg7BkPiAAtgjy69evXV5MSGQFph5kpbDoi7y6ZrTBHYW6CFCAdlhpTx6oxnltkVSPLbjiiyD3Qb8zLL4sUPkm8UC6F/InQ7weHft06ImeeJR6JjYJqh9iQwkeBs5WkGxSctRT7fIlRdTGdYEa54oor1GEbC3IiURBGnftj+e/EiRN14yHkQAasr776SqqYmcrDDz+s98548JxNismBiapixYpJHNVoIZik6Jsw7uzRwATF2OYEOKLIPSAIoJnBiVx2mXhLlziBGILX9hvxChUU79NPghqHWFEgK7NZlnQSYRaTSiyz4ZxoeuKabrzxRp31QxrcK5pU8+bNdekr2gQrmzgGkaAh4KcIg6WvmJUuvvhiNVPZ1IuEcGclGZsZIQsIhn0rOYUkHVHkIoz8Q7yzzxGPncg7d+STXRMZg18x+0l0X8nDD5mZb9Jl6Q5ZQwrTUzQgJhTCkxlz2ISSWeREjQIhT1ImfAeMC9fFa3Zr85qouWhYPMechJmJmFAWCxcuVO0DhzjaFxoIPgm7lJi23DepZwkVggkrp8ARRe6BhxZb7FRJ6PoTr/xKB4W33sikGjXEK3mhyPRpQa1DLEhheooGmFAgCXJVxJJCMCcSRSzAxPTKK6+oM9xusEPzwMeB9pXTAww6osglMJMZr3p1kQsuEPlnhqOJZNAlsR99JN4xx4h8/31QC9xIZRUpTE/MqFnWSYEQwoVZNat42ET2v//9T5d5Evcpq8hrRMHyWUxT7OhmrLgnNBPuj1VPOUl7SA2OKHI2EvcE/PWXeOedL3LffWLUWq1y+wWSwhs+XPdTeE2fNj/MOL+OMXLDlCWk0CjYHIajmk1kOHHDBXMTS0EPP/xwDeHxySexOYvyGlEA/BUNGjSQ9957T5fUQqr4JTZtiuQqzqlwRJGTgZgLpNzXX0tCwYLiffE5IZ+DWicBfQSjsWKlJLBDu2JF8RbM11qfKNw4ZQVJiALtgrAVxYoVk9NPP10TGIWLrYMsWPYZa/LwvEgUAG0MRzcb6Yj3lBPCc0QDRxQ5GQFN7NkjXp264p12mnh//unX6TEnAC10JOINgb76qnhFThbv176J45RfgiVmN1JoFAg2ZsXkzg4XVv9QTxgLHLrJTVZZQV4lirSQHWO2P+GIIufCUoG3YIEkXFlRhIxuwbJq/V65mbLCjoI+9ugl3glG82reXFOk6vhR75BpZGl5bHYhvxFFTocjipyLRCHX+xcxKr/IW2+Kt3dvUK+RnzjqYMYhUbuaP9/fZ3LzzRFS1b8OmUWWVj1lF/IzUeRE7cIRRU6F/11ROmjWTOTEE8UbNFDr/CNGNDoJmIhEotizWzxydWCmGz3a1jpkAY4oDhIsUbBqLKfcuyOKnApf9CWsWS3eTTeKV66ceIsWaZ1f9KgpDjoW5reVOCJff+2HOWn9halwY5RVOKLYD2CJcTR7JnB6Ez02M/nJcYxH239m4YgiZ8MbOkTk9NNFGj8lnvm9KEmoUPT/OUAUfuGv0sLECX5ip8ceTVxK7JB5OKLIZhC6g6WxkEBGIMYTRNGjR4+gJn1ADiSVIuZU8ox52QFHFDkXKgA//FDkxMLifdspkRYSEIeqndoaB380/PHwdmwTuesu8dicOGuW1jlkHvmeKLLTV4AgJw5UnTp1ot43QRiQcAiQ9MCmx7vvvluTJe2PJbeOKHIwtm4ReeBB8c49z8ySIyHtHT1kDO/dd0SOP16kpz8hc2OWeWQbUWRF4GYHUXBewogQhdUmACICLkt6CeIHENq//fabZp5jdzTJmbp37657HexuaQQv7cnHwUZCQm8AQomPHz9e95f07t1brxOB3bdvX60nYx0agd3JXrVqVU10RJIiOybk1yZvxYdmRkgYd2I8cT7ClnOd9MlrQpkPGDBAiQONgeXIv//+ux6nL66XgIVcX1xcnJLMwIEDNbCgJQ52gqPVZCUirSOKnAtv+nTxSpUys+N7/MixDtHD/I7IAihNm4oXF92kzCEpMk0UCFaEGNncYgnfAbKDKAjKx+Y/IrWStxrQ7z333KNCF2FK7uoLL7xQHwnOR25rXrdo0ULbI3TJYY3JiBwbRHYlpSmEg6kHIc8snt3ppEcl+RC714nrxLWTGhXS+Oijj3SzIkEA2ZHN+0eOHKkhPb7++mt56KGH5IYbblBCImAg7QhTjnBnn0rlypU1/zaEATGR/KhGjRoaeBFyIzwIyaMIg8410YZ4W9QTPgS0bt1abr/9diWjzMIRRc6F98OPknDssWK+xDppcLPiTGDlCvHMBCuBXdrmd+SQeWSaKNiNTYA7dmdbQZtVZAdRMHNHWyB0N7NzgHbBzJtIrghQZuYkX8IkBAEwS7/yyis1tAZAO0CIM/OnPZsK0U4Quk2aNFGtoW3btqotUI9QJ8QJZiD8Bcz0IQVCdiCkOT9aDFoGSY04J6TKeJGPgjHkXGTRe+aZZ5R4iUj71FNPaTY94kJxLw0bNpQHH3xQNQzMWhAUYcs5xqZHxo/rZvw4zjXUqlVLMw8S0jyzcESRQ8FubPM98YoXFxk23JFEJuHt2yvSuJEknGbGb/iwoNYhM8g0USD8ELpkuUMIxoLsIAqAYGYmjrmFfhC4jzzyiGoKAEGOBkAMJsxDzP7RDkguhMZBPVqGBTM2khIhlMlg9+uvv6r2gIDmGDP+MmXKaJRYew7Qvn17JSM7m0f7QCPgutDAyF3xwQcf6DHaQAIQkAWaDNdF/gquk0x7hCy34Hz16tVLPCekRiY9rh1Nj0RIaBuYnrICnygaOaLIaVi0SOSaq/2NYzkodW5ugRLr99+LZ7Rxr9VHGt7DIXPINFEwa2UWjXAlgGAsyA6iQEAyU6cPZt6DBg1SbadVq1ZBCz+9KxoEmgTADMTMHpKYP3++pnmlTRiYqDANvfjiizJixAhtawExccz6QCxeeOEF1bYQ4BAK5ILGwGv6x0yENgLQcrgG8lIAtAyEPP4N/A2MDdF57TWjdZBMieMWLJOFfDCp8ZxjmLai9U9oruHQ+vs5w8YpUcwe5OfOUKiZw/wzjw4HCGaokxiXBvT3d2Ob75dqF0G1Q3TQ8ZozRzxyaVevJt7mLVovibm23YhmhCw5sxHOOHmzYt4IIzuIAgF+//33q5+CmT7CEoHbuXNnFb4IuDfffDMxTzXXzqycWTjaEdoGQp/ZP0CoY84izzVJh3CAA85D6HCOk5mOc4bvn9SmCO23335btQVMSWg1aASkTcWPQPRdTFcIdcxLmK5wmluHORqMTXCEs91qPYwNpir8LjjbuW60Cs6JqYt0qxBKhQoVlMCjEeq08JPS+0QA5g4fL21rNJY5g8foa6B9BW1sO4f9jdBIm++r99574hUsJN6PP2qV+xQyB8ZLw52Y35t3zlkplsm68cwY6RIFdm8crWR4Q2AtMipwdq7fzw6iQCDTB0IURzQCHoH53HPPyfTp05UcmLlbfwomIPwZOJFZMcQ14M9AwP7xxx/q1GbWzwonCARSQHjjKA+bhCCmMPBj4HyGQNA4GDPMYZiecDrjX0CjIPMd/gV8H2g+EAIkhPMb/4Q1W5F6FYc71wNxsULq8ssvV9MWpMB7IAoSSOFM5/4wCUa/eU9/Pv7TAHNHTZa2dzWRuUPHBjVJ4X5QBw6JY83quWrVRcxsWGb4SYrc55A52DHzPv5EvGKn+GYoPeLGMlqkShTMupkFYxPHLFO6dGldVcQMl5nxL7/8EvOKJ5AdRIHgx9zz8ssv68ogCK1Ro0YqMDFFkWgJoc7qI4BWgN8BwQrxMTNH+8CxDLkgyCEDBDHaAJoIQn7IkCGqTTCb5zWaSBgQFuOFgIcIODfLYdFc0AYwX7G5DtLhXjHfcd+MM4SMGa9Dhw56PcziuQ6c2fa6Z86cqfeFmYlrALR966231DzGEl2IiXbRIfIT2b5orqwb2k8mvdxMulW8ViY800RWdOskG8YMl70b1wWtgPtZHRj45kAVbkZLljPPEO/BB/zMdlrvPocswfz2vHPOETMrJCexVrnxjA4piAJzSq9eveSSSy5RhzWZ7IoXL665KI499litK1KkiJpYcsLyWEiNFUYIW4AZJ6z18BpTj91nYNvb14DnOK/RnsKAGKgL593gPJBIcvMOfXDecL+Mj70uhDrFgmuCTAB9hdva17Sx4BgaBNcfBu3wG2HKev755xP7TApzrfzXa45c947FC2Vh6w9kXI3rZGipojKw+P9k4KmHyIBTDpXfzzhGRl5xjkytd7+s7Ntd9u2IfNb6w4p045DtCBFFl87iFSqkqT0T69zgZwqJP9V1a8S75SaRKyroooDIKLrxzAgpiIKZ8vnnn6+EwKoclnyyXJSZMOYYHLaFCxeWE088MYUDOLPIDqLIr0AzYvkvgOQwSVnHeHIgWHBah8lt7eghMuGBytL/1MOlX8EC0v/kAjLg1ALy+2mHyO/FzfNiBeS3wgX02NCLisrs5s/KrhVL9L2IMfqy/xyyHzqqO81E4anG4p19tp/aU484ZA7mG+oFxEsyo+dYZnyqyJChOp5uTKNDEqJg9o0pA5KwS0mTgxkr+wuOPPJI9QvwnqzCEUXWAWnjLMcfwuY7CD29xQVJSGLUIPnj5tLyWyFDEKdADofKQAgiRTHHDGn0N4QxoNhhMqXxw7Jz+WLtwycI8wN0v7T9h4UL/FSet1VmZqBV4VVqDtHC/7Zq6dFDvKJFxHurhXlh692XOCMkIQpMLNjqTzvtNHXspgVCZuCYZW8CPoKswhFF1oEvBp8Kvhb8H+kRNj8E+2PYPm+2jKt2nfQ70dcgBpQISKHEoclI4hAZEDxCIv2LGNI49RCZ8+YLEp/4WZleQwTkkD3whZfBkCHikXvipZdMhT/OTqhlAYydHT+SGV1UUqRKFZYq+nX61yE9JCEKVtewSgfH9YwZM4LalMDGj5Ob1UXWsZoVOKKIDXwOkHZyv0Va8OL3yey3nlcfRP+igZkpkQxSEsXvxf06iIIy4OQCMvyS4rJmyG9Bj8D9zPYHWM4pb78t3sknidezu1+XONZuzDODyDTJYNt28R56SDzIwsgfwDE330kfSYgC5y0riHBWExYjLbDs9JxzzlFSsQ7YrMARxYHFlpl/y6jrL1bfg5qVLCFEWdBA8GVMbVRTEvb6saUc9g+8tWvFM7NekhTJvLlBrUPMMIzgffGFeGxg7OTHhgNOM04fKZzZ7C3A9MRSS3Yeh+3erOhhSSmOU9qwrDQWOKI4sFjS6XMZfN5xKbSJzJTfDFGMvq6UbJ/vR9d1ppDsh47oxEninXOueDVrivlxaL1DNmHsOJEzzhSvbl0/DpRDhihAiGrW8BMg76efftJNa4SBwKFNPCP2J7Cmn41s7B8gGN4hhxwiZcuWlcGDBwfdZA3ZRRSQmZsRJEVyc5RnSH7WK41kYDEj8O3qpiyU34oUkGEXF5XV/Xv6/epfh+yEfpfN71FjE336aVDrkG1AW7vuWvEuKyfeipXuOxwFCpBoh+WuBQsW1CWvJ598sj4/7LDDlCyOOOIIOeGEE6RQoUK60gmSoBx11FEq4GNBrETBD4ody+yCjtZOHy3QntjAx0Y7wmuE90DsT7Bvg7Ahqe+HiB7s8EYjtPs64nfHyd917/fNTjEQxe9Goxh8fiFZ2rW99uuwH8DGugZPinfWWSJ/jHaCLLuxd5/Iiy/65qdff9XxdWOcPgqgRbCzl/0R7FhmdzFLZNlhTB4F6jhO4Xm4jiWZsSBWokCIEymWqKnZDYiB++P6uN/w5rfsAuFFyKdh7x2yI2QIMaPYUR4LCClCfgwbuDB+T5xMqXe/LnVlyWuqJBBFGWA0iiHnn2iIoqP2635g2Q9v6TKRsma2e+NNmufZjfF+QK/e4hUpIl7z1501Igok8VEw+ySaKpvuWFGzvxELUaBFEK+JfQTZrU1YLF68WFd3Easpu79MjDXB/FjialeOcR8EJyT8SKy73jHHEUCQMCKcy0uIl5nNnpT+xYywLxYbUQy7+BRZ1b9XcCaH2OB7ecK+Ho8Iw0WLmlnvS8Exh2zHzH9ELrlYvDuriWdknRvj9JGEKCAHVj1dcMEFGsZjfyOrREFb4h4x0yd8RRhoAoTZDofHYH8IK7osuE9rSqLenjt5mAwIk4iuyVeA0T+xnZLDah2cO6yBIPRtKBB7LupIOkRk2zDYD5Gc+DAjpaZhhM1h3Cd9hwkNjQjTor3W/zp8JoPPOVaFfWokEE3pf1IB+ePaC2XbPJeoPjtgP63ETw1SNxq9V+J0kT59nQDbX9i8RbyHHhSv5EXiTfZTKDukDSUKK1wQcMQLwjeBaSm7Z9HJkVWiIJcDocRtbgcLfAo43bkHguexL4R0qGge7F7m/ghHQgY4fBs8J8Upu5wJh0EuakxZOPgBmenuuOMOvU6A8GfG/+mnn2ofLAKgDs2D93IOzGD0yTUCNB/ak5eCvgmoCBlw7exDQZCzeY6Ni0SFhTgwGwFiR5GEiHuBwAn8BzlAOmgL5NWgDdfHQgPaEYfKgmt40JDR2LF+NNjN0yfLH1df5JufUiGBDAvLY4scIlOffEgS9vjE6wRZbEjUJ8xvTZ+Z76xUrSpeufLizZvvxnc/QMfZTMa8L1pLQuHCIh2cvy0jpFgeS74Ewl+XLFky5lVNGSGrREFEVkKHh2f1CFv8Ksz+OU7EWyKvMqtmvwdJgMhAx05mVnJBIAhWgh8SCoPVXgh7m7kOILTJ4kcoE0w5EAH+G0gGwYygx09CIVS5zYhH7muIAIFPOHGWEdM/K8UQ7pALfRNTi3haXDNxmiCTs846S/NqoClhmuI8CHrIj3NAYsTdIpIvGgkkRyRaXnN+yNGC3fWEICeZE0jYt0dmv/6cDDjlMFMySxb+Hoqhl5wiqwf7uTuskHOIDUoSliimTBXPfC90WewuX2Pc3xO2/Ab7rfUmThCv6MkitZ7AnKDHHFJHCqJAKL733nty6qmnSqlSpTRKLLNohG64kBaUpDuxICtEgamI0N+E7LbmJd6LrR8hzj4PMssxe4dIOIZDl6RB1apVU4FMHWYg8kuQmwJhCtHgXCafBMIeQBKQDiRBWwiAsOAAYQ6hQkS8Dw2DeyG1KX1h3uJ60AT4obNJkXwTvA+fARoBiZEQ5mgFBPlD4HONXDdEg9Zkd8izv4VrxSeD1sBeFvwn5Mmgb2JzMSbhDZCQYWVDHsNH+LnEwba5/8iYqlfLb0UPkQG66a6ADNQS7MLG0a3O7gKJITx+L36IxoTqX/RQmdX8Gdm3y5rVnACLFZZsrfCSTp2M8CqaZFmsI4r9hNWrxPyoxaPEEGEiPyAFUSB48FEcd9xxaoKisFObMOO2lChRQjfcMVuOBVkhCmbaEAW5IqwtnxwMzO4RlGgN7AmxCYAAgriqUeeZlYd/dAhYkhNxz4C8EWgfmJQgEgQxOSIAua4Jgkg9QMCTSIjZPeSFhnPvvfcmLgLAp8D7ybfNOVmBRN9cC8DJTAKksNMagkPb4RxoHLS3ZIjJiv0tnA9AOpjF8JdwLkgHs1sYkBaaVPIcFau6d5YRJQupv8GugIIoBpbg0X+tJGEIQiPJYnIqcYT8Xe9B2bnUBgX0/zohFhsYvcQxJF5X7Trimd+YF+Q7sePssB+wO048o6EnDB0qXoyLR/I6UhAFK27YVIeQYwZN1jRMHmRvs4XZOY8Iz1iQGaKwPybs+8yewxnmEKIIfB4hiORhRebMmaMBDBHCdl8BwCcAgVgTFtnmSC2KVsLeCcbA+hpIIoQ/wTqQ8Rcw42fFEgSDoO7Y0V8yCqxGgNaFVoCQR+sB3CsaD34gCwgD4Y+ZiuckiOKc9noxe0FGaHwsqeUzgRQBpEVOcDQZCwgGU1Ydc807kv0Itnf6ROZferKMKVvcEMHhGvAPMhhIUZIIAgaiRRgyGVyogMy8taLsmGsJhxmwDVvuhFjW4ROtHUFyJMjlFcS74UaRjRsi9cGjQ/YhPLZufDNGCqJgxo7gZJZKIehc8kI9zl+ex4JYfBT4EazQRrhCXGSWAziXIQf6xMEN+WG/xxeB4MZUhBaAvwBHN8TCzBzhzT4GNBUEMySCnwbhDEnUqlVL34fph9m/JSsczgh5/DsWaCm8v3///kqoEAVaEO9F0JMvG62B2T7Xg2mLNqw2I78E58K8hCDB74C2hM8CQGj0jUYESKOK5sD5rcaDX4MwLPgwAOKIH0T82hWy/sGbZG3lsrJp8C+y4Iv3ZUyly2XweYXld6M1WA1j0BnHyLDSJWTyY9Vk+WWlZM/l5czA/hv8qPibIAlBzm2HrMN+LloGDvJDS5gJjSSGzrFHHbIX/si7kY0OKYgiGkAmCFQEIIIzq8gqUdgESjYjnV1BhDAlVwZCnqWtrDbCXIRdn/fQBrLAv8KsHWGP9kSIEruKyJqO8C/g0Mf5DdlYhzHmHdrjZLb7HxgH+sXPYAFREIUXfweaC0SG/wOi4r7RADAd4f+B8Fhhxfm4LzQQ+uTauHYc4by2/bOqCuKyId65b8aR+6WOJb5oT2gs1nRlsXNIX1lZ9lTZ0vIZ81uJlwRDkmS6WzdioEx69XnpWr6cjG9ST1b0+l42Th4ruzes9WP3Fz9NPDOGiULNvFdICOOIIlugq3DMdy6hRIlUlsW6Mc5uqEas44r52o1vRkhBFMwQEWSsAGIVEYIShzaC84033lAByR6G448/XgVveJVNZpFVokBgIixZ3sr1IgwRtGgZOJfRABCWaBp2CSnkhsDlOM8pCG6IhDSiOLnDQhUywT+B5oT5BwLBtISjH7+DvW+0ERzNaB7h2TXCno16rHzivRAM56A9BMO14Gy252RZLSSH4502aGtcO4RMO7vsFcc6q6RYeWXPx/VAXmh6EDc+Gj4jq2ElXpVpv6l5Y1lRuojEjfFNamHMHTZOvqnWUGb/niwXySBzb6zrf/4F8fbs0f4ic7HE3h2ygMTR27pFPKP1eub34AWZC3248XU4+EhBFAgqZs6HHnqoOrTJmU3cJ+I/Ee+J1zi4jz76aPUVZEbAJ0dWiQKwJBXHLoLTAgEb9kHwPCy8w88x7+BrQcjyvuQIt7WgLrUNcclfW6R1bpDa69TqUjtfen2hZUEw1iwFOErZu3iBrLmtnKx7+BaJ3+BnLwyr33OHT5BvqjeWWUOSplT1li0V7+qrxbvuevEMgSWejWsOnjpkDfazkanTRBP/P8KyWH9VGZ+rP991o+xwcJGEKBCs2N0hAoRoq1at1M5NUEAcqwggyOGkk07SpZrJV9NkFrEQBcITkkguNKMFRIODOxwnKqt95STwGSY3B9q72tmjo6wsU1S2tf1QvH2BZhAioTnDxhuiaCSzBo3R15ZEvL2GrOrW8c1PY40mo8dMcUSRLdCx/PobkSIni3z1pXmd+sTDweFgIQlRYCLB1g4R4IQF2P+xnUMSAHs65hc2hmHiiAWxEEWswPSDQxn/Q3ZAhWYyokmLeFJrmxVkpg8vbqdseOYRWVnhdNnzl79TWwUUDml9helpvLQNEQXQNpRvvxXPfC+8j1tF6ijZcB/5GTqGRqPV3AhnnCkyPqzNZc/3xMEhViQhCmz/rN5hV7Ndaomdm/0CLO20M1Xs9mzGY50/ppGs4mARBT8+/AXkmrYrp/I69syaKquuv1A2PFFFEjZYp7sviKwwgijCGkUY3tRpIueeI96DD4hnPiv/HSrm9JlDDFiyRLxrrha56SaRFctDI+qPL/8cHA4mkhCF3Zl87rnn6nJNQLgJlpYSLsJuFsOxSh2mGxzHWcXB1CjyG7Z9/5Usv+gE2d7pc5GEiB8njDlDcWanrlHIxo3i3VFVvDJlxJszN7HeTXhjh/f77yJnnineKy/7ubIdHHIYkhAF2gErhw4//HBdjmmFNytoWOppHaRsakPAs+rJLhHNChxRHBgk7N4pG5s+KquuPF12T/dDkKSGuYYo2iYjCgsy5Hkt3hLvtNPE69krQiCOKWKG9+abIicVFunnx9BycMhpSEIUgDhOxYsX17Ad7OyFFFh6SvY7TE1sXmvcuLGuimLndiymG0cUBwZ75s2Q1ZUulfV1akj8xrSJPTWisISgdDB0iBKFPP98IkE4s0hsIHSEV9VoaheXElm0yI2mQ45ECqJA8LNZ7JxzzlHCIDwETm5IgtVQpEPlEYc3+xRigSOKA4Pt3TvKilIFZVv7TzSBUVpIS6OwVnJdGntFRfGuvVa8jfs/sVW+ABFMzz9PI5h627Y5onDIkSgQ3ndgwb4CoqQSmoJNXADnNruGiW5K2AubiyEM+kqtv7TgiGL/ICxsWNq66aU6srJcMdk9OaVJKYz0TE+K3XvEa/yUH7SOzY6mygm2zEEp1//vj12b1iInnyze118bJS2yAs3BISehAGEsSH8aDRDmhIiwu4QtWDXD5jeW0BJnKVo4otg/CAubvQtnyepKZWRdzdslfp0fmystYZQhURh4P/4k3imniHwYW0DI/ApLEFpI/lS7lhKv+QEl1js45DQUYD9E+fLlNWAdm89Y2RTt2m1IA58GORdYKcUeDBt/KRo4otg/CAucnX1/lJUXF5Ytn71lPtd96QqiqIji7yniXXC+ePfdR9AvJ9higLdgviRcXkHkRpbFrnBj6ZBjUYCAdey+Llq0qJx33nmaxIfd2YTsnjJlikY6ZS8FobeJW0T4bRzaBLsjDPeZZ56phdwU7NROK5xFanBEsZ8Rv1e2tHxOVpU7ReJGRPJ+p+WAjoYoZMN6Sah2p3ilLxVv5j9OuGUSdg6mD337iHfySeK99pp4eyOhaBwcchrUmU2AO3ZZs4qJzHbHHnusFhzWxYoV00RGOLd5XrhwYTnmmGM0rAf15E1Aq0gtXlJGcESxf2CJYN+KJbLu3htlTY2rZN9yGyDQ/5caoiIKYmsRXv3kIuL99GMaPTmkDX/0tbz+ungnFBSvX79gHM0kyy03dsiBSLLqCcIgaip5EtihXbFiRbnooouUECjklyZgIClCCbuNoE8exjozcESxv+ALm7jRQ2TlpUVkc4tnNLaTj7QFUVREYeD98YeG85CmTRLNlOEd3g7pIXBYm9+ad8cd4l1+uXhz7QbGtEncweFgIsXyWAtWNJHAiE12JMShzJo1SzfYxRK2IwxHFPsHKnS8BNna5j1ZUfI42dGva2K9j9SFUdREsXSZyDXXiHf9DeKt8lfFWTiySA/QgG+a9f4YJUZNF69+PfX1+HBj55AzkSZRHAg4otg/QNzEb1wr62pVk9WVysqeuTP8AwY6809DIEVLFAlokc+/IN4Zp5NPVntzBJExLE3oeLVuLV7hE8Vr3z70abgxdMiZcESRR7F7yjhZec05svHpxyRhp786SYvRNPiXGqLWKPjz88++n6JlSyfeooZP0R5E++ijImeeId6ECVqnBKIk7uCQ85AtRJHV2aQjiv2HHd3ay4qLT5RtHf0824CPST+qND6vaIjCijJv+nTdUezVqCEJLKnWWodo4BGZudTFIoTuWLtOx07HVYnCjaRDzoPTKPIgEnZtl00v1ZWVV5wucRNGBrUZIzMahcemS/ZSnHueyKRJQb35l8VJQ35A4sh06ybeiSeK16KF+bBS1+4cHHISHFHkQez9b56srlxG1j50s8RvjD4MfHQahW8mkQRDCp99Jt5xx4vXoQM1Pjwn+NKDJil66UWRYqeI9Ps1qHVwyNlIQhTMBklOlJlNc7HAEcX+wa7h/WXFJYVly/tGIEXmsRkieo0iMJCMHCneaSUkwXx+CeZ7o3VOo0gfy5aJd8ut4l11tciihUGlg0PORgqiINhf7dq1pV+/fjHlmogGjiiyH96+fbKldUtZedkpsnNA96A2OkRHFBCBTxTe8hUilSoboXeleAsXBEcc0sXwEeIVMdpE06b6WTk45AakMD199NFHGkackB433nhjYgyo5JFiswOOKLIDwew+kNAJ61fL+trVZE3V8rJ38Vy/MkpE78wOTkYyo9dfFzmlqHh9+2iVI4owgs8mPCoffyzesceJ9+MPbqwccg1SEAVxnVq1aiW33HKLnHzyyRrKg1hOpEIlxtOSJUsyFUo8PTiiiB1WcFuRtGfGJFl51Rma0c7bExfURieSojU9GYZI7NH7ta94BU/QeEUJumrHIQwdj2BQvHXrRWrcJXLRxeJNm+bGyiHXIIXpCeCjIJzHqFGjpEWLFqpZlChRQk455RTNk/26mUUSVnztWpukP4LMrHpxRJE9YMztqO/s2VmWX1RQtnf4RF9nRhhFTxQRYpL588QrX07kpptFli9P3FDmkHQceK57Js49V+Thh8Xb6iLvOuQepNAoUgMZ7saNGyctW7ZUoiAoIAECq1SpIt98841GlXVBAQ8OVGRbgt+1Qza9WEdWXXGm7J74h9b5R6ITSVGZnuyqpqBLb+d2kfoNxCtxmngjRjiiSAV2PLxOncQ7sZB4H32odW6cHHILoiIKQO6JEUYQEE78+OOPVz8GEWSPOuooOf/88+X9999PzIYXLRxRZAcIMueLnH3LFsnqO8vLugdu0mWxvjCKXhxF68wmEIUSlK1p116EfQEsl82ERpkf4H8GBvj4zPfcO+MMSRg5PHHsHBxyA9IlCshh7Nix8vHHH2sIchzcJxqBUKFCBXn++efVZ9GsWTMpWbKkHHbYYVpH4qNo4Ygie2CFdtzoQbKifHHZ3KKJePFWw4teJEVvekqGSZPEu+AC8R55RBI2bXRCMIREQmVVWOnSIrfcIgnr/d3YDg65BSmIgtVNJCxq3769PPjgg+qXsKugCD3epk0bmTNnTtDax59//imlSpWSCy+8UKPMRgtHFLHDCiIvfp9sb/+RrCh3quzo+71/0CAQU1Ehy0SxZYsk3HOPeOeeJ97UKUGlg/UdaemL07+QeK+9qsccHHITUhBF7969NQcF5EApV66cvPDCCzJw4EDZsGFD0CopthhBUaNGDTn99NM1A160cESRDQhMPfHbt8iGJ++XVTddInsWWSJHUCUktskIWSYKA69VK5Gjjxb5IUJS+Rn+iAdEsWePeM1eFq9ECfF+85MUaYnuY3FwOOhIQhTMgNg3QWa7e8wMEUc1OSgy2qm9fft2+fHHH+Xrr7+WNWuiDxnhiCL7sHfxAll93Xmyvv5d4u3zzU6R+Wx0yCpR6FlGjBQ54wzxGjYQ82H6B/I5Ekd+2VKR668T7+qrJWHxf8Gn4v/LzOfj4HCwkIQoIARWN3Xr1i3dXdnso9i2bVtM2e2AI4rY4YsZT3b27yYrS58s2755T2tAZkVQTBrF6lXi3X67eJeVFW/27KA2f8OOvzdyhB/bqVEjSUjcjQ1NuDViDrkDKUxPvXr1klq1aqXra2BTXs2aNeXTTz8NarIGRxTZA9Kcbm75tKy84gyJGzMkqM08YtEoJCFevNdeEaOOitf7l8T6yMw5f8Jj9/r7H4h3YmHxOndJHBMHh9wEJQr2QOwzMx0Km+lYwYQpyR4LF7QOVkKxl+Lee+/VNlmFI4rsQfzalbL2gRtlzZ0VZd+KxUFt5pE1ojBizzpt+/wiXtEi4r3UTLzd/q5wnybysWDcsEG8qlXEu+SSUG7soOTjYXHIXSiAf+Hzzz9XYd3IqMZsqPvf//4nlSpVkqefflrrbeF448aN5bbbbpNDDz1UgwfGAkcU2YPdU8fJyivPko3Naou3d3dQm3lkXaMIiGLpYvEqVlBbvIdd3iKfCkS97UmTxTv3HF067MXFaT3QMXNM4ZBLUIBQHdWqVdP9ETix0RQOOeQQ3VRXpEgRrbOF2E88HnfccbrJrkuXLkE3WYMjiuzB9h++kpWXFpHtP34dk0yOxUeh8BLEM5MJ75RTxBvuNpUZ9VsSvjafCePx1ZdBpU8gjiIcchMKxJlZzsiRI6VHjx7Ss2dP3Ttx9NFHyzPPPCO//vqr1nHMlu7du+sj5qdYI8o6oogd3t49svH5WrKq4hmyZ+bfQW3WkGXTkzplAwH4008ixYqJvPMudsugPp+KxW3bxHvwIZGSJcWbNjWodHDIfUjhzCYIIKE5cGrvbziiiB3xq5bImqqXy7qHb5aEzanvc4kWWTY9WR8FL+bNE+/y8uJVqSqyxg8jQpiR/Aj1SZx7rnjVq2kIj3xKlw55AEmIgiWvdevWVfMTmsP+hiOK2LFr9CD1T2z56DXx9mXdPwFiNT0pWezZIwlPPCFesVNFxo2LEEh+xLedxDvpJPE+bqUvHVE45FYoUVinGnGaIAp2ZMe69DUaOKKIEeZz2/rl27Ly8tNk16A+MQvlrJqewhqDXkP79uIRJPCTVvnWYeuxx+iJx8U780zxRv/p1+lfB4fchxSmJzbb4ci+/fbbZdWqVUHt/oEjitiQsHO7rK9bXVbfVFr2LpoX1GYdsZmelCL819Oni3fRRZKAyWXTJq3Lb/DmzRcpW1a8SpVF1roggA65GymIgnhORIQ97bTTpE6dOhq7ifDhmzdv1phOPJKfgkfnzD4YiAjkvfP+kTXXXygbG94r3vZtMe/zjc30FDozn+UDD4h33nkif0cfJDJ3I/K56LOePcQ79VRJePMtXf3kHw2NkYNDLkIKovjjjz/U/ERGO0xQZ511llStWlV3Yj/22GPy6KOPyiOPPCIPP/ywxoKKBY4oMgnMODp797GjV2c/bEfbVqY+IbT2KGuI1UdhoULxs8/9ZaHt2xk5mfcFpK9V+Z+Bmtt0mXAx8UaO9Bso8v44OORNpCCK1q1ba2hxCAKtgr0ThQsX1j0VtrCXgn0XbL6LBY4oMgkjZ1QI89zMUje9+ZSsLFdM4sYOp8avj0EWZRdRKKZO8zWK++6XhHzw2SYhiiWLxStXTrwbb/R3Zvst9J+DQ25ECqJYtGiR/Pbbb/L777/L4MGDZejQoTJ8+HAZMmSIhhofNGiQHhswYIDMmDEjeFfW4IgiC2C2ahC/Ya2sfeBWWVu9ouxd9q/W+aIq68IoW4kibpd4d98j3jnnisycGVTmbTDyOvo9umsQQO/NN0X27Q3qs/65ODgcbKQgiuRYu3atTJ48Wf777z99nTzkeCyrWhxRZBYRcbN70p+y8ppzZVPzhpor20dss9ZsJQoDz2inntFIvTZtghrgi828B/+ePDYZNmkqXvHiIgN/1zoHh9yOVIkCMkCLIJZT+fLl5eyzz5aWLVvK/PnzNd7Tm2amtGTJkqB11uGIIvOwInZb5y/UP7Gjpx9GJSJ6sy6Es9NHoY/jx4tnvjtC8MitW7U+YqLJ+nXmROi98WTZUvGuulrkqmvEWxr8RmKYTDk45ASkIIo9e/ZoGtQzzzxTgwMWKlRIndoQBEmMbrjhBq0n1EesZOGIInOw4gZhu/G5mrKqQgnZ848ftsM/llTbyyyynSjWrxepUlW8i0qJ/PNPYj0tYtF8cjK8X34RKVpUvJdeMj+m3YmfiH+/efOeHfI+UhDFsGHD1ImNw/rjjz9Wf8XFF18s9evX1+Wx5NNmFRTxoD788MPgXVmDI4rMwYqZfUsWyJrby8m6x6pIwoZQRsEYZ67ZZ3oKrgPt4cMPxCtcWLx27ZKJybwlNO3deM88K3LiSSKDBgc1wNJE3rpnh/yDJERBgEDyYxM99v3331cTFM5t8mazZNbum5g0aZIUL15cbr311pj2UjiiyBysoNk5sIesvKyYbPn0LUnYu0frIkezLoyykygSr+KvybqfwLvvPr5gWp9nBebSJeJde63IdddJgtG2I/ea1wxtDvkNSYhi/fr1ctddd2kIcZvhbu7cuVK2bFklCmJBATbc3XLLLVKhQoXElKlZcWo7osg8EDxbWr0mK8oWkZ2D/Exy0SKjT2ju0PGGKBobovBDTmQVEQFpHs13xatRQ7xSF4s3bbqt1b95Dd7P3TRxkzRvjg03qHVwyP1IQhTsyiZr3YUXXijTpk3Tujlz5ihRsEvbEsWaNWs0wRFEQT6LrMIRReaRsGWDrK9VQ1ZXulj2zv8nqE0fKpYh8gzIfO6wCdK2uiGKwWlrFPTg90J/9nlKJE4c2JX81VdGgBYV+fLLxPfHslouJ0JTnjZsKHLSySJDsp6O1sEhJyIJUezevdtMhprLUUcdJW2CJY1Lly7VlU8NzY/A/rjJR3HsscdKDTNTxPmdVTiiyDz2zJgkq669QDY2fUi87VuC2vTB7D4awbxg9F/S7u6nZP6ICUFN6rDC3v+TCsy5/H/ByylT/P0U994nXh4Nt+3Nny8esZ1uvFG8/RwjzcHhQCOFM3vChAm6HJYQHu3atdONdaVLl9YQHmgZP//8szq3CxYsKJ07dw7elTU4osg8tnfvKCtKHic7uoT3JmQMhPOeXXEyZ9AYmfR9P/mrW39TBiSWqb2HSL/mX8iHFe6Tfq9+JtN+GSp/dY0cn/zTb/JX94GybtESJQKfDIKO04Ee3rJJ5J57xDv3PPEmTgzeksEbcxu+/0ESChWShBYtJGGfn7DJwSGvIAVR7N27V77//nt1VuPUhjTQMAjrgVA/4ogj5Mgjj9TAgfgqYoEjiszB27dHNr7ypKwsf6rsnjQ6qI0eOzZslt7PfSBtbqsj39zZMGmp9qS0qVRXPrnmYfnSPOLU/uaOyPGvbq9ntI3GMntIxH+RtpZi6sNaBSlS27cT74SCIh99qHV5gibsTRhNXOo3EK9YcUkYOjTGRcoODjkPKYgC7Nu3T/r37697Jc477zwpVqyYEsU555yjS2PRNDZu3Bi0zjocUWSAZNJ03/J/Zc1dV8v6hytJ/KqlQW30iN+7T9bM/VeW/DVTlk2ZnbRMnS1LJs6Qf8f8LUsm/aOvw8eX/j1L67avD00OMpT2kQbe1Gki558v3l13iWzOG6HHLU8mzJwpXpky/p4Ru7hD/zo45A2kShQW27dvl+nTp+subQqxnbKDICwcUWQMBI4VOnHD+6k2sfm9Zka7yGXmjS2bxatdWzwz2ZA/RucBQRq5A69DB0k45mjxPvlYnffAaRUOeQnpEgU7r9mA16lTJ92t/euvv8pMM3uKxYEdhiOKjBFxCRtZ27qlrCh1ouz49Wd9nd3CVs+1HyW4Lh897jjx3norqMnNCD6ZLVvEe+ghSTijhAghSyJHHBzyDFIlCgIBtmrVSpe/Fi1aVHdh45cgtPhFF10kTz31lC6bjRWOKDIGcZFA/Ob1sr52dVlzw4Wyd85UrcvubVxWwPnCLvvhLZjvm2huuEFkxYqgNpdjzBiNZ+U9UlO8zZuCceOT2R8j6OBwcJCCKHBQv/jii+rAPuyww3RpLCuennjiCbnxxhs1TSqxn6pXr54YUTarcESRESLiZs/MybLqmrNlQ+MHxduxWetykzDiSr09u8V8uXRTmsZEyuXAme998IF4x58gXtv2/j36R/Svg0NeQQqi6NWrlxxzzDFy+umnq9Ma89PWrVt1sx0pUclFcfXVV2tgwLfffjt4l/+jySwcUWSEyJju6P6tLL+ooGzt8HFQA3KTJTwQob/+Kt7JhiieeVoSbNA8BK6uksotCO7F/B4Sbr1VvIsv1jzhFi5gh0NeQxKiwHlNlFg0iS+++CJN4T9ixAjNeoeGYXdrZwWOKDIGn4AXt1M2N39KVlY8Q+LGDfMPqIjNRQIpuFRv+XLxbrpJvMvKisyZ7d+ff0T/5iZ4ZtIkJxht4smGLBXMhXfg4BAdkhAFvgl2W19wwQXy999++OowLHEQ6uP666+Xyy+/PDHWU1bgiCI67FuyUNbcfbWsffhWiV+7Uuv8zyL3iCZ7tXrF778v3lFHi3z7La8i9bkEer3snXjpRT8xU8+eSa/fvMhN9+PgkBGSEAX+iQceeED3TqRGFBYED7zyyivlqquuimnTnSOK6LBr1ABZcUlh2fLey0kEUG4TRhiX9JrHjRXv7LPEe+B+86XbGNxH7robb/Yc8cqUFe/WSiLLVyRevd6h/9/BIc8gCVEQVpwcFDisP//8c32dGnr37i2nnnqqNG3aNKjJGhxRRIGEeNnyRQtZfvEJsnOAvywW5DZB5F+vTxQeeyoee1y8EqeLN3KkXxe0yBXAn2K0IZb6yjvvBJXJkds+IQeHtJHCmT1x4kQV3mgVX331laY/xdTERjtWOXXr1k3KlCmjx/v06aPmKqLJrlq1StuwqztaOKLIGPHrVsq6mpVk9e3lZO+iuUFtLoSRm2Ey8L7/TjwzIZHXm4uX4+37Sa/O27De32HOstjx43L4tTs4xI4URPHLL78oCbAE9vDDD9e9FITyePjhh9UvccIJJ+gxsuDdfffdWshhUaVKFXnllVdkRSbWxzuiyBi7J4+RVVecLhufe8JfXpqLgUBNFKr//StexStEyl8m3oKFSY/lMPjXFfo7erSfjOmRmiK7diU57uCQF5GCKD799FPNk01sp5NPPlmjxIYLKVI5xkY82tl6ggXefvvtsmDBgqCnjOGIIn14CQmy/fsvZWXpk2T7d62D2tyOQKzijH/jdfGOO168H743tTld0AZXuHu3eM3NdZvfhnzXJbetPXNwyBJSEAWCnlAd5MqmEGY8XAgWSH2/fv20HY8U/BZjxozRJbbRwhFF+kjYtkU2Pl1TVl13nuyeNi6oza2IiFNELq+80X+InHO2yMMPimzc4B/MgWB3vL16b9EikUtKi1x7nXgrV/j7QBKPOjjkTaQgigMJRxTpY+/COYYkzpH1dapLQlzeS/jjYbZ59FGRIkXFG/WHTx4UnMX8C5ZjH2wkBESh19Oxg78T+5139ZheYQ65TgeH/YU0iQIn9U8//aRC/J577lFfBOlQv/zyS/n333+DVrHBEUX62NH3R1l+yYmyre2HQU3eg/fzz+IVKiTy/PPixcUFtRGyyClQojC/Cbm9sngXXCgS5JSPXKEjC4e8i1SJ4i/zI4Ac8EHguCZcB0EBeU54D3ZkDxo0KGiddTiiSBue0SA2vdZQVl55luyeMNKv0795BT4NJKxcKXLzzeJdWFLknxn+oUTkhDv2r4G/3qCB6sSWOnXN57Pbv37zJycRmoPD/kAKoli8eLGuYoIULrzwQl3J1LVrV+nevbu8++67usmOY+zKnjJlSvCurMERRdrY9+9cWVOljKxjN/aGNUFt3oIVr97HrcQrWFC8Tz8VL95fXq2COQcJ4ATMZEajTji1uHgDBgTXZ4r5k3Ou0sFh/yAJUaDud+zYUQ499FAzybtZJk2alCT3BHskFi5cKI888oi2ef7554MjWYMjijCSipu4Yb/KiktPlq3vv6SvfaGU90SS3tf8eeKVLSPeVVeLt8Lucs45NMF1JEyaKN5ZZ4lUqybetm0hJzbXmVOu1MFh/yAJUWzZskVq166teyV69OgR1KYEmkSJEiXkuuuu08iyWYUjigjUJq92efN8727Z1OIZWXFZMYkb/pt/XB2qeUkgmXsJEV+C0Vy9EwsHS2X16EG9X3sNQDcEvviCSJEien0ODvkNSYgCBzZ5JkqVKqUpUNMCO7XxU2B+IvR4VuGIIoKw8zZ+1XJZc2cFWXv3lSGzU1h05Q0EtOj/nThR5PwLJKFyZfHWHvx7TnLmWbPEK1lSvOtvkISVeSThkoNDJpCEKAjw99BDD0nx4sVl1KhRQW1KkKOCTHcEBowlh7YjigjC4jBu9GBZVb6EbG35jNrsVWjlMbOT0qLeUkCPbGRr2MDfyNa7t193kOBfVkBgxDt7u6X6UORzQu+nHv/MwSEvIwlR4IN477331FmN8E6NBOLi4uSjjz7S8B74KuLj44MjmYcjighUcPJoiGFLq1dl1eUlJG7or8ExsSv59XVegN4JwjgQyIoRI8QrXkK8u+8W2bL1oN2t1e50xBctFK9CBfGM9uz9u+igXZODw8FEEqIAkydP1nwUJC+qVauW7saeMWOGzJw5U4YPHy7NmzdXH0aRIkWkb9++wbuyBkcUYfgiKH7DKll7z5WyptqVsm/1Ml9YaclrPgpg78d/ZMmpLj0tVkykTx+tjdzxgb13e27v00/EO/FEkY8/TlyR5eCQ36BEETZr8Lxnz56JgQGPO+449VmULl1aYz9Rx+P7778fs3B3RBGB/QR2jR4oK8sUkc1vNTWCyWprhiIweRxYWXlQ4I0aLd4ZZ4h3Vw3xtm7xhbV+Pw1RMtMPfVf3B/zz+c9l4XyRcuVELrlEZP48rdrf53dwyIlIQhT2h7h3715Nd9q4cWONHnvOOefI2WefreHFMTexp8IK9lh+OI4oksLbt1dXO60sW1R2BWYnoMIr+JeXoXe3a5dIXaNVFC4s0rtnYj1EeSDu354hAWJu8ZZ4xx4r0qpVhLTz9kfg4JAqkpieWOravn17efrpp3XV0y7zo507d66aoyiYn2JxXieHI4qk2LtqqaypdpWsvesq2bcqMDtB3v7hPA97n97IESLFi4tXvZrmftC64M+BIgtv5j+awc7MlMRbsEDrEvLRZ+HgEEYSomAfxWOPPabmJcKN7284okiKnYN6y8rLTpMtHzRT7cIXSmHRlPfFlN7hzh0iTzUROfFE8Tr5ebWBr71m7xgk7c1/lcC+iZdfFjnqKJFv2ooE2oRPE27Vk0P+QxKiIPVpp06ddEUTQQBXr14dHEkbzvSURdjZaTB8mFY2vVpfVpQtKnHjzYw6X4LB8AfEmzJV5JxzRa6/TmTJ4uCI+RuMV/aAHu0/f10ZNJAwcpTuwvZuu1W8Fcu1ZQTZegEODrkCSYgCYFp64YUXNCd2kyZN1NxEjgmWxVJ2796d+BxfRizIv0Thi6TwSqa9/86V1beWlrUP3SwJm9dpXX6EFcNoVPL2OyLHHCNey5a+zyCbwbn88Y8QhWe0au/Rx8Q74QTxehKdwF6Rg0P+RQqiGD16tC6LLVasmBxyyCFSsmRJueOOO6RmzZpacGazKY/yzTffBO/KGvK36ckIpwQrnkS2//ilrCh9smxr/7Gpz8/LMP3xUFpYuFC8K68S79zzJGHMn8GR7BTcti9L1wbffy9y7HHimd+AGNJwcHBIhSg+++wzDS9OIaT4UUcdJccee6wcf/zxiYXXHKtXr17wrqwhvxKFzl8Dkx1/E7ZvkfUN7pGV15wre6ZP1vr8CzM6YS7o1lXTpcrDD0vCpg0RgZ6NsAsGvH/+Ea/C5eKdf4HI+NyeUdDBIfuQgihY5fS9mVWRtOiHH36Q7777Tkvnzp0TC34MCtpHLMjfPgoVifp094QRsrLCGbKxySOa/hSE5rj5Ciqw+Wd9OJs2iRDa45ijRVp/YQ6GxyX2MdJz8bhju0ijRuIdcaSZLfnnib13B4e8gSREsWPHDvVRbN68WcN57G/kFaJQQZNoRIoG/jv8p55s+eBlWVHyONnZ/2etxezixFQEOtMvU0bk3HPE+zMyOWHM7WhlFYmfhJkAeccdJ3L/fZKwZo1fl4SUHBzyL5Qotm3bpuE4cGLjg2CJ7FtvvSVjx47dr4SR24nCi9ul5hDZszsLa+x95+zeZQtlbbUrZe3dV8m+5f9pnUNKeEbD9QoVFCG67OLIKqhYCVXfPX68eBddpEXGjQ3q/X5j7d/BIS+gAJvqCARYuHBh3T8RLueff75069Yt5tVNaSFXE4Uhhl1D+8vGZg1k97TxQWVm4Aug7V2/lpWlCsq2r9+XhH02SZQTThEEY7Fzh3hvvCHe4UeI92RjM7vZrkdiWZ4NEgj6V6mSeAULife9nwuDc6qGqC9i69/BIS+gwJAhQzR20xFHHKEpUN9++215/fXX5frrr1eyIGzHP0b13x/IrUThyw9Ptv/QTpaff5xs7fiJ1kcPf54av2mdrH/sdll15dmyZ8bf/hE0Ew7GKADzChgpOxLeqlXiPfCACH6Ed98Tb7fR5PSAHk4V6Y7iunXiPf64JPzvf+K91lw88x20Zj+fgNxn4OAACpDOlLSmLHcNb7AjYuy1116rZIFWsT+Qq4nCYM+0SbLyqrNkw9OPirdnV1AbDfwedg7oIStKFpRNzZ8yQi94P0Shx52QsohQhcHsWeLdeKN4Jxwv3mefSgJ5LIJD/pjZV8EopkG43rq1Yr544h11lCQ0aCCy3t+7Emke7svBIX+jwP333y9FixaVn3/+OaiK4A2j6kMUbdu2DWqyF7ndRxG/eYOsr1Nd1txyieydlzmtK2HbVtloCGZluVMk7s+hQa1DRlDR/fff4l1zrXgFTxB5713xzFhasY6gt49B64AsgueUpUtF6tUV78gjxKv1hEiQpVEp2m/m4OAQQoH77rtP80+MGTMmqIqgTZs2uo/i66+/DmqyF7neme0lyLa2H8rKC4+THT93CmqjQ9yo32XlpUVk43OPS/yOrOcdz7cwZCHXXS/eMcf4msGc2T4JmGLXQSV/rjrG6NHi3XmnIYkjRWrVSgzRoSY/v4WDg0MyqEZBWtMJEyYEVRGw85rNdY4o0saeSaNkVcXTjcA3QmfX9qA2fSRs2SQbmzwsKy8pLLuG9w9qHaKDL8y1zDJa3EOPGKF/lGahk7btxFu2PFHYJ7ZLiBeBSFq0EO/cc0UIz9Gsmcjq1UEbSxH2nQ4ODmEoURCmYyLJ7ZMBomAHdqyhOtJCXiCKhM3rZUOj+2X1tefLnukpxzCCiBDaNaCnrLiooGwy5JKwfVtQ6xA9IjN/b/UakU8+Fe+C88UrfJJ4V18jXtOm4n1jJjedOolHnus6tcUz3zOvUCGRihVFunUTb7u/asqHJQp96uDgkAyJRJGeRpHcR+GvzIn9F5UXiALs6N5Rlp9/tGxt87Z55Y+LL3p4bgpjFYxX/Mplsu7hSrLSaCFx44bbFg6xID5evKl/+xpDxStFSKVa7BQ/pWpR83haCZFbbxNp01q8RX7eazfmDg7Ro8CDDz6oAQCbGVX822+/1cRFFEJ0PPzww/K///1PHzt27CgdOnTQYxAHZdSoUUE3WUNeIYq9SxbImjsryppKl8re+b5TW2kiIAd/B7F5TNgnW7/+UJafe6Rs+fhVNYn4QsuJrWzBnj0iy1eIN95Melic0dloFL/8IjJtmsjatT6hBE19uHF3cIgGBdiJTZTYww47TI488kjdT0HhOXWseuLR1lPIV0Fd7dq1g26yhrxCFGBb+09kBVpFq+Yiwca5RI0i+LtrxABZdXlxWfvAzbJv6cLE+uzQzvI77EjbApKPqn8s3MLBwSEaFCBaLEmKqlWrlliqV6+e+MixGjVqJNZRCDtetWpVjTQbC/IGUfhCZ9+yRbL2/htl5WVFZdfI37QujN1TxsnqKpcpUewa1lfr9J1qltKXDjHAJ1s/v4dd6QSstqaP+j9S4xcHB4eMUAABTRBA0qBmpvCeWIV7XiIKsHPgL7KyXDFZfVtpiRs9ULyd2yV++xaJM5rE6iplZcUlJ8q279oYeWbjZ1mx5QRWbLAhGSNjGRlXSx52rCMtHBwcokOKMOMHEnnJ9KQiae9e2dq5tawoU0RWXXWWbGxWXzY8+6isLF/caBrFZHuHT8Tbu9t/g4ODg0MugSOKbAAkYeerCXvjNFz4+lp3yqrrSsrq6y+SDQ3vk12D+4jEB5qEm8w6ODjkIjiiiBFqGzfFl/0RBkjYsEb3VeyeMVkStmwIamlBVFLHFA4ODrkHjihiBCIfwZ/4qCQQIQL7SjUOL4FGoaMODg4OOR+OKBwcHBwc0oUjCgcHBweHdOGIwsHBwcEhXTiicHBwcHBIF44oHBwcHBzShSMKBwcHB4d04YjCwcHBwSFdOKJwcHBwcEgXjigcHBwcHNKFIwoHBwcHh3ThiMLBwcHBIV04onBwcHBwSBeOKBwcHBwc0oUjCgcHB4dU4NIBROCIwsHBwSEV9O/fX37++WdZu3ZtUJN/kSOIolGjRrJ7t0sR6uDgkHMwduxYufbaa6VKlSrStWtX2bhxY3Ak/yFHEEWDBg1k69atEh8fL3v37nXFFVdcOagFWbRjxw5p2LChFChQQAoVKiTVq1eXHj16KGHkN7PUQSeKSy65RM4++2ypX7++NGnSRLULSuPGjV1xxRVXDlp5+umnpXLlynLEEUcoWVjCoA6TFJPb/IKDShSzZ8+WGjVqSIkSJeSCCy5wxRVXXMkxpWTJknLGGWfI4YcfnkgUlJNPPlkntUuXLg0kWd7HQSWKuLg4+e+//2TWrFlKGq644oorOaXMmzdPXnjhBTn00EOVIJjQ1qxZU53caBP5yfx0UInCwcHBIaeCSez1118vxYoVU4IYMGCAbNu2LTiav+CIwsHBwSEZ0BZ69eqlC2169+6tju38DEcUDg4ODsnAqqdFixbJ5s2bg5r8DUcUDg4ODg7pwhGFg4ODg0O6cETh4ODg4JAuHFE4ODg4OKQLRxQODg4ODunCEYWDg4ODQ7pwROHg4ODgkC4cUTg4ODg4pAtHFA4ODg4O6cIRhYODg4NDunBE4eDg4OCQLhxRODg4ODikC0cUuRxEubRx8ZcvXy4dO3aUTz/9VD7++GNp1aqVPtrnlI8++khat24t69at0/fsTyQkJMi+ffv00cHBIffCEUUuRzh5ypgxY+TMM8+UQw45RI499lgpWLCgnHDCCUkK9aeffromZtnfGD58uCZ+GTRoUFDj4OCQG+GIIg8BoihSpIgSxCuvvCI//PCDfPvtt0kKGsePP/6438Inh4kL7eV///ufvPnmm0FN7kX4vhwc8hscUeQhjB07Vk466SQ566yzZNKkSUHtwUObNm2UtN57772gJufBEYCDQ8ZwRJGHAFGQ+J2E8GgX0WLXrl1qJnr//fflpZdekhYtWmjax9SyetF2xIgR6vd4+eWXtXz44Yfy559/yp49e7QNSef79u0rjz32mBxzzDHywAMPSM+ePeWvv/7S4ySE6datm8yYMSOFoN64caOee8iQIbJ37171b0yfPl37W7lypWzYsEG6du2qWsqUKVOCd4nMnDlTvvrqK2nWrJm89tpr0qVLF/XZRIs1a9ZI9+7d5a233kocA16vWrUqaOEns+EeuD7ucdq0afLFF1/oGHDO7777Ls1zUv/TTz/pddv2bdu2lfnz5wctkmLBggWq/dGO9viXGOPdu3cHLSJg3EeNGiUffPCB3j/38Ouvv2peZweH7IAjijwESxT4KcaNGxfUpg+E7/PPP6/vQRspWrSo+jLIE/zcc8/pcQuEND4H2hYuXFhOOeUUPR9kcPbZZ8s333yjwrRPnz5SsmRJrScxPX4R2j799NPaT+fOnfVcCDSc3WEg/EuXLi3XXXed5idGCL7++uty4YUXyieffCKNGzeWQoUKaZ8///yzCk4Early5RKv/8QTT1RNplq1avL3338HPaeNWbNmyT333KNmO9sH5+Aea9SoIf/884+241yMyXnnnSePPvqoVKhQQe+fsaI9pUqVKjJ+/Hhtb8Fncdttt2l/9G/bH3/88XLjjTfKxIkTg5b+AgBI8dprr9V7sONMezRFtLNNmzYFrUXWr1+vZsZzzjlH+6Yt7+NeuNYw0Tk4ZBWOKPIQIAoERPHixTXPL0J+8eLFScqKFSsSZ6UIYmagRx11lFx55ZXqw0CzYFUUwhr/wttvvy1xcXHaHlMSbS+44AJdWTVs2DD5/fffpV69elKgQAG57LLLZM6cObJw4UKdASMcaX/TTTdJy5YtpX///toP/dMegoJYwpgwYYLew0UXXaQzYrQK2nEtEBRCFuH66quvyty5c3XWz/2eeuqpeq1cP9rKHXfcoeeALEiSnxY4x1NPPaVtb731ViUfNKZ27drJpZdeqvXPPvusEhak1rBhQ62DAC+//HL5+uuvdTaPBkMifo5xfWhNAE3lzjvv1Pq77rpLevToof2jfVx99dVaD4Fa7Q1SgWQPO+wwuf/++1UTo/27776r93744YfLl19+qZoYY8M4HH300VK+fHklTNqiWXHtjBkayc6dO7VvB4eswhFFHgJEUaJECRViCNVSpUqp0KEgeBHwt9xyi5ppAAKOGXHFihVTrIJCYPEe+sP0A1k8/PDDKqwQimEgiJkBMxPHPAIgADQAZrcIcF7bZbIIOgQkJJWcKCZPnqznLFu2bCJRIAxZyYWmg8BE+CK4eeR+mG1DGGFAkvfdd5+OBZpOWr4ITEJc+3HHHafCOwxIEOFfs2ZNdf5z/ZZULrnkEjXvhftlDCEJjn/++ed6DA0Jbeuqq65Sog4DQkOrQAtBM6A9yfx5P+fk/iwgqc8++0w1KUx5aBWYwdAyIPWwGQ7w+fH5s8LNfiYODlmFI4o8BEsUzEYRTswqL774Yi0INgR/5cqVdSaOUGrevLnOUBF+a9euldWrV6vGgYDiOcIKodW+fXslCjSIfv36qR8Bobl9+3Y1R6Ep0D8z+7BvBGGJcE/uzE6PKHDCp0YUtL/33ntVoFqw7BbiQghjPuIeuH7MLVwXfhTeh5korVVe9Aeh0K5SpUraJ+TBDB/Ni3GAdBgvXjdq1Ehn6ph7UgP3hhaFJsM4sV8FLeKPP/7QPiA47ot+8YMceeSR2pbrpY5xxISU2pJi7o++8JHwebCqDG0CjW7ZsmVJPj8e69atq/eFBse5HRyyCkcUeQjW9ISgRZhgWkJYhcuWLVu0LYKmVq1aOuOGVDCDoFlcccUVWniNOQdBg63bmqvQHnr16iVvvPGG1K5dW801aC8QDv1wDRaYpyCKd955J6jxkVmioB3tU+uHGTY+CfwFya///PPP1/fdcMMNKWbzYaA5YDaDABDczNAhFxzV+A/svTNmzPjxG7D0ODXghMdPwGwehzRgAQD9dOjQQc1oDz74oJr66AdNCf8IRDF16lS9d64bwZ8e0DDs58fiBfpL6/PDr8S1OzhkFY4o8hAQ0nbVU1hgpwbs1mgMaB+YpBCmmGDC5eabb1Y/AwKZGfbgwYPVtIKJCUGIWQYzCERSpkwZFXJhjSIrRIE5BXNJmChefPFFOeKII9T2HgamLRzmCGauFwd4+Pq5Vu6L82Tk1EUjwbletWpVvRdm9QhxxpLVYAh7rqV+/fo6xvgOUgPmPDQrSBN/DWSN5oCzmb4gNDQXfB2MPyYvHOYQBWNnSSajnfNcy0MPPaREgXOde09+//iGIHJWVzmicIgFjijyEMJEMXr06KA2dSBoEFaYLhCEaBrW5ETBzIH2wIofhBbLOHGYIpghBnwJaCgAYYhZCAKJhihwikMUmG+s38IC2zrmpDBRMCPG1/H9998HrXyw3BT/BIJ2yZIlieYzex+YX7j+f//9V/tJDZiCuD/r8IUQEPBoTczYEeTM/HGS0/bJJ5/UOvweqYFlqZAMjm7GDz8EY4afCN8O18I5AOYlNEAc7xAF18pnB8lYbSQM/BK//fabrirDlAYB8vmh3XEP9v7t58eYsIQXknSmJ4dY4IgiDyFMFBk5MBHQrNjBZIQJKbnABphKMIvQL/4JTDyYNcJ+AoBgRbAzk2bVkoUlCogoDKtRsF8hOTiG+QdTEASUHlGw9JWZOktnEcDJwRgw6+Y+rPkoOebNm6f3D2khrMPg3GgYXCvaDGTCCiU0DRz7VuBbIIzZ88Bx/AMIa9qjtSHMk4NVSgh6iA7BDxFgPoJYOnXqFLSKAHMiJIqWhN+EFVqQFqujUtMYMI/R99ChQ4MaB4eswRFFHgKzcWao0WgUACGJPR4hjBmHGTi2b2byzFpPO+00XZWD8EfoQhSYOViCieClsNLHLo/l3NjoLaxpCEGMRmLNKaxQwpSEXZ09BwhkHOMDBw7U66EvtJeMiAJBzayf9nXq1FHCsteFvR/HPcdwaqdGhIAxwMmPf4KNg2gjnJM+WO0FMXKM5cbUPfPMM9onAhpNiTHDfIaQZ9UUY4bfhPGjPdoX7dl8yMye64AU8IugdXAMjcLuV2GFGHXsC2GcMfmhybBSDdLmGIsQuEb8LpiyOB+b7fBrcC2MG3sx+B5wnY4oHGKFI4o8BIQ5gh0TELbyjAApYBpBE0AY4o9gQxuzZWzlCHmELLNVVgLZpZ/Y0JkxQwAI9HPPPVcFJMcQzuy4Buygpg8EGYIPIQiY/WM7pz3vxwTGOXHiopkwy2b1D4SFkGzatKlqGWzUSw60Cuzxti98CFwb76cOjSKt3dIAgYsNH4HKtbLnAfMSxGP7QEBDIAhhVojRjmWpECP3wZgxq8cMRnuIDWENrCmK8WUZbJMmTdRMh3kJXwxjw3E0Gu6Xa61evbr2Q5vHH39ciRgNizr8RnYpMxoMpMtiAvpnqTDXgu8DzQMyZsVZajvsHRwyA0cUeQh2h/EjjzySKKwzAoKSJa8ILwQ1wgsBhdDBNILwAsyEMUExM8bcAzGgXbCJDLs5G9TQBpidW60CWzkhKxBuzMzZA2Ft5fQFOdi+sOGz9BRfAAQEeSDgIDMEeXomFOzwbIrDCc0smgIxsaM7vdVOFgh1SAhBDunhlGcMmK1jSkLrAGgIrHqCRNGWmMVDTpyPccOZzEqpsAmLe2B58TXXXKP9ItQhQ8gEcx7Ew/tZCQUZATYsojWgcdCeviEtzFh2l7gF44MmBiGyKIG2kBhjznnTWhbs4JAZOKLIQ0CQYX5gVprZVS6YhZidY+7AHEQso9RAOxzZI0eO1KWs1pzE+VixhJkqLJyw69MXAhsBGnaq8l6WjdIXG8bsLBwzDAVyoj1Oc/rAPJUWOA+mJzQpzG7sFUEbyQwwI3FvjAFEhrksPI48R2NBk8C0g4bBedgjgRMfTSl8fxa0wzlNG9pC6LZfyJR6yAjStuDaOT9aIu+BIKzDPTUwtowhY4kJMq3Pz8EhK3BE4eAQJRDuaBQsGEi+E9zBIS/DEYWDQ5RwROGQX+GIwsEhSjiicMifEPk/HxdJW3iBjVIAAAAASUVORK5CYII=;" parent="xoyEL0j7F7SFWpHzrwaf-29" vertex="1">
          <mxGeometry x="113" y="26.05" width="183.5" height="144.84" as="geometry" />
        </mxCell>
        <mxCell id="o0EWwWn2LoLAqotdVzDQ-3" value="" style="image;points=[];aspect=fixed;html=1;align=center;shadow=0;dashed=0;image=img/lib/allied_telesis/computer_and_terminals/Personal_Computer.svg;" parent="xoyEL0j7F7SFWpHzrwaf-29" vertex="1">
          <mxGeometry x="20" y="50.25" width="71.17" height="96.45" as="geometry" />
        </mxCell>
        <mxCell id="G4rwLLoVx2K-rOXY0CrV-184" value="&lt;font style=&quot;font-size: 20px;&quot;&gt;Active Learning&lt;/font&gt;" style="text;html=1;align=center;verticalAlign=middle;resizable=0;points=[];autosize=1;strokeColor=none;fillColor=none;fontSize=12;fontStyle=1;container=0;" parent="xoyEL0j7F7SFWpHzrwaf-29" vertex="1">
          <mxGeometry x="72.88" width="160" height="40" as="geometry" />
        </mxCell>
        <mxCell id="xoyEL0j7F7SFWpHzrwaf-32" value="" style="group" parent="1" vertex="1" connectable="0">
          <mxGeometry x="1030" y="320" width="260" height="350.1580876737437" as="geometry" />
        </mxCell>
        <mxCell id="hI8DOcPEEPtuhdS6lUov-11" value="" style="group" parent="xoyEL0j7F7SFWpHzrwaf-32" vertex="1" connectable="0">
          <mxGeometry x="4" width="250" height="350.1580876737437" as="geometry" />
        </mxCell>
        <mxCell id="hI8DOcPEEPtuhdS6lUov-5" value="" style="group;strokeColor=#94c1ff;strokeWidth=4;container=0;" parent="hI8DOcPEEPtuhdS6lUov-11" vertex="1" connectable="0">
          <mxGeometry x="8" width="240" height="330" as="geometry" />
        </mxCell>
        <mxCell id="G4rwLLoVx2K-rOXY0CrV-150" value="" style="rounded=0;whiteSpace=wrap;html=1;strokeColor=default;strokeWidth=1;fontSize=20;fillColor=#CCCCCC;fontColor=#333333;fillStyle=solid;container=0;" parent="hI8DOcPEEPtuhdS6lUov-11" vertex="1">
          <mxGeometry x="119" y="91.36367802046732" width="10" height="61.544218726134076" as="geometry" />
        </mxCell>
        <mxCell id="G4rwLLoVx2K-rOXY0CrV-154" value="" style="rounded=0;whiteSpace=wrap;html=1;strokeWidth=3;fontSize=12;fillColor=#808080;gradientColor=none;strokeColor=none;container=0;" parent="hI8DOcPEEPtuhdS6lUov-11" vertex="1">
          <mxGeometry x="89" y="160.61982587444618" width="70" height="7.05666717580571" as="geometry" />
        </mxCell>
        <mxCell id="G4rwLLoVx2K-rOXY0CrV-155" value="" style="rounded=0;whiteSpace=wrap;html=1;strokeWidth=3;fontSize=12;fillColor=#FFD966;strokeColor=none;container=0;" parent="hI8DOcPEEPtuhdS6lUov-11" vertex="1">
          <mxGeometry x="99.5" y="157.595539941958" width="49" height="3.024285932488161" as="geometry" />
        </mxCell>
        <mxCell id="G4rwLLoVx2K-rOXY0CrV-156" value="" style="rounded=0;whiteSpace=wrap;html=1;strokeColor=default;strokeWidth=1;fontSize=20;fillColor=#CCCCCC;fontColor=#333333;fillStyle=solid;container=0;" parent="hI8DOcPEEPtuhdS6lUov-11" vertex="1">
          <mxGeometry x="99.5" y="29.819459294333228" width="49.5" height="61.544218726134076" as="geometry" />
        </mxCell>
        <mxCell id="G4rwLLoVx2K-rOXY0CrV-157" value="" style="shape=trapezoid;perimeter=trapezoidPerimeter;whiteSpace=wrap;html=1;fixedSize=1;fillStyle=solid;strokeColor=default;strokeWidth=1;fontSize=20;fillColor=#CCCCCC;gradientColor=none;container=0;" parent="hI8DOcPEEPtuhdS6lUov-11" vertex="1">
          <mxGeometry x="64" y="167.6764930502519" width="120" height="60.48571864976322" as="geometry" />
        </mxCell>
        <mxCell id="G4rwLLoVx2K-rOXY0CrV-158" value="" style="rounded=0;whiteSpace=wrap;html=1;strokeColor=default;strokeWidth=1;fontSize=20;fillColor=#CCCCCC;fontColor=#333333;fillStyle=solid;container=0;" parent="hI8DOcPEEPtuhdS6lUov-11" vertex="1">
          <mxGeometry x="109.5" y="11.089048419123287" width="30" height="18.73041087521001" as="geometry" />
        </mxCell>
        <mxCell id="G4rwLLoVx2K-rOXY0CrV-162" value="&lt;font style=&quot;&quot;&gt;&lt;font style=&quot;font-size: 20px;&quot;&gt;&amp;nbsp; &amp;nbsp; Compression Tester&amp;nbsp;&lt;/font&gt;&lt;br&gt;&lt;/font&gt;&lt;ul style=&quot;font-size: 16px;&quot;&gt;&lt;li style=&quot;text-align: left;&quot;&gt;&lt;span style=&quot;font-weight: 400;&quot;&gt;Obtain stress-strain curves&lt;/span&gt;&lt;/li&gt;&lt;li style=&quot;text-align: left;&quot;&gt;&lt;span style=&quot;font-weight: 400;&quot;&gt;Creep Test&lt;/span&gt;&lt;/li&gt;&lt;li style=&quot;text-align: left;&quot;&gt;&lt;span style=&quot;font-weight: 400;&quot;&gt;Extract mechanical properties&lt;/span&gt;&lt;/li&gt;&lt;/ul&gt;" style="text;html=1;align=center;verticalAlign=middle;resizable=0;points=[];autosize=1;strokeColor=none;fillColor=none;fontSize=12;fontStyle=1;container=0;" parent="hI8DOcPEEPtuhdS6lUov-11" vertex="1">
          <mxGeometry x="-20" y="219.1580876737437" width="270" height="130" as="geometry" />
        </mxCell>
        <mxCell id="G4rwLLoVx2K-rOXY0CrV-168" value="" style="group;strokeWidth=5;strokeColor=#94c1ff;container=0;" parent="1" vertex="1" connectable="0">
          <mxGeometry x="412" y="582" width="296.5" height="200" as="geometry" />
        </mxCell>
      </root>
    </mxGraphModel>
  </diagram>
</mxfile>
